<mxfile host="app.diagrams.net" agent="Mozilla/5.0 (Windows NT 10.0; Win64; x64) AppleWebKit/537.36 (KHTML, like Gecko) Chrome/131.0.0.0 Safari/537.36 Edg/131.0.0.0" version="25.0.1">
  <diagram name="Architecture" id="E4UHAQeY_F2saANI7SrR">
    <mxGraphModel dx="1042" dy="627" grid="1" gridSize="10" guides="1" tooltips="1" connect="1" arrows="1" fold="1" page="1" pageScale="1" pageWidth="827" pageHeight="1169" math="0" shadow="0">
      <root>
        <mxCell id="0" />
        <mxCell id="2" value="VBackground-2" parent="0" />
        <UserObject label="" tags="Background" id="3">
          <mxCell style="vsdxID=1000;fillColor=#ffffff;gradientColor=none;shape=stencil(nZBLDoAgDERP0z3SIyjew0SURgSD+Lu9kMZoXLhwN9O+tukAlrNpJg1SzDH4QW/URgNYgZTkjA4UkwJUgGXng+6DX1zLfmoymdXo17xh5zmRJ6Q42BWCfc2oJfdAr+Yv+AP9Cb7OJ3H/2JG1HNGz/84klThPVCc=);strokeColor=none;points=[];labelBackgroundColor=none;rounded=0;html=1;whiteSpace=wrap;" parent="2" vertex="1">
            <mxGeometry width="850" height="596" as="geometry" />
          </mxCell>
        </UserObject>
        <mxCell id="OTCelhYMChwd1PAsN3pJ-247" value="" style="sketch=0;outlineConnect=0;fontColor=#232F3E;gradientColor=none;fillColor=#8C4FFF;strokeColor=none;dashed=0;verticalLabelPosition=bottom;verticalAlign=top;align=center;html=1;fontSize=12;fontStyle=0;aspect=fixed;pointerEvents=1;shape=mxgraph.aws4.classic_load_balancer;" vertex="1" parent="2">
          <mxGeometry x="346" y="145" width="60" height="60" as="geometry" />
        </mxCell>
        <mxCell id="OTCelhYMChwd1PAsN3pJ-248" value="" style="edgeStyle=elbowEdgeStyle;elbow=vertical;endArrow=classic;html=1;curved=0;rounded=0;endSize=8;startSize=8;exitX=0.409;exitY=0.982;exitDx=0;exitDy=0;exitPerimeter=0;entryX=0.343;entryY=0.109;entryDx=0;entryDy=0;entryPerimeter=0;" edge="1" parent="2" source="15" target="29">
          <mxGeometry width="50" height="50" relative="1" as="geometry">
            <mxPoint x="340" y="540" as="sourcePoint" />
            <mxPoint x="390" y="490" as="targetPoint" />
          </mxGeometry>
        </mxCell>
        <mxCell id="1" value="Architecture" parent="0" />
        <UserObject label="" tags="Background" id="18">
          <mxCell style="vsdxID=182;fillColor=none;gradientColor=none;shape=stencil(nZBLDsIwEENPM1sUMoILlHIBThCRQEaEpErD9/SkNUhVFyy6G9vPGsnETe9N50irvuR0cQ+xxRPvSGuJ3mUp9SJuiZtTyu6c0y1a6M5UUqvRcRad9UBrZfLxIG8Hb7viDWz0ruk+/HsiVYhe376C3gMNEifoL1wE/0EXgrP39RgXwVYSAgad5vMFq4X1uf0A);dashed=1;dashPattern=4.00 2.00;strokeColor=#0078d7;points=[];labelBackgroundColor=#FFFFFF;rounded=1;html=1;whiteSpace=wrap;movable=1;resizable=1;rotatable=1;deletable=1;editable=1;locked=0;connectable=1;" parent="1" vertex="1">
            <mxGeometry x="322" y="107" width="398" height="288" as="geometry" />
          </mxCell>
        </UserObject>
        <UserObject label="&lt;div style=&quot;font-size: 1px&quot;&gt;&lt;p style=&quot;text-align:left;margin-left:0;margin-right:0;margin-top:0px;margin-bottom:0px;text-indent:0;vertical-align:bottom;direction:ltr;&quot;&gt;&lt;font style=&quot;font-size:11.29px;font-family:Segoe UI;color:#000000;direction:ltr;letter-spacing:0px;line-height:120%;opacity:1&quot;&gt;Namespace&lt;br/&gt;&lt;/font&gt;&lt;/p&gt;&lt;/div&gt;" tags="Background" id="4">
          <mxCell style="verticalAlign=bottom;align=left;overflow=width;vsdxID=24;fillColor=none;gradientColor=none;shape=stencil(nZBLDoAgDERP0z3SIyjew0SURgSD+Lu9kMZoXLhwN9O+tukAlrNpJg1SzDH4QW/URgNYgZTkjA4UkwJUgGXng+6DX1zLfmoymdXo17xh5zmRJ6Q42BWCfc2oJfdAr+Yv+AP9Cb7OJ3H/2JG1HNGz/84klThPVCc=);strokeColor=#7f7f7f;spacingBottom=-1;spacingRight=-1;points=[];labelBackgroundColor=none;rounded=0;html=1;whiteSpace=wrap;" parent="1" vertex="1">
            <mxGeometry x="330" y="112" width="95" height="166" as="geometry" />
          </mxCell>
        </UserObject>
        <UserObject label="&lt;div style=&quot;font-size: 1px&quot;&gt;&lt;p style=&quot;text-align:left;margin-left:0;margin-right:0;margin-top:0px;margin-bottom:0px;text-indent:0;vertical-align:bottom;direction:ltr;&quot;&gt;&lt;font style=&quot;font-size:11.29px;font-family:Segoe UI;color:#000000;direction:ltr;letter-spacing:0px;line-height:120%;opacity:1&quot;&gt;Namespace&lt;br/&gt;&lt;/font&gt;&lt;/p&gt;&lt;/div&gt;" tags="Background" id="5">
          <mxCell style="verticalAlign=bottom;align=left;overflow=width;vsdxID=26;fillColor=none;gradientColor=none;shape=stencil(nZBLDoAgDERP0z3SIyjew0SURgSD+Lu9kMZoXLhwN9O+tukAlrNpJg1SzDH4QW/URgNYgZTkjA4UkwJUgGXng+6DX1zLfmoymdXo17xh5zmRJ6Q42BWCfc2oJfdAr+Yv+AP9Cb7OJ3H/2JG1HNGz/84klThPVCc=);strokeColor=#7f7f7f;spacingBottom=-1;spacingRight=-1;points=[];labelBackgroundColor=none;rounded=0;html=1;whiteSpace=wrap;" parent="1" vertex="1">
            <mxGeometry x="431" y="112" width="279" height="166" as="geometry" />
          </mxCell>
        </UserObject>
        <UserObject label="&lt;div style=&quot;font-size: 1px&quot;&gt;&lt;font style=&quot;font-size:15.52px;font-family:Segoe UI;color:#000000;direction:ltr;letter-spacing:0px;line-height:120%;opacity:1&quot;&gt;Front end&lt;br/&gt;&lt;/font&gt;&lt;/div&gt;" tags="Background" id="7">
          <mxCell style="verticalAlign=middle;align=center;overflow=width;vsdxID=29;fillColor=none;gradientColor=none;shape=stencil(nZBLDoAgDERP0z3SIyjew0SURgSD+Lu9kMZoXLhwN9O+tukAlrNpJg1SzDH4QW/URgNYgZTkjA4UkwJUgGXng+6DX1zLfmoymdXo17xh5zmRJ6Q42BWCfc2oJfdAr+Yv+AP9Cb7OJ3H/2JG1HNGz/84klThPVCc=);strokeColor=none;points=[];labelBackgroundColor=none;rounded=0;html=1;whiteSpace=wrap;" parent="1" vertex="1">
            <mxGeometry x="330" y="112" width="95" height="19" as="geometry" />
          </mxCell>
        </UserObject>
        <UserObject label="&lt;div style=&quot;font-size: 1px&quot;&gt;&lt;font style=&quot;font-size:15.52px;font-family:Segoe UI;color:#000000;direction:ltr;letter-spacing:0px;line-height:120%;opacity:1&quot;&gt;Back-end services&lt;br/&gt;&lt;/font&gt;&lt;/div&gt;" tags="Background" id="8">
          <mxCell style="verticalAlign=middle;align=center;overflow=width;vsdxID=30;fillColor=none;gradientColor=none;shape=stencil(nZBLDoAgDERP0z3SIyjew0SURgSD+Lu9kMZoXLhwN9O+tukAlrNpJg1SzDH4QW/URgNYgZTkjA4UkwJUgGXng+6DX1zLfmoymdXo17xh5zmRJ6Q42BWCfc2oJfdAr+Yv+AP9Cb7OJ3H/2JG1HNGz/84klThPVCc=);strokeColor=none;points=[];labelBackgroundColor=none;rounded=0;html=1;whiteSpace=wrap;" parent="1" vertex="1">
            <mxGeometry x="431" y="112" width="279" height="19" as="geometry" />
          </mxCell>
        </UserObject>
        <UserObject label="" tags="Background" id="10">
          <mxCell style="vsdxID=43;fillColor=none;gradientColor=none;points=[];labelBackgroundColor=none;rounded=0;strokeColor=none;html=1;whiteSpace=wrap;" parent="1" vertex="1">
            <mxGeometry x="354" y="296" width="46" height="45" as="geometry" />
          </mxCell>
        </UserObject>
        <mxCell id="11" style="vsdxID=44;fillColor=#FFFFFF;gradientColor=none;shape=stencil(fZHdDoMgDIWfhtsG2qFy7bb3MBEnmROD7u/tJ+nFZAve9cD5mrZHUD33zWQFynkJ/mqfrl16QUeB6MbeBreslaCToLrzwV6Cv48t66mJzljd/CN2eDGnZURQvlmyOrNzcOPGaRRoSsyqAo15QEkFRQIUBCXlgZLgoBLAGDAmD2AFmE4kdxaQf7PonW3BpJ0NVCpv3zvjWnyv37lh4PC2/79prU+cNJ0+);strokeColor=#FFFFFF;strokeWidth=6;points=[];labelBackgroundColor=none;rounded=0;html=1;whiteSpace=wrap;" parent="10" vertex="1">
          <mxGeometry x="1" y="1" width="42" height="41" as="geometry" />
        </mxCell>
        <mxCell id="12" style="vsdxID=45;fillColor=#326ce5;gradientColor=none;shape=stencil(fZbJUhsxEIafxseoel+OKULegwomuEIwZSAhb58W9gCSi7lpRupRf738PRu+eLy9ethuCB6fDvtf27+766fbDX/bEO3ub7eH3VOtNny54Yub/WH787B/vr8+Pj9c9ZN99Xv/p3/h5Wgn2cy6FcG/4xt4ffp+PPzj+XA8jafj0dwyKT2Z8GR32oMG4gTuCg4G4HHcf6GTrbcECQeIhOSTMS3G5IDgWNuCAIh6suY3a1wu5MXG/N1Z+Fr+3u3uP8AhNdYBDr15rgEiNEUOIEOFkJEQo260BNNwD8gcAbNhskgwZShNgOUtu2cgAntFB3zkq8DqiEfUZBUPGvpAZ9BC1+i+VJgZUVIqh8hII59RMzGvTQ43HOkqveGq5uBqVoAL/kJo0ora0y1AmUY8bAvwgmfWwCa+s2xURLFcAutxn5y1VuXIXI4wLZlanMXG2H0EN3WVyVFrQsIQigmus6OiZ47Ofo55IC3wIRHpTWQtEWTVRx6dDsJ4JMusyKBUBigrWTaiVaVUgEFNALUogEa6ap6RiKH51DnLmc+ILBvlSJQtVxvHe8iDk7M8TDkjygiyEEVDXpp/QXKusgSryjRWn7LVoyHpIhrgFMojnUuTHOl69HmVL6PpKAxjks/xyosoPagCZztrGyk6rCIEc41JFCrUjcIUex1TlrJNxUjVs57Y9cQXhVvg+q08wvUeX5eFxEYjXCkJxypdlUgWWFrVk/qI15XLrCaFqrILTLoQ2cSZTLv0kY10nynmInrebOq2rtDrqq4VsRhH1jAIzvEUW13PqFxzp9RvLs8upEYqHpSlGdVSU89pxccwhDVUQ0fGElXQ4NcDfTim65TGj0N2mV0TYq3fR/TN7u7uOOHfkGoxj/R6dfwd4Mv/);strokeColor=none;strokeWidth=0;points=[];labelBackgroundColor=none;rounded=0;html=1;whiteSpace=wrap;" parent="10" vertex="1">
          <mxGeometry width="46" height="45" as="geometry" />
        </mxCell>
        <mxCell id="14" style="vsdxID=47;fillColor=#FFFFFF;gradientColor=none;shape=stencil(pZ3dkiS3cYWfhpeuAJAAErh0yPJ7KCzKZJgWFZRkU2/v79RsV3UnarqGVkix3N1pVGcBmSdP/mG/s9/99Yc//OX770r6699++fm/vv/fH//4tx++s3/7rpQf//zD97/8+Dd+9539/jv73Z9+/uX7//zl57//+Y8ff/7LH/RJ/e6/f/4fPeHXj3UtaUlJ//j448ef/v3jk//x918+Ppo/fljHVstsefqYvX1bl58Xpl/Lt4/6llu3PLtb8Tbn4+Pffp63WrvNUbzP5HPOb8vtXN6/rfj2V7YVO4VL/3ol32dfmo9HVD7UShu5lDnrb5OZ5V5Lr8Uyz0kp2ReEtvxPC91qrZ5a4qd5zsdXfF3qYal5Lj2Nwnr3W6nrltq91CWVmVLuzWy+ity25MlqLuxT64dETxKzfcjqs85eX8Vt2+gt9dZqqvvzF2lbfZW2b+NeWHe3qee591dhB/vjZrUVTzXPMRdhp89SM+/h2YIWp63xa0s5Fd73StoR9jaXLX1FXqwDgW3WlOYMIvOM3n1yqsNHr+fXnjJbzm34HAnhzvUPsdHkNCwPszSGzTmC2H2bYZNZ0mYQ+6cf//wEJCwa4wVLct3Gk/ZfvGdD9cYYbd/9EV6ybrN1z3k0WduqRbbVnia71AGjCC9tQzFmxs5tYhvH4scbZnY4vGHberk5GKubSZPYVgdHUqpBZja+sqV1GMfHz/1VZpQNvReE9F5m0HwwEfvMNlvrw9pyKsKfV5FR/dpvRC6FY/GxH7VbUCQewFb4dEuz57rsMYutjMnLJrA6aJFMFWSyljFyPjVLkLds2YPAbfO7PWYbegetrPP0EjZYDwDoGmrTcERR8Vmbq163eHbzRV5trZQlt9oW+C5pq2ORt91tcJ4yplS0E/wnpRJErhtvks17wWaDwBmFaDMZ/rTOMoLAaLh3wL1XXqi+Sps72xSkBVruvA3LAJTKieeag8Wxe/wt4KtvnXnxj1hIq9aFStaixbF76PSwgiWX1oOwdfOwtWzbvMNBlqEJuK3WiqUIgnOTleWJFuOETnMpx2Kr2H+vLM3joBgHREzsHexIOIUxLUI3y6NbZEX1O5HBSawBTUDNmgeRB74E7OjiUA2RLYiMrTZvnMCoXQQjB5EH5mNQgdw9pb5ocF4tTktudYJzT3V06drwvMjMDxLQluAX/fAlv54usKKgeThrqy97nEpD1ppzt4DBKEBZNtjvOB5bCBviwBomZYEroYS4PJfhAh42gy/HUltDQ4EA/EJ5lRXrwRA5lmycYj1f1I4X7RF/IUp3cLYvA64chehlxYZkeE7r7nhBGMayud0cccAHIDoI/NniJ4HbKvAds2MZlCCBVhPH64vABT1I+l8Sby9B4Az1y9pftL+tAuNFEsDOdsijR/XFAdZF4HanEWJUMDAYI1Qiqi8ILkiT0/aUF41grU/4tRkQsfoL8W4vc2SBSIoIbFsE4PbgTW+khZmwsQAXloGppyiwo1PsvmfcW4n60DcHDlMVguTojyGbE09hM+PSg7HBTIYFaccXEHhsihsGrNlGDPmwJ3hbFVepO8JGacdmBnvDl6AywdwssQ8VbmFDTC1Iy8r5Ki2f73FvXwko6PF4w29LCDKfOOulf6nAU0+gRRIehzjGtEMID2hwFBH4BLZ11yp+DUhNpMzpwmMyaPWw+ifFafn17RqM//3LlUck+Xi7Nl5s+doukjUXlI0UfD2rKy+MOuKnPDr6DO0ZaBJGs1hxm1smuBBQVpRwMeH4ZpzKHUbiiSuIqwAWs7AgKU4B3tSB5rQQaoKz6b2JWcFMxiIpts0ecHq5B0n7loKkPT08/ueSKrIdGISo54iROg8olVCw4pqVXoiuEuwkDM8Gyao12oMWKyZr0PSc0+J+IP9zkfcObAxxG3QOZ9kgmSnurR5BXGD4U6DjCeIekLKxuUiDHnireZGYbdCBGYYQtrc8cPtZ3HbHnliVex/sDxy/rsI2Qi/0En3wESW9WlnerTwl/f8IWgfufHe8Dnm82Nh3suJWMjS8VYWoq6xjKoLptdkia/VV2BiXR2ETPs6KuEKSpwtI0LNgAuZTpXuBkf4LWunsKqQK6od2BmHZPDQEMgbd6kFj05aCf+xw6jtvjkbizZEVMGCH4762nY1m+LFCkCX+gxE1IYl8enk6loe8fef8A5mxxGhgHjWW6PiOLbGKLeU0PUPwAlvSA+pH0g2Rgm2xskk/ZsLBRDJ6vfKUNGrB1yTFyseeKyxwiEVl3ws7ElAKMTQ9YRUW5C6toiGR5bOyrMLeZnLxbQYuEQjxfXWRVIS6YugdU1myX4r7RnWQAN7ii6xAMCEuMMu7vsoK2YxY0B9K/M4ntIKld+Ixos0QpaKwSMEpD/bUg6RshDK2kGIkspAOYiWWQABLhIvdvkrq0c3y6VtBFX1iqGhrceArCKrUFn40QQj648ie4hAMKrUyEWdEEJByiJKmitlFrlMeLOUUFfpzyzvLRpQA+WjKfEfEEn+Su0ec6lFU20yyTo6i57mIyhbg8aqCcA4ssmQofchTCLNuqFk9A9nza55c88XrQfdQwaIE5UKrnUAU7YYWw9piwmgHHI4Att1bDb5jgNZK9kN25AyDIeaFQYz6SE9/9m6wbn9N6o7+guEXOEMMTjRgTTnOEo5uCIBREwjDGMEtImDes34Aae4BY4YjfWlF0G8euVHeDjplx+f9zombEn5yNmgTBHPJ3I0JUBH6gTOVcDgcxIThEDYib5nhHKZ2DVbgHGZtMbOEHdbgGGd5RARvKAdcVzUGA7yBvyPf9ZB2ovgJGOl8BJyO4jpooqweP/SYeWYpGEOgRkSPE4t50bUaMOsjmnwjb+czWBkKaaYqUJQXxKoTG+gFDtVjprzL0dedRdfDg5RjKVHjIHSsKsX5Im8L/pEF/XZ/mwpBQHFWejMKi/qB0XC5yYlGzeUbcYuqaREL4kBncDpzAoI75zfZxcKVfcmOssLvyD0aqMgaLoOjw/fGDYZhwu7BdCCdfS49QIkMFRoFGEKlIrmXAOiLksSOd4vpBCyuBzCZY7vb4n0VoaO+NDp1LVd1jvCpEmKt2OBQLP5rs8Q8+SdLT1E9L6Le1uCuvzE/PaCKRjZg2u23CXu19J8WFpoEi1C8W9PC7abqkAVqrLLibKu802X7qMrMT4pUjtWtg5IDKPP+SIIeIq8engV2S0fLnjwiuMyygCBv3/QWiIOPL1EXAEslLopYXo5Q1hQ+Qf6BSJu+yjoiNNSHy38jK7SAiITXVyU+MDyw2wmrAH2vpcUcmClJ26Ep/NBaNDL8RGmuV9xr5UHYtqUAC+MLFQiWYc880lryETaWB2QiwdHBzshGWYhncbPimH2A3CHyyM8afBVeFiTtK7UY24gqEKjFk1s5fHZ/oiMXUQHED9hCuFkUJcby61QCBrCqe+kwFjNb2giACtwJ79mXk1DqFH6B266RbTdlQZeTuA1i9vxTqhxuU5IqnIT6DvgZYU7qIdrqyr81Me2mQuhyEjgZFZmml1gjhnnmEMWKCZUbSbv6VGDGbK1SyDEPOpRqbBU2LkALKXTWdlwiCtXNYo2YlSB+USkcgtUXYWMR/kptFmErYVMyWOJUjnJR8ASI7ekDn0u+n7XeQUFcJt8VAhmt5S/BQsB5xnxh2/JqjbdOuqvoTFis8tcogWBOGO9eLpno5LF3h6yAIM63iLDlRWEJkGZn48EWNj8obCc+XCnbkj9fhIUkZrUKuCLOFksTwtaaVedTjjI2yrAYl9bUo9TRhCAuDAnTdecX+L8v4s7IiP0BKW/E/VBLxMXrW1nERSDMR1pdEDiKO8ToPPGjBlDGUqs8Zq6Ew4Qsnj0qw9iOjM2Tm77dXxSs81BVoywHI5vKgkOFiY9yUn3yVV4HvZQJgA7nI249+5ASDHQ2cSCChGqBVhBSlgAL+rq7DfbdtAmlB5C0+Gg8wkzQCnQRnhgT8wqbiUdaQrljrnuq5QwJ+n50MQjnW2tU3i/0YbBMXVzgYpaiLaprqhgrNCKYC3jL0gz7GWqpajFnqDhFNR41GRDNxESMUuyLpfkdo+BAeqquQBia0xfVtU2029SHMaPmsja5yjNKccyot7bhxVRgrDX3iAuelwwXQHLbQ4TuQWCQxfoR+zz5XOebikI41C9wNTQeKtL2PsE+oyebalPLe09iLUFlZSurJ7t3DkPJKIf+NSA34C0PSEqd4FjnUWd6ElVtPKl2Mejox67yFqekJWxqSJJ8BgZZraQYNRgVmxLVpoPtsKc4uhIkxfLSrPwfB1ADAR5tY2OVsse0FlHH5msOaN6ev96+q8NJDXU1aqvSTnnicXsHjQOrHOhXFu5noKSFwFhmYCCAqYowLHYB8y55TR6OO+NiGYjelBzMtiRklZsDCqa4lwfU0rlhN8SomFCLxQMlpQkwkyAk9i6w0i6qHXeSdqCCwEt9Nx6z3Lyp8mFEbT2noAJDCAqLhVnVWWKOGwA1WFwT1Y1cnZXzIiF7J+hUl88kNsC5e0wdw+PUztGBSOW7UiDe0JwEKdDLtLOj79xVS1PpWpXKA14BTrHoibreuS0wEDAaHbaKP1zYLJQM4k1kRkQH916ahKpelahMrqnGUkfbnAAaJ5zUFRykbYvjEv27FbfhZfdWAY55qSkDBA3QAcoJhoNtTfWbZLUXTUVmQVR0Walgpbl7C5YFH4udYvr8nRpo2RQwTSWN1mrXu7IMawvulV3NLUXU+mztKW7sDNKKOyDQMgDAAAJ1qC2KoEdABggmIA59FbfjZtVmtiRMr1c+CXuxt7fCigQn+FsfR1roSVKIiXIexMCRGU75WDjuXoCJTUEqmALZRMvQsRx4NytnrHl+qUNMdYaZ9/B1qSMplW1JZcZRYupmqleWwLhrU0sszhCDmzqJUIFRY7PgRd9/uu8N28MI7Fw5x9wDdVH3g/za3o0mprWqANx1qB4GElhsIGW5EUZq4gKGtCrBI/n0JO99J4wapAEmYmXzSF/UoELUyknLzQYOC2xNdUUjr88RXRcr9zYZJbej61L2f20tuXNdgPpUMyteYe0rb3MbUsm2Z6KivrIPChKL0gZHS+XZs+OZOFLNrR7bwpQdCJLy+XIXdiljkr7NEOSzB/BJWGVMVVtRU/mrsOKcQ8M1DZ/QorDEkNpxFQ5rCZilbFaAgeZrx91rUgxCcNCOY01/2+YlKqAkQWYvl1pi08gTB89R1RSrunzZ1ICFOinmXLqN6+Cb2ThTd0cKTBKOFaGj1vtEtdimODb8DKMMjMfUT5gy0FFBshEd8zDxL2tq1fXoQEwDHyXrKIjScnQgY23eDd2B1+ICSRniCpXy4TkSX5VUoTyee1K/5tIwP/gKcFu9AcROJQKIiqtpb64xFbOWIRWW97DH9oXeJC0DRFQ8y0sLOg8gvGlEnhoBGIu8al1XGWzWOEemgqfCOOcQCP6XdliIfiTr6ji4pcCaqsuwrdGKRYRWSyskHnUgflCoHKBk7LMVQFAVI180WJXL5ugSGucjgomKdkHe9oXgwuX66x5E7iMzQWLIJQgL+S4CjSOQfMKTiVdydTWI00WJlfPXU32qZ/koST8hYEyZlvoYW3mLgMBwJeZRcjmQCzXMENEQF8vm69IEqJqBE6Uqf9KzLSJX9YNOfqQOqLw0LirKj33S9ohB3vgX1UbkB9tAL4In1FBTxUH43gnRl9kPRRyq6gu4c86LyGIatlfCh6tvJzrvtXVN0yK3uzzVHepdCZga8yRZs7Oo8GSXTSe7OppLvSrHch6qqcgiqF6c+GhLn5XGVW6tD3oIDKjS20cMlXnA3sJc1KioAnOMlpsI0OAHSoys4zVQPK+5aEpg9R6rsPN29ANNV3oUcmkzKrH6IGdpSoYnXmgJmKVydarzBwuIg1bgeId2m6ZZBcRRhW1J9xbVTO+BGOTRqIommOIkBUF6LprgxB/aOleD63FxaBifQusLqyOcro3wTx78VV6fsadVTWp3uuBD/NvFk66a4QWOHJy6c+bShj22TFyi2K2OvGLaDvCcjuVWF8fha/uDlgRpX3mSMlIP+Q6sf4bByySmEgI66NGD9miWTMhHKKBO1hi6drm2Jo6V1dQbFB0TauCUMhjJ2uLFoWA5KvsX2me0LFmCeRSlxoK8WAK0YXAgqlkukN2UlcbpKQ1aUhRYZTc4u+ZB51MV9UngBf3sEX29EVgte6oqa8anBKaU7SMAwRbUsLK4RRYXgteSVJc+AqeHwBqL48wUMrQLp8jiZYe/MGXdNB/BuYEJfn7nEeN+Mtn9JLBws1cNlvdl6v6zqfJT5BqzcLdj7E2ND2o0rvtA2FkFOhpRr0fnT5FRGeLDJBKdZkxqfDa1f4o8AvX4Qq5Aq/AeBE9EGSMS/o8aW1f6v9uVUgzTQDRbuFTsTb17UJbWNGx2pRNR2i9cIHH9jQ+V+OTKioe0e9EeBIVAtxJUOAXp0qtoKcj1ekVH7Wde8eA/z/Z4MYpvr1Gk9Ufi/7MFR8rqWDDefL6d2Zhvn/ftLfqyojr8MxN4pNhOReBHkJU0uk2YHi9g0NQgjt3U3pSCztak+TQXfW37SGLAsmpbikqbHs0cb9rPNd8BeTHl3+Mcyqff+ZAJtz+kBIpW4ygKi7Ey4U7uSz6OlbFz0ebaxxrOohxc6tuS8aCCl2dHHPfa0au/yG8/H5UpvYR1l/1SmGbS4JCwarm/Qu3r4OYwIdHTyPzRiaSkS9clCw3SF8cy0Ye2j3lIHcp6tYNtRzPjGW/cNsdXzQLivr2qazdyH3CBTwzNP5vmqOJkF9pNDF+zYtEeA2cco+45wRsQr6zs8tm87Viy+NtwbY+dldxPMGEpOKJ6WSk5NTpdRK6QXAhySg5Xnes0517KgKnixIkG46EIcRwjVhTkeWms97RqdloZ/6vmtafI8VDtZ2u4WmDLgjdAqSnI18/Pzd/tYdPNKrjQrvIh5D664KqZuJZqL7pVJa/EDB+dVI2w3ktqiw9mvRpyiaayRo9XJ1yX6p19IQPKMrV2TgXNx7Dt05Qr5612gamsfRBYMdfHsuYpnDori67VUZEyLx64LnaIXfv7psDnRZdrlgX3dvBqOKU+wOvJ1fU3+KcfvyoV1j7faKEWvCIyFp7eaKH100kdC8bbyWV2JWnwuqjpJ/bA7dcdDcUN0yEsixKaUg1ElRpbnuho7CaqMqNelU9Gk2OHct8saGD7wiCq+hlGUhClMvFKXdOmelrnN9bThcgQjqa+KXDLyxlD/uMkX7CHykc0AB87wNsS0LS8tpeFQzlGBo5MfHppQlr8ZN7Sa0iKMo83x665zFd4a+2hzJ8cu2YqTX0f7FSJg5xVWKerG4iode7LZT5ZKRKZuOr0trR5QySy6QqXoUpisOZns7FLu7lwUt7OIetoG59F6Zr7IKqtexonJq9RTE+AZ0mEgYE0uG9qXtdFZy3HPlQROtOwZeYVfU1S+lhu08HK/bYxZmpGTzNqOecY3VRNfSQbKH058lWHtCraZnUia3I9anPRNVIaYYUURxfAyhLSJdKbt8os3x1ULW1vULW32JstG7c3C+oWdF+lkXcHrbZhIxLw3SON5dq7O0ToCtXwlPhidfQuCKZKX0HXS48s+6JHGtO5Hf3v6qyT59ZVWXMuzeegLn8/RnZTgStIi5uy/Q6+Oo7rFg5pdYPf+OjkGGWpXaljKcrbXyj71Yk/EYXTa705wa/Y6k8///X7T9xq9bPefe7H51/3nBU73uktt1v0t757fF0Uvj0aNa8XpBAVNX8I+FnEHJz8zRfUel4FeJrImwO539HXE8AgAlsW4X87qqlejbpfWCfXud5moaK4NyJdSMaSoO6ae2kyCXhIHBfR4joBa+XQFgMsa9tJWvN1QaEtKnR7rW8sCj22+ZrT6K/3oy0L/LwB4FjQ34IYRtM+8nuWbdlAxeGGzY9UrIRknOdtv4q0J/ORA3y5Jhy8yG/oOrUFEFrsikP055D/avvyCXrHhqY3FqQFbVnwzgWkc0DihPi328cJKluZ1ejMWy4+QCrdaiLu8HLMx/9anr7PTO2xGv5b9E8X9/jQMEj3JR7l7eIFQ7qA5XbiQJN9VanXfbD3DN+eOnRqdVPJesRbdaR+tqeTHfo9Ftp9ZzNLf+mreV/wL4h+6CZ5bey54OnwIN3+p8GSZhdvl1XaVM9DCx4ObgZxM7Wt5xlLDmrtglGrV6iUEbiXrRfBqeBycxRKpHEEpgsJarzdSIYLdfLcTDnthQrrKwl5W9r1ar3PIE92YWCcJfb725k9O91zv8nQpXPg+/yKdwFhPadADwOvb7yRPV1WeILZ20yGKhQtqWloLu2Gwh/O0NjB4XFYQpVHsei8Jzqi3WnCJcNcNZCbl0sVy4UWl5ehv6tIzJdI7HUM8mqBxQXtXYjv56zBkyG/NRTdf2yaNUk8fW0sfGMoGo4dGqkmkPOyVI5k1tNTsz5yXm6B8qt7ld5HYZDhV24ebou5wGVBoTI7yJerX/TNXtz3Uo61XclOV5q7hOw3K03lk1Kzyn2v79byMkqjvtcbHLguu5yS4mLVq1zVtB0kzWoJyCra4sTniscwQMOxZ6UvH09+qi9FzHphZ1e5LYsJgu4vrOfCoz7C8MeEbAoTskv+s3pcMN8nNIcCk6omV9dQZYxqBiRVFXHdez6PK5MeO4g27gkXYvLmI/asDE0b1Z6ly8t8T+vx9kQ+7ncOWDqiim1WT/sy+ylGU/eZh9niDQJ1zyClpn6WGlP0Y69dZzkuFD4cdV1z19rW9xE3EWWokN0cthb037TAz1meKw28vL5fCRb1ICWPXWAyFS+62lrQHu/a1jCWxpHwF/vNtGs/PHuie3SbOhnD/s1liOPiuip+f/4TBX/68aefPv6Fg+Nl+E38Jw34q49/DsF+/38=);strokeColor=#FFFFFF;strokeWidth=0;points=[];labelBackgroundColor=none;rounded=0;html=1;whiteSpace=wrap;" parent="10" vertex="1">
          <mxGeometry x="6" y="5" width="34" height="33" as="geometry" />
        </mxCell>
        <UserObject label="" tags="Background" id="230">
          <mxCell style="vsdxID=111;edgeStyle=none;dashed=1;dashPattern=4.00 2.00;startArrow=none;endArrow=block;startSize=5;endSize=5;strokeWidth=2;strokeColor=#000000;spacingTop=0;spacingBottom=0;spacingLeft=0;spacingRight=0;verticalAlign=middle;html=1;labelBackgroundColor=#ffffff;rounded=0;" parent="1" edge="1">
            <mxGeometry relative="1" as="geometry">
              <mxPoint x="-1" as="offset" />
              <Array as="points" />
              <mxPoint x="597" y="235" as="sourcePoint" />
              <mxPoint x="652" y="235" as="targetPoint" />
            </mxGeometry>
          </mxCell>
        </UserObject>
        <UserObject label="&lt;div style=&quot;font-size: 1px&quot;&gt;&lt;font style=&quot;font-size:15.52px;font-family:Segoe UI;color:#000000;direction:ltr;letter-spacing:0px;line-height:120%;opacity:1&quot;&gt;Kubernetes cluster&lt;br/&gt;&lt;/font&gt;&lt;/div&gt;" tags="Background" id="15">
          <mxCell style="verticalAlign=middle;align=center;overflow=width;vsdxID=112;fillColor=none;gradientColor=none;shape=stencil(nZBLDoAgDERP0z3SIyjew0SURgSD+Lu9kMZoXLhwN9O+tukAlrNpJg1SzDH4QW/URgNYgZTkjA4UkwJUgGXng+6DX1zLfmoymdXo17xh5zmRJ6Q42BWCfc2oJfdAr+Yv+AP9Cb7OJ3H/2JG1HNGz/84klThPVCc=);strokeColor=none;points=[];labelBackgroundColor=none;rounded=0;html=1;whiteSpace=wrap;" parent="1" vertex="1">
            <mxGeometry x="323" y="345" width="107" height="45" as="geometry" />
          </mxCell>
        </UserObject>
        <UserObject label="&lt;div style=&quot;font-size: 1px&quot;&gt;&lt;font style=&quot;font-size:12.7px;font-family:Segoe UI;color:#000000;direction:ltr;letter-spacing:0px;line-height:120%;opacity:1&quot;&gt;Pod autoscaling&lt;br/&gt;&lt;/font&gt;&lt;/div&gt;" tags="Background" id="16">
          <mxCell style="verticalAlign=middle;align=center;overflow=width;vsdxID=168;fillColor=none;gradientColor=none;shape=stencil(nZBLDoAgDERP0z3SIyjew0SURgSD+Lu9kMZoXLhwN9O+tukAlrNpJg1SzDH4QW/URgNYgZTkjA4UkwJUgGXng+6DX1zLfmoymdXo17xh5zmRJ6Q42BWCfc2oJfdAr+Yv+AP9Cb7OJ3H/2JG1HNGz/84klThPVCc=);strokeColor=none;points=[];labelBackgroundColor=none;rounded=0;html=1;whiteSpace=wrap;" parent="1" vertex="1">
            <mxGeometry x="581" y="244" width="80" height="19" as="geometry" />
          </mxCell>
        </UserObject>
        <UserObject label="" tags="Background" id="231">
          <mxCell style="vsdxID=174;edgeStyle=none;startArrow=block;endArrow=none;startSize=5;endSize=5;strokeWidth=2;strokeColor=#000000;spacingTop=0;spacingBottom=0;spacingLeft=0;spacingRight=0;verticalAlign=middle;html=1;labelBackgroundColor=#ffffff;rounded=0;" parent="1" edge="1">
            <mxGeometry relative="1" as="geometry">
              <Array as="points" />
              <mxPoint x="444" y="197" as="sourcePoint" />
              <mxPoint x="404" y="197" as="targetPoint" />
            </mxGeometry>
          </mxCell>
        </UserObject>
        <UserObject label="" tags="Background" id="232">
          <mxCell style="vsdxID=178;edgeStyle=none;startArrow=block;endArrow=none;startSize=5;endSize=2;strokeWidth=2;strokeColor=#000000;spacingTop=0;spacingBottom=0;spacingLeft=0;spacingRight=0;verticalAlign=middle;html=1;labelBackgroundColor=#ffffff;rounded=0;" parent="1" edge="1">
            <mxGeometry relative="1" as="geometry">
              <Array as="points" />
              <mxPoint x="548" y="171" as="sourcePoint" />
              <mxPoint x="492" y="194" as="targetPoint" />
            </mxGeometry>
          </mxCell>
        </UserObject>
        <UserObject label="" tags="Background" id="233">
          <mxCell style="vsdxID=179;edgeStyle=none;startArrow=block;endArrow=none;startSize=5;endSize=2;strokeWidth=2;strokeColor=#000000;spacingTop=0;spacingBottom=0;spacingLeft=0;spacingRight=0;verticalAlign=middle;html=1;labelBackgroundColor=#ffffff;rounded=0;" parent="1" edge="1">
            <mxGeometry relative="1" as="geometry">
              <Array as="points" />
              <mxPoint x="546" y="231" as="sourcePoint" />
              <mxPoint x="491" y="204" as="targetPoint" />
            </mxGeometry>
          </mxCell>
        </UserObject>
        <UserObject label="&lt;div style=&quot;font-size: 1px&quot;&gt;&lt;font style=&quot;font-size:15.52px;font-family:Segoe UI;color:#000000;direction:ltr;letter-spacing:0px;line-height:120%;opacity:1&quot;&gt;Client apps&lt;br/&gt;&lt;/font&gt;&lt;/div&gt;" tags="Background" id="17">
          <mxCell style="verticalAlign=middle;align=center;overflow=width;vsdxID=181;fillColor=none;gradientColor=none;shape=stencil(nZBLDoAgDERP0z3SIyjew0SURgSD+Lu9kMZoXLhwN9O+tukAlrNpJg1SzDH4QW/URgNYgZTkjA4UkwJUgGXng+6DX1zLfmoymdXo17xh5zmRJ6Q42BWCfc2oJfdAr+Yv+AP9Cb7OJ3H/2JG1HNGz/84klThPVCc=);strokeColor=none;points=[];labelBackgroundColor=none;rounded=0;html=1;whiteSpace=wrap;" parent="1" vertex="1">
            <mxGeometry x="63" y="220" width="107" height="20" as="geometry" />
          </mxCell>
        </UserObject>
        <UserObject label="&lt;div style=&quot;font-size: 1px&quot;&gt;&lt;font style=&quot;font-size:12.7px;font-family:Segoe UI;color:#000000;direction:ltr;letter-spacing:0px;line-height:120%;opacity:1&quot;&gt;Virtual network&lt;br/&gt;&lt;/font&gt;&lt;/div&gt;" tags="Background" id="19">
          <mxCell style="verticalAlign=middle;align=center;overflow=width;vsdxID=191;fillColor=none;gradientColor=none;shape=stencil(nZBLDoAgDERP0z3SIyjew0SURgSD+Lu9kMZoXLhwN9O+tukAlrNpJg1SzDH4QW/URgNYgZTkjA4UkwJUgGXng+6DX1zLfmoymdXo17xh5zmRJ6Q42BWCfc2oJfdAr+Yv+AP9Cb7OJ3H/2JG1HNGz/84klThPVCc=);strokeColor=none;points=[];labelBackgroundColor=none;rounded=0;html=1;whiteSpace=wrap;" parent="1" vertex="1">
            <mxGeometry x="561" y="396" width="153" height="20" as="geometry" />
          </mxCell>
        </UserObject>
        <UserObject label="&lt;div style=&quot;font-size: 1px&quot;&gt;&lt;font style=&quot;font-size:14.11px;font-family:Segoe UI;color:#000000;direction:ltr;letter-spacing:0px;line-height:120%;opacity:1&quot;&gt;Kubernetes&amp;nbsp;&lt;/font&gt;&lt;/div&gt;&lt;div style=&quot;font-size: 1px&quot;&gt;&lt;font style=&quot;font-size:14.11px;font-family:Segoe UI;color:#000000;direction:ltr;letter-spacing:0px;line-height:120%;opacity:1&quot;&gt;Service (Load Balancer)&lt;/font&gt;&lt;/div&gt;" tags="Background" id="20">
          <mxCell style="verticalAlign=middle;align=center;overflow=width;vsdxID=192;fillColor=none;gradientColor=none;shape=stencil(nZBLDoAgDERP0z3SIyjew0SURgSD+Lu9kMZoXLhwN9O+tukAlrNpJg1SzDH4QW/URgNYgZTkjA4UkwJUgGXng+6DX1zLfmoymdXo17xh5zmRJ6Q42BWCfc2oJfdAr+Yv+AP9Cb7OJ3H/2JG1HNGz/84klThPVCc=);strokeColor=none;points=[];labelBackgroundColor=none;rounded=0;html=1;whiteSpace=wrap;" parent="1" vertex="1">
            <mxGeometry x="314" y="210" width="128" height="53" as="geometry" />
          </mxCell>
        </UserObject>
        <UserObject label="" tags="Background" id="21">
          <mxCell style="vsdxID=194;fillColor=none;gradientColor=none;image;aspect=fixed;image=data:image/png,iVBORw0KGgoAAAANSUhEUgAAAIYAAABxCAIAAACfjExnAAACv0lEQVR4nO2cXZKCMBAG49aexXN5D5+9h+fyMu4DWxQCCRFCpjP5+nUxS00zPwTx8n6/gyDxY30CYo6U4JASHFKCQ0pwSAkOKcEhJTikBIeU4JASHFKCQ0pwSAkOKcEhJTikBIeU4JASHFKCQ0pwSAkOKcEhJTj8KLnen9anUAYnSgYfPqw4UeIJb0ocJIo3JQ7woMRBZky5tPsyQ9rE63FLfzBxgC1NKvkqLWahn36WaYWlJB2vgwVqXBBu5df6BKKMgXs9bkW6BbxejbCyJFTv1UBDuImrcoyA0xpOSUBeuTUhKgFeuTUhKqkM7QrAKaEFqD6sievIPeCRpTZXq0mTSr4KX74biBVc4drk28BBAp0PK0sGYtf1weAm0gWljZglqwE6HrXYCigfgZklAydtDsL3HANZycD1/iweOPj+I11Jh9TenJ/12OmlGvvT5hQbO3LzwWLiyPylikNs750jJSvYbupwnyrGOKOGnDFE7EZZgqN3JcvRYPrMv/75BPPCtaNql52FEidg1VF6zxIgUvJRu8yrVjAvXDvgjEYnYawkcffeLSpcISwyzzYR2ytcy2SKRTD/SBTKkn9GW+bapARHe4XrPMzzY0CPsHDQC9f09o25YHHQSpZbgbQFzwBauFZDVnyHEdI8ZhCVFP8O3O53f01gKbH6TjDKCrqXxMg0x+/kq7CyJBg1XmUJC5SPAFRSOUA0HwGoJCDDVBOikpoAR4DelQygrHSn5PW4rRZGjhXcEDyyfDen1C8Nrf4XTgPjKgmReO0Qwwl3Du09wsrPmLZMjKCzJBPD13POwEN7b93BDA9KnOFNiYOM8abEAU6UOEiOEQ8TlzOcZIknpASHlOCQEhxSgkNKcEgJDinBISU4pASHlOCQEhxSgkNKcEgJDinBISU4pASHlOCQEhxSgkNKcEgJDinB8QdlBB+4IvgZugAAAABJRU5ErkJggg==;strokeColor=none;points=[];labelBackgroundColor=none;rounded=0;html=1;whiteSpace=wrap;" parent="1" vertex="1">
            <mxGeometry x="119" y="273" width="79" height="66" as="geometry" />
          </mxCell>
        </UserObject>
        <UserObject label="&lt;div style=&quot;font-size: 1px&quot;&gt;&lt;font style=&quot;font-size:15.52px;font-family:Segoe UI Semibold;color:#000000;direction:ltr;letter-spacing:0px;line-height:120%;opacity:1&quot;&gt;External data stores&lt;br/&gt;&lt;/font&gt;&lt;/div&gt;" tags="Background" id="22">
          <mxCell style="verticalAlign=middle;align=center;overflow=width;vsdxID=216;fillColor=none;gradientColor=none;shape=stencil(nZBLDoAgDERP0z3SIyjew0SURgSD+Lu9kMZoXLhwN9O+tukAlrNpJg1SzDH4QW/URgNYgZTkjA4UkwJUgGXng+6DX1zLfmoymdXo17xh5zmRJ6Q42BWCfc2oJfdAr+Yv+AP9Cb7OJ3H/2JG1HNGz/84klThPVCc=);strokeColor=none;points=[];labelBackgroundColor=none;rounded=0;html=1;whiteSpace=wrap;" parent="1" vertex="1">
            <mxGeometry x="733" y="70" width="101" height="41" as="geometry" />
          </mxCell>
        </UserObject>
        <UserObject label="" tags="Background" id="234">
          <mxCell style="vsdxID=366;edgeStyle=none;startArrow=block;endArrow=none;startSize=5;endSize=2;strokeWidth=2;strokeColor=#000000;spacingTop=0;spacingBottom=0;spacingLeft=0;spacingRight=0;verticalAlign=middle;html=1;labelBackgroundColor=#ffffff;rounded=0;" parent="1" edge="1">
            <mxGeometry relative="1" as="geometry">
              <Array as="points" />
              <mxPoint x="753" y="235" as="sourcePoint" />
              <mxPoint x="701" y="235" as="targetPoint" />
            </mxGeometry>
          </mxCell>
        </UserObject>
        <UserObject label="&lt;div style=&quot;font-size: 1px&quot;&gt;&lt;/div&gt;" tags="Background" id="28">
          <mxCell style="verticalAlign=middle;align=center;overflow=width;vsdxID=392;fillColor=none;gradientColor=none;shape=stencil(nZBLDoAgDERP0z3SIyjew0SURgSD+Lu9kMZoXLhwN9O+tukAlrNpJg1SzDH4QW/URgNYgZTkjA4UkwJUgGXng+6DX1zLfmoymdXo17xh5zmRJ6Q42BWCfc2oJfdAr+Yv+AP9Cb7OJ3H/2JG1HNGz/84klThPVCc=);strokeColor=none;points=[];labelBackgroundColor=none;rounded=0;html=1;whiteSpace=wrap;" parent="1" vertex="1">
            <mxGeometry x="95" y="481" width="101" height="28" as="geometry" />
          </mxCell>
        </UserObject>
        <UserObject label="&lt;div style=&quot;font-size: 1px&quot;&gt;&lt;p style=&quot;text-align: center; margin: 0px; text-indent: 0px; vertical-align: middle; direction: ltr;&quot;&gt;&lt;font style=&quot;font-size:12.7px;font-family:Segoe UI;color:#000000;direction:ltr;letter-spacing:0px;line-height:120%;opacity:1&quot;&gt;Role-based access control&lt;br&gt;&lt;/font&gt;&lt;/p&gt;&lt;/div&gt;" tags="Background" id="29">
          <mxCell style="verticalAlign=middle;align=left;overflow=width;vsdxID=394;fillColor=none;gradientColor=none;shape=stencil(nZBLDoAgDERP0z3SIyjew0SURgSD+Lu9kMZoXLhwN9O+tukAlrNpJg1SzDH4QW/URgNYgZTkjA4UkwJUgGXng+6DX1zLfmoymdXo17xh5zmRJ6Q42BWCfc2oJfdAr+Yv+AP9Cb7OJ3H/2JG1HNGz/84klThPVCc=);strokeColor=default;points=[];labelBackgroundColor=none;rounded=0;html=1;whiteSpace=wrap;perimeterSpacing=2;" parent="1" vertex="1">
            <mxGeometry x="340" y="410" width="99" height="44" as="geometry" />
          </mxCell>
        </UserObject>
        <UserObject label="&lt;div style=&quot;font-size: 1px&quot;&gt;&lt;font style=&quot;font-size:15.52px;font-family:Segoe UI;color:#3f3f3f;direction:ltr;letter-spacing:0px;line-height:120%;opacity:1&quot;&gt;Dev/Ops&lt;br/&gt;&lt;/font&gt;&lt;/div&gt;" tags="Background" id="30">
          <mxCell style="verticalAlign=middle;align=center;overflow=width;vsdxID=395;fillColor=none;gradientColor=none;shape=stencil(nZBLDoAgDERP0z3SIyjew0SURgSD+Lu9kMZoXLhwN9O+tukAlrNpJg1SzDH4QW/URgNYgZTkjA4UkwJUgGXng+6DX1zLfmoymdXo17xh5zmRJ6Q42BWCfc2oJfdAr+Yv+AP9Cb7OJ3H/2JG1HNGz/84klThPVCc=);strokeColor=none;points=[];labelBackgroundColor=none;rounded=0;html=1;whiteSpace=wrap;" parent="1" vertex="1">
            <mxGeometry x="74" y="499" width="114" height="19" as="geometry" />
          </mxCell>
        </UserObject>
        <UserObject label="" tags="Background" id="31">
          <mxCell style="vsdxID=1001;fillColor=none;gradientColor=none;strokeColor=none;spacingTop=-3;spacingBottom=-3;spacingLeft=-3;spacingRight=-3;points=[[0.5,1.74,0],[0.5,0,0],[0,0.5,0],[1,0.5,0]];labelBackgroundColor=none;rounded=0;html=1;whiteSpace=wrap;" parent="1" vertex="1">
            <mxGeometry x="450" y="428" width="46" height="50" as="geometry" />
          </mxCell>
        </UserObject>
        <mxCell id="32" style="vsdxID=1002;fillColor=#50e6ff;gradientColor=none;shape=stencil(lZHNDoMgEISfhisBVq2crX0PE7GQUjCI/Xn7QklTNTUNt9nZbyeEQdBMshsFYmTyzl7EXfVeIjgixpSRwikfFIIWQTNYJ87OzqZP89hFMqqrvcWER7orcUXjESPPZBDM6rdxSrhWZoEXfMsfAJf7PC8w8HX+PkwJWaG0wjXNecsn4CeelZ35LX/xIL4NDErrVOByv20sWKltaF8=);strokeColor=none;spacingTop=-3;spacingBottom=-3;spacingLeft=-3;spacingRight=-3;points=[[0.5,1.63,0],[0.5,0,0],[0,0.5,0],[1,0.5,0]];labelBackgroundColor=none;rounded=0;html=1;whiteSpace=wrap;" parent="31" vertex="1">
          <mxGeometry y="28" width="46" height="21" as="geometry" />
        </mxCell>
        <mxCell id="33" style="vsdxID=1003;fillColor=#FFFFFF;gradientColor=none;shape=stencil(UzV2Ls5ILEhVNTIoLinKz04tz0wpyVA1dlE1MsrMy0gtyiwBslSNXVWNndPyi1LTi/JL81Ig/IJEkEoQKze/DGRCBUSfAUiHkUElhGdmomdhDBZxgyjOycxDUmxiqWdiiaLBALdiQwMMsy0NSTEbZgBW5SS5m4BiIAMRPGmZOTmQ0EWWRw9OoBAkKoxdAQ==);strokeColor=none;spacingTop=-3;spacingBottom=-3;spacingLeft=-3;spacingRight=-3;points=[[0.5,1.63,0],[0.5,0,0],[0,0.5,0],[1,0.5,0]];labelBackgroundColor=none;rounded=0;html=1;whiteSpace=wrap;" parent="31" vertex="1">
          <mxGeometry x="4" width="38" height="41" as="geometry" />
        </mxCell>
        <mxCell id="34" style="vsdxID=1004;fillColor=#50e6ff;gradientColor=none;shape=stencil(UzV2Ls5ILEhVNTIoLinKz04tz0wpyVA1dlE1MsrMy0gtyiwBslSNXVWNndPyi1LTi/JL81Ig/IJEkEoQKze/DGRCBUSfoYEBSI+RQSWED+G5QZTmZObhUQrjY1WMqtTMRM/CmHiTSXAEilIgA+HPtMycHEgwIcujhwtQCBKmxq4A);strokeColor=none;spacingTop=-3;spacingBottom=-3;spacingLeft=-3;spacingRight=-3;points=[[0.5,1.63,0],[0.5,0,0],[0,0.5,0],[1,0.5,0]];labelBackgroundColor=none;rounded=0;html=1;whiteSpace=wrap;" parent="31" vertex="1">
          <mxGeometry x="4" width="18" height="41" as="geometry" />
        </mxCell>
        <mxCell id="35" style="vsdxID=1005;fillColor=#000000;gradientColor=none;shape=stencil(UzV2Ls5ILEhVNTIoLinKz04tz0wpyVA1dlE1MsrMy0gtyiwBslSNXVWNndPyi1LTi/JL81Ig/IJEkEoQKze/DGRCBUSfAUiHkUElMs8NojAnMw+nQkMDPEphkjDFZiZ6lobEmky0E1AUAhkIH6Zl5uRAAghZHj1EgEKQ0DR2BQA=);strokeColor=none;spacingTop=-3;spacingBottom=-3;spacingLeft=-3;spacingRight=-3;points=[[0.5,1.63,0],[0.5,0,0],[0,0.5,0],[1,0.5,0]];labelBackgroundColor=none;rounded=0;html=1;whiteSpace=wrap;" parent="31" vertex="1">
          <mxGeometry x="23" width="19" height="41" as="geometry" />
        </mxCell>
        <mxCell id="36" style="vsdxID=1006;fillColor=#53b1e0;gradientColor=none;shape=stencil(UzV2Ls5ILEhVNTIoLinKz04tz0wpyVA1dlE1MsrMy0gtyiwBslSNXVWNndPyi1LTi/JL81Ig/IJEkEoQKze/DGRCBUSfAUiHkUElMs8NojAnMw9JoaEBqlIjcz1jC9zKURXDNBOhlDyFQAbCh2mZOTmQAEKWRw8RoBAkNI1dAQ==);strokeColor=none;spacingTop=-3;spacingBottom=-3;spacingLeft=-3;spacingRight=-3;points=[[0.5,1.63,0],[0.5,0,0],[0,0.5,0],[1,0.5,0]];labelBackgroundColor=none;rounded=0;html=1;whiteSpace=wrap;" parent="31" vertex="1">
          <mxGeometry x="23" y="21" width="19" height="20" as="geometry" />
        </mxCell>
        <mxCell id="37" style="vsdxID=1007;fillColor=#9cebff;gradientColor=none;shape=stencil(UzV2Ls5ILEhVNTIoLinKz04tz0wpyVA1dlE1MsrMy0gtyiwBslSNXVWNndPyi1LTi/JL81Ig/IJEkEoQKze/DGRCBUSfoYEBSI+RQSUq3w2iOCczD0kxqlIjcz0jY9yK0U3GYy5JjiCgGMhA+DUtMycHElTI8uhhAxSChKuxKwA=);strokeColor=none;spacingTop=-3;spacingBottom=-3;spacingLeft=-3;spacingRight=-3;points=[[0.5,1.63,0],[0.5,0,0],[0,0.5,0],[1,0.5,0]];labelBackgroundColor=none;rounded=0;html=1;whiteSpace=wrap;" parent="31" vertex="1">
          <mxGeometry x="4" y="21" width="18" height="20" as="geometry" />
        </mxCell>
        <mxCell id="38" style="vsdxID=1008;fillColor=#000000;gradientColor=none;shape=stencil(jZHBDsIgEES/Zq+EsrHlXut/NCktRISGYtW/F7JRWxOJtx32zWQzALaL7mcFgi8x+LO6mSFqwCMIYZxWwcQ0AXaA7eiDmoK/uoH03GcyTxe/5oQ7+Xh2CP4gVXHSJ0KtcRv0tXzDNZPVb1xKJuudoZC9T26QHf5liycX0TR8WhmNtVTqdv/dYnqiH8DuCQ==);strokeColor=none;spacingTop=-3;spacingBottom=-3;spacingLeft=-3;spacingRight=-3;points=[[0.5,1.63,0],[0.5,0,0],[0,0.5,0],[1,0.5,0]];labelBackgroundColor=none;rounded=0;html=1;whiteSpace=wrap;" parent="31" vertex="1">
          <mxGeometry x="23" y="28" width="23" height="21" as="geometry" />
        </mxCell>
        <mxCell id="39" value="&lt;div style=&quot;font-size: 1px&quot;&gt;&lt;font style=&quot;font-size:15.52px;font-family:Segoe UI;color:#000000;direction:ltr;letter-spacing:0px;line-height:120%;opacity:1&quot;&gt;Azure Active Directory&lt;br/&gt;&lt;/font&gt;&lt;/div&gt;" style="text;vsdxID=1001;fillColor=none;gradientColor=none;strokeColor=none;spacingTop=-3;spacingBottom=-3;spacingLeft=-3;spacingRight=-3;points=[[0.5,1.74,0],[0.5,0,0],[0,0.5,0],[1,0.5,0]];labelBackgroundColor=none;rounded=0;html=1;whiteSpace=wrap;verticalAlign=middle;align=center;overflow=width;;html=1;" parent="31" vertex="1">
          <mxGeometry x="-27.58" y="50" width="101.6" height="37.26" as="geometry" />
        </mxCell>
        <UserObject label="" tags="Background" id="40">
          <mxCell style="vsdxID=1009;fillColor=none;gradientColor=none;strokeColor=none;spacingTop=-3;spacingBottom=-3;spacingLeft=-3;spacingRight=-3;points=[[0.5,1.76,0],[0.5,0,0],[0,0.5,0],[1,0.5,0]];labelBackgroundColor=none;rounded=0;html=1;whiteSpace=wrap;" parent="1" vertex="1">
            <mxGeometry x="568" y="428" width="48" height="48" as="geometry" />
          </mxCell>
        </UserObject>
        <mxCell id="41" style="vsdxID=1010;fillColor=#000000;gradientColor=none;shape=stencil(vVHLDsIgEPwajiQI6RfU+h8bu22JCGRB2/69kG1iazx58DazM/vIjjBtmiCi0CplCjecbZ8nYc5Ca+snJJsLEqYTph0C4Ujh4XvmEaqzont41gkL96naodXKrGF6YSfQtUi0OXXDVlqPfJNP6usotUhYbJIUMmQb/GGrAxpRljVycDBuc1hKM2LclX8/7H9nFfB+82Cd45T2+mcspcSRmu4F);strokeColor=none;spacingTop=-3;spacingBottom=-3;spacingLeft=-3;spacingRight=-3;points=[[0.5,1.31,0],[0.5,0,0],[0,0.5,0],[1,0.5,0]];labelBackgroundColor=none;rounded=0;html=1;whiteSpace=wrap;" parent="40" vertex="1">
          <mxGeometry width="48" height="48" as="geometry" />
        </mxCell>
        <mxCell id="42" style="vsdxID=1011;fillColor=#FFFFFF;gradientColor=none;shape=stencil(vVHLDsIgEPwajiQI6RfU+h8bu22JCGRB2/69kG1iazx58DazM/vIjjBtmiCi0CplCjecbZ8nYc5Ca+snJJsLEqYTph0C4Ujh4XvmEaqzont41gkL96naodXKrGF6YSfQtUi0OXXDVlqPfJNP6usotUhYbJIUMmQb/GGrAxpRljVycDBuc1hKM2LclX8/7H9nFfB+82Cd45T2+mcspcSRmu4F);strokeColor=none;spacingTop=-3;spacingBottom=-3;spacingLeft=-3;spacingRight=-3;points=[[0.5,1.31,0],[0.5,0,0],[0,0.5,0],[1,0.5,0]];labelBackgroundColor=none;rounded=0;html=1;whiteSpace=wrap;" parent="40" vertex="1">
          <mxGeometry x="3" y="3" width="42" height="42" as="geometry" />
        </mxCell>
        <mxCell id="43" style="vsdxID=1012;fillColor=#9cebff;gradientColor=none;shape=stencil(rVLLEsIgDPwajmUK9OVZ638wlraMWDoBbf176cBo8dGTtyS7ybIkiO1Nz0eBaGos6LOYZGN7xA6IUjn0AqR1EWI1YvtWg+hAX4fG5yNfmEt00bdlwuz70qWDpvd1dvREDieHQCCSgmGWezYEOskLXwicrMRFFg0kaRCYEz5Lk4C23Eo9ROKKQycSJ5e0incRZCYhxo9yeKCSw8rJUypI5xtmdhRnJPZSVZjmkZuS4Yp++Z5/eSG/vWxsxQWvXbZSKX8Ka/x9967k74bVDw==);strokeColor=none;spacingTop=-3;spacingBottom=-3;spacingLeft=-3;spacingRight=-3;points=[[0.5,1.31,0],[0.5,0,0],[0,0.5,0],[1,0.5,0]];labelBackgroundColor=none;rounded=0;html=1;whiteSpace=wrap;" parent="40" vertex="1">
          <mxGeometry x="6" y="25" width="10" height="11" as="geometry" />
        </mxCell>
        <mxCell id="44" style="vsdxID=1013;fillColor=#32bedd;gradientColor=none;shape=stencil(vVXLcsIwDPyaHKOxLT/iM6X/4SkGMk0TxgmF/n2d2rRVaFIODDcjaSVWKykFrvq9O/hCsH4I3as/1ZthX+BTIUTd7n2oh/gqcF3gatsFvwvdsd2k3wc3Ro6vt+59zHBOOGMB1YgS7CNZhAZhvyzPCeDCS/SGDNAMWAaEjODMgOTJlqMkgiVZWXaX7lz3ZegGN9RdS3yNCztfxmrltnE74upP3h+uzPn/NXXrFypLA1bO80EBRlI+qgJlCJ1IGpFkVRasuSsnPs/pBpGoqmw5mGbnFnLxCyDS1Wq5ZfaqZVqTlqECLakQMQYf1bLr8mye0DjTkxkYZxotYTTX1AcM9T96UvG1BqwIwEQ9xYKeEtRET82hoitgEARJytl9d3pBzO9Sk9J/sombyc1UTAWVJHQqBXShUV/OxAP0vEGi+Pi52du6adLJ/+2f3vhoSt8HXH8C);strokeColor=none;spacingTop=-3;spacingBottom=-3;spacingLeft=-3;spacingRight=-3;points=[[0.5,1.31,0],[0.5,0,0],[0,0.5,0],[1,0.5,0]];labelBackgroundColor=none;rounded=0;html=1;whiteSpace=wrap;" parent="40" vertex="1">
          <mxGeometry x="12" y="6" width="29" height="16" as="geometry" />
        </mxCell>
        <mxCell id="45" style="vsdxID=1014;fillColor=#50e6ff;gradientColor=none;shape=stencil(rVLLEsIgDPwajmUo2FbOWv+DUdoyYukEtPXvpeKjaNWLt2SzSViyiK1sIzqJKLEOzF72aucaxNaIUtU2EpTzEWIlYqvKgKzBHNtdyDsxMsfoYE7jhCH0pYSMPZScQ54xzNMrsgl0rdoJfUHxMo8ayJQsYOsrcJ9dZJgvAxtu9DTPMaEBG6YT7vMeDxoSMSibgHHCKdNGXC2glonfllRa1FHJ9lJ2b/CsmILjIp1dPi+HUMxpLIcXmPBIzecP/ZeiL+f5eU0fPJ1QKa2Dkab1V+d4KLiOlRc=);strokeColor=none;spacingTop=-3;spacingBottom=-3;spacingLeft=-3;spacingRight=-3;points=[[0.5,1.31,0],[0.5,0,0],[0,0.5,0],[1,0.5,0]];labelBackgroundColor=none;rounded=0;html=1;whiteSpace=wrap;" parent="40" vertex="1">
          <mxGeometry x="6" y="12" width="10" height="10" as="geometry" />
        </mxCell>
        <mxCell id="46" style="vsdxID=1015;fillColor=#f04049;gradientColor=none;shape=stencil(vVLJDsIgEP0ajp1Q0BbOLv9BlLZELM0Ut7+XSl2o0XjyNrxlBh5D+KJvVKcJo71Ht9Mns/UN4UvCmGkbjcaHivAV4YvKoa7RHdptPHdqUA7V3h2HDufokxLkfHAxeolITiFnN2QdDQo3gcW7AeYy6vFuEMB4hEaNKEEkPelIZ+ps+gydV964NuGswlpnYVZWWVUnVH/SunuDx9tZ0748hyZjixJY/llcgGCTp39pLWdQpHI+A5p/S4qLSVLlY+IP8f8hrh9+PxTP3amMtXH1XvnprgUo7ilfXQE=);strokeColor=none;spacingTop=-3;spacingBottom=-3;spacingLeft=-3;spacingRight=-3;points=[[0.5,1.31,0],[0.5,0,0],[0,0.5,0],[1,0.5,0]];labelBackgroundColor=none;rounded=0;html=1;whiteSpace=wrap;" parent="40" vertex="1">
          <mxGeometry x="25" y="17" width="13" height="7" as="geometry" />
        </mxCell>
        <mxCell id="47" style="vsdxID=1016;fillColor=#000000;gradientColor=none;shape=stencil(vVHLDsIgEPwajiQI6RfU+h8bu22JCGRB2/69kG1iazx58DazM/vIjjBtmiCi0CplCjecbZ8nYc5Ca+snJJsLEqYTph0C4Ujh4XvmEaqzont41gkL96naodXKrGF6YSfQtUi0OXXDVlqPfJNP6usotUhYbJIUMmQb/GGrAxpRljVycDBuc1hKM2LclX8/7H9nFfB+82Cd45T2+mcspcSRmu4F);strokeColor=none;spacingTop=-3;spacingBottom=-3;spacingLeft=-3;spacingRight=-3;points=[[0.5,1.31,0],[0.5,0,0],[0,0.5,0],[1,0.5,0]];labelBackgroundColor=none;rounded=0;html=1;whiteSpace=wrap;" parent="40" vertex="1">
          <mxGeometry x="20" y="20" width="6" height="6" as="geometry" />
        </mxCell>
        <mxCell id="48" value="&lt;div style=&quot;font-size: 1px&quot;&gt;&lt;font style=&quot;font-size:15.52px;font-family:Segoe UI;color:#000000;direction:ltr;letter-spacing:0px;line-height:120%;opacity:1&quot;&gt;Azure &lt;br/&gt;Monitor&lt;br/&gt;&lt;/font&gt;&lt;/div&gt;" style="text;vsdxID=1009;fillColor=none;gradientColor=none;strokeColor=none;spacingTop=-3;spacingBottom=-3;spacingLeft=-3;spacingRight=-3;points=[[0.5,1.76,0],[0.5,0,0],[0,0.5,0],[1,0.5,0]];labelBackgroundColor=none;rounded=0;html=1;whiteSpace=wrap;verticalAlign=middle;align=center;overflow=width;;html=1;" parent="40" vertex="1">
          <mxGeometry x="-26.42" y="48" width="101.6" height="37.26" as="geometry" />
        </mxCell>
        <UserObject label="" tags="Background" id="49">
          <mxCell style="vsdxID=1017;fillColor=none;gradientColor=none;strokeColor=none;spacingTop=-3;spacingBottom=-3;spacingLeft=-3;spacingRight=-3;points=[[0.5,1.76,0],[0.5,0,0],[0,0.5,0],[1,0.5,0]];labelBackgroundColor=none;rounded=0;html=1;whiteSpace=wrap;" parent="1" vertex="1">
            <mxGeometry x="705" y="428" width="48" height="48" as="geometry" />
          </mxCell>
        </UserObject>
        <mxCell id="50" style="vsdxID=1018;fillColor=none;gradientColor=none;strokeColor=none;spacingTop=-3;spacingBottom=-3;spacingLeft=-3;spacingRight=-3;points=[[0.5,1.31,0],[0.5,0,0],[0,0.5,0],[1,0.5,0]];labelBackgroundColor=none;rounded=0;html=1;whiteSpace=wrap;" parent="49" vertex="1">
          <mxGeometry width="48" height="48" as="geometry" />
        </mxCell>
        <mxCell id="51" style="vsdxID=1019;fillColor=#000000;gradientColor=none;shape=stencil(jZTdcoMgEIWfhlsG2PrDdZq8RyYxlanVjDGtvH1wCLoL1fGOlQPf2WVdBodHfb5XTInH0Hff1Z+5DjWDT6aUaeuqN4NbMTgyONy6vvrqu2d79fH9PCmn1U/3O90w+nOZmI4oYX3oo5NXXp69l0q/qRQH/ZZLrBejIqFVyYERqAIIfgUoKKwoeC4pEFt6f5JCUGQWMYNgBYooAbxcGTMCFFuDWLMrV625zinWJfdBuQ6TRekKLmA7X4JtTLvz9Tf7RAOX5Wav5FxmNJ3lzJxPzksVFRJ4mdF8kGhXJZE+NTM3DvKXmFmr5KxYa53FvE3MBDIqg03NBDRW/Zs1fUgs39VtTl9EfxeqfPoYNnW/VqWkNzZ7LlG7xTKsbqZp/KzD+/Fwc5/8YITjCw==);strokeColor=none;spacingTop=-3;spacingBottom=-3;spacingLeft=-3;spacingRight=-3;points=[[0.5,1.31,0],[0.5,0,0],[0,0.5,0],[1,0.5,0]];labelBackgroundColor=none;rounded=0;html=1;whiteSpace=wrap;" parent="50" vertex="1">
          <mxGeometry width="48" height="48" as="geometry" />
        </mxCell>
        <mxCell id="52" style="vsdxID=1020;fillColor=#FFFFFF;gradientColor=none;shape=stencil(vVHLDsIgEPwajiQI6RfU+h8bu22JCGRB2/69kG1iazx58DazM/vIjjBtmiCi0CplCjecbZ8nYc5Ca+snJJsLEqYTph0C4Ujh4XvmEaqzont41gkL96naodXKrGF6YSfQtUi0OXXDVlqPfJNP6usotUhYbJIUMmQb/GGrAxpRljVycDBuc1hKM2LclX8/7H9nFfB+82Cd45T2+mcspcSRmu4F);strokeColor=none;spacingTop=-3;spacingBottom=-3;spacingLeft=-3;spacingRight=-3;points=[[0.5,1.31,0],[0.5,0,0],[0,0.5,0],[1,0.5,0]];labelBackgroundColor=none;rounded=0;html=1;whiteSpace=wrap;" parent="50" vertex="1">
          <mxGeometry x="3" y="3" width="42" height="42" as="geometry" />
        </mxCell>
        <mxCell id="53" style="vsdxID=1021;fillColor=#000000;gradientColor=none;shape=stencil(lZbdUuMwDIWfJrcaW/LvNQvvwUDZdrbbMqXswtuvsokTSyEOvQviqPp8LNvq6O5t//i669C8XS/nX7u/h+frvqMfHeLhtN9dDlf+6ui+o7uX82X383J+Pz0Pf78+9sr+6/f5T/8LH0NeJrB9EprPIUAZsv8feRj0T++XIcEOAmvMmDAGyIPHIfSBWjMGMAHFUUOLymMECTLVpY+HU4UacKozsjqg3EL1TJYlrJGgzoGzEtVITIrgkuTUZRUmpCwoF8vSmMrP2ivJVBBrx2lRlVY2UmISApHg9AFcbHESAQbJ6iOYIFlZFZPkZVUKylZWKWCfIDR8rTOGSEqQ0gZwVPuf8mTUBMw9gBI4G0iqXXvPSQJnW9rrS2AXwSYBnDMY2wJ2CaKTwNNRKrjezrugj1uB9QgJFSzXxuZhqXKs5p2rVypcqtr17bpZwYFRZllIbj0hGggyIUUIzXMWeb+Uu5xjnFxhrRpDKYBV560uP4bS1CFfr9CXa2AC5gutxcue5Kh42RQveWtV4TXFuvl+qKrTpMLGjiwNjlNDf9/gGMCnTYOjhxA3DWaVibcYHBHMrQ4znds0mOG2/Q0ZYgN36W8IEG9tYM6x2w3MdEib/vJCQ6uBF0c0GKBwSwJf8QnXE7aHkVv1ctjxRqgz2GZ39OODVzdiSZm7w5Qem69jXFyItWoM2enX15qzyimPAV+i6vWqIcuwZYsL84VsZPFZsvYS8aOoitc/i9rvefEV4mIS+f7i+xz9EuLiNaopcbFDK2vX2y57aqNH+GMepV8Ox+Mwidf/16M3h4axne7/AQ==);strokeColor=none;spacingTop=-3;spacingBottom=-3;spacingLeft=-3;spacingRight=-3;points=[[0.5,1.31,0],[0.5,0,0],[0,0.5,0],[1,0.5,0]];labelBackgroundColor=none;rounded=0;html=1;whiteSpace=wrap;" parent="50" vertex="1">
          <mxGeometry x="9" y="1" width="29" height="46" as="geometry" />
        </mxCell>
        <mxCell id="54" style="vsdxID=1022;fillColor=#ff9300;gradientColor=none;fillOpacity=75;strokeOpacity=75;shape=stencil(hVTRcoMgEPwaXm+AAw6e0+Q/Mo2pTq1mjGnTvy8WNHJt7Rsse+7O7Z0Cd9f6eKmEltdx6F+rj+Y01gKfhNZNV1dDM8aTwL3A3bkfqpehv3WndL8cJ+Z0euvfpy/cU51ygFORlp8JCB6U+0YOif98G1KBSgQkMCaXZEhJmYC7ToALgD5zMhQCkMssTJAncJRZGQoRwi31YAGpVA8OyJb6kxjXt8DkF9eLuAGz1m6bbt2phZ7uFjxtOX3wM2BAErMpF+ezTQ0GS5tkgViX1JzAH9IWl1AzwvLRkcCEJTjN4gEbSl0NfjOc+O5KXQTSpbQsZQ34UjX6cKUqb3QZy4r/e4o/cgHLxjeOBoXSJYFk/YmTqViDVrszTxBfHjZC/y5bPDw29dy0bVr09Tvf7AilvwLuvwA=);strokeColor=none;spacingTop=-3;spacingBottom=-3;spacingLeft=-3;spacingRight=-3;points=[[0.5,1.31,0],[0.5,0,0],[0,0.5,0],[1,0.5,0]];labelBackgroundColor=none;rounded=0;html=1;whiteSpace=wrap;" parent="50" vertex="1">
          <mxGeometry x="21" y="29" width="1" height="12" as="geometry" />
        </mxCell>
        <mxCell id="55" style="vsdxID=1023;fillColor=#ff9300;gradientColor=none;fillOpacity=75;strokeOpacity=75;shape=stencil(hZPdDsIgDIWfhtsGCmzu2p/3MLo54twMzr+3lwnLoDq9aw8H8vWkMLm81NtzyZBfetsdy7vZ9zWTK4Zo2rq0pncVk2sml1Vny4Ptru3e9+ft4ByqU3cbXnj4exoUDpeQP73A393GexvTRt5CgV7Mm3dX618WwZ6DVsEuYj9/oG8FD8IzCMhBFcEjqScISkMxzzjZw3wKxC/IyR+EvACpUsx4EEo+YsbZEPKvnB+5EzflRFAkywkBk3BHRDeIFikkSZJmkxKmOdLUKR8Hjimfk7IsJYyGSJlHwCgV+Xcdf6+uK6adr0zT+C8Tn9M/4iT/v+T6BQ==);strokeColor=none;spacingTop=-3;spacingBottom=-3;spacingLeft=-3;spacingRight=-3;points=[[0.5,1.31,0],[0.5,0,0],[0,0.5,0],[1,0.5,0]];labelBackgroundColor=none;rounded=0;html=1;whiteSpace=wrap;" parent="50" vertex="1">
          <mxGeometry x="17" y="15" width="14" height="1" as="geometry" />
        </mxCell>
        <mxCell id="56" style="vsdxID=1024;fillColor=#ff9300;gradientColor=none;fillOpacity=75;strokeOpacity=75;shape=stencil(hZPbDoMgDIafhtsGWojzeof3WKabZE4Xpju8/XRghO50V+oH+foLgpaXansuBcpL59pjebNFVwlaCUTbVKWz3VAJWgta7ltXHlzbN4Vfn7cjOVan9jqecPf7DGgcN6F8+IZ8rTaerW0TsbkGs/gO73rnT1YBz8DogKuYl3f0SyVD4xEaKEHngSHOhIY2kH93nPEwnwb1S3LmQyPLwahUMx6Em0+acTbM/KPnW+6M5p4ImmU5K2AS7qQYD0IpQZ+zSQ3THHnq3E+CxNQv/pf4NkTqPAlGqdDf6/j76g7FfOf3tq79k4m/8zcytPz7ovUT);strokeColor=none;spacingTop=-3;spacingBottom=-3;spacingLeft=-3;spacingRight=-3;points=[[0.5,1.31,0],[0.5,0,0],[0,0.5,0],[1,0.5,0]];labelBackgroundColor=none;rounded=0;html=1;whiteSpace=wrap;" parent="50" vertex="1">
          <mxGeometry x="17" y="18" width="14" height="1" as="geometry" />
        </mxCell>
        <mxCell id="57" value="&lt;div style=&quot;font-size: 1px&quot;&gt;&lt;font style=&quot;font-size:15.52px;font-family:Segoe UI;color:#000000;direction:ltr;letter-spacing:0px;line-height:120%;opacity:1&quot;&gt;Azure &lt;br/&gt;Key Vault&lt;br/&gt;&lt;/font&gt;&lt;/div&gt;" style="text;vsdxID=1017;fillColor=none;gradientColor=none;strokeColor=none;spacingTop=-3;spacingBottom=-3;spacingLeft=-3;spacingRight=-3;points=[[0.5,1.76,0],[0.5,0,0],[0,0.5,0],[1,0.5,0]];labelBackgroundColor=none;rounded=0;html=1;whiteSpace=wrap;verticalAlign=middle;align=center;overflow=width;;html=1;" parent="49" vertex="1">
          <mxGeometry x="-26.42" y="48" width="101.6" height="37.26" as="geometry" />
        </mxCell>
        <UserObject label="" tags="Background" id="58">
          <mxCell style="vsdxID=1026;fillColor=#FFFFFF;gradientColor=none;shape=stencil(nZBLDoAgDERP0z3SIyjew0SURgSD+Lu9kMZoXLhwN9O+tukAlrNpJg1SzDH4QW/URgNYgZTkjA4UkwJUgGXng+6DX1zLfmoymdXo17xh5zmRJ6Q42BWCfc2oJfdAr+Yv+AP9Cb7OJ3H/2JG1HNGz/84klThPVCc=);strokeColor=#000000;points=[];labelBackgroundColor=none;rounded=0;html=1;whiteSpace=wrap;" parent="1" vertex="1">
            <mxGeometry x="38" y="280" width="88" height="120" as="geometry" />
          </mxCell>
        </UserObject>
        <UserObject label="" tags="Background" id="59">
          <mxCell style="vsdxID=1027;fillColor=none;gradientColor=none;strokeColor=none;spacingTop=-3;spacingBottom=-3;spacingLeft=-3;spacingRight=-3;points=[];labelBackgroundColor=none;rounded=0;html=1;whiteSpace=wrap;" parent="1" vertex="1">
            <mxGeometry x="64" y="308" width="35" height="35" as="geometry" />
          </mxCell>
        </UserObject>
        <mxCell id="60" style="vsdxID=1028;fillColor=#235dc1;gradientColor=none;shape=stencil(jVJBEoIwDHxNr5m2qRTOqP9gBKQjAlNA4feCwQHqgN6SzW6bTcIwrLOoSpjkdWPLW/I0cZMxPDIpTZEl1jRDxPDEMExLm1xt2RYx5VU0MsfoXj7GFzrSCRDeKJK8J0AfwFNv5Ez83BQLPipAXAkE59t03weh9+iX1lI7gsqBAv15X6wVvJMO0E9A4AH3Jw66nAkIBKDYbnTmU77j6XtkEjzcM8XXhjSCUmtLjiE9TCFwDM2/4l+b+r3ZIZjPIjV5Tle1rLtnNEB0gnh6AQ==);strokeColor=none;strokeWidth=18;spacingTop=-3;spacingBottom=-3;spacingLeft=-3;spacingRight=-3;points=[];labelBackgroundColor=none;rounded=0;html=1;whiteSpace=wrap;" parent="59" vertex="1">
          <mxGeometry x="12" y="15" width="14" height="19" as="geometry" />
        </mxCell>
        <mxCell id="61" style="vsdxID=1029;fillColor=#3b6ec6;gradientColor=none;shape=stencil(lZLdDoIwDIWfZrfN1jIc14jvYRRkEYEM8OftBTeUIZh413bfaXuyMoqbfF+nDHnTmuqc3vSxzRltGaIu89Toto8YJYzirDLpyVRdebR5vR/IIbpU16HD3er4oED+sJkQoKJXZWfhQpercCgh/AFjABR6gkiBCqaCQ2fsLsJJJKBwElcS3A29o2NCkGNbnDPkmA2QcgytzPaXfbd4TJ0uomp0vcjOLRFE6Dua+eG+FwlEvhnuG/nri77gPvhcQqaLwh7S9H1+OX3JXh0lTw==);strokeColor=none;strokeWidth=18;spacingTop=-3;spacingBottom=-3;spacingLeft=-3;spacingRight=-3;points=[];labelBackgroundColor=none;rounded=0;html=1;whiteSpace=wrap;" parent="59" vertex="1">
          <mxGeometry y="8" width="19" height="14" as="geometry" />
        </mxCell>
        <mxCell id="62" style="vsdxID=1030;fillColor=#5d8de4;gradientColor=none;shape=stencil(jZTRcoIwEEW/htedzW5Iss9W/8OpWJhacVBb/fuGJiDLVNq35HJCzu6wFLw619tTVRCeL137Xn01u0td8EtB1BzrqmsucVXwuuDVvu2qt669Hndpf9r2ZL/6aD/7N9zSOYvgQn+K8J4SB8b9BJvEH5rjhDfArHEHbKf867VLF5gEYMbz1gVION4oA0A+MznxBlAyxMO9kpN7TjxBMM9FyQMpUQmAZkmUAghpWRHwrG3ZgLNa1yBqWWZwXtvG23P0q60wBK90SwFe1BUPXtuWDoKWHc0G1ZKgNLPOjkwOrAcpF76Akc+vBAlLng9+6DM40ZqxlFzrKDrrqFhA0pr4XDFWibqbuGQYC7ZBO6IWtAxEWpDGQRgcp6PE/5mlv2cvLh6Du28OhzT30+fzQY9R+knw+hs=);strokeColor=none;strokeWidth=18;spacingTop=-3;spacingBottom=-3;spacingLeft=-3;spacingRight=-3;points=[];labelBackgroundColor=none;rounded=0;html=1;whiteSpace=wrap;" parent="59" vertex="1">
          <mxGeometry x="6" width="29" height="29" as="geometry" />
        </mxCell>
        <mxCell id="63" style="vsdxID=1031;fillColor=#9fbbf0;gradientColor=none;shape=stencil(UzV2Ls5ILEhVNTIoLinKz04tz0wpyVA1dlE1MsrMy0gtyiwBslSNXVWNndPyi1LTi/JL81Ig/IJEkEoQKze/DGRCBUSfkaWesSVIl5FBJUTE3FDPDCLiBtGQk5mHV4MBbsUG5Ck0NMCjFCZJlmKSPUe5BiADEfhpmTk5kLhDlkePLKAQJKKNXQE=);strokeColor=none;strokeWidth=18;spacingTop=-3;spacingBottom=-3;spacingLeft=-3;spacingRight=-3;points=[];labelBackgroundColor=none;rounded=0;html=1;whiteSpace=wrap;" parent="59" vertex="1">
          <mxGeometry y="26" width="8" height="8" as="geometry" />
        </mxCell>
        <mxCell id="64" style="vsdxID=1032;fillColor=#adc5f2;gradientColor=none;shape=stencil(jVLbDoIwDP2avZKtDRKfEf/DyJBFBDJA4e9lKYatBMNbL+fs9HQVmHblrdUCZNfb5qk/Ju9LgRcBYOpSW9PPkcBMYFo0Vj9sM9Q55e3NIV30at7uhZF4sXQUkBOlSlJ+Jex9sARW1E6S6KQWggoZcgRWmGBDGpFjMBhjR3aFLwWACM+hrD/aUpKhaMw0/0p6Cj9R5pO59EfCEHHII3PoL22rMPFd73lk/1mZ+vDfz8F6NIWpKro5v8+PbC7RgWL2BQ==);strokeColor=none;strokeWidth=18;spacingTop=-3;spacingBottom=-3;spacingLeft=-3;spacingRight=-3;points=[];labelBackgroundColor=none;rounded=0;html=1;whiteSpace=wrap;" parent="59" vertex="1">
          <mxGeometry x="22" y="4" width="8" height="8" as="geometry" />
        </mxCell>
        <mxCell id="65" style="vsdxID=1033;fillColor=#6c9aee;gradientColor=none;shape=stencil(lZFLDsIwDERP423lxAi6L+UelZqSiJBUafjdngSLflAFYje231jWGKgadNMrkDjE4E/qZtqogfYgpXFaBROTAqqBqs4HdQz+4lqu+yaTWZ39NW+4s68Uhdxml8QHd/BVHRi2xs1gXICTdRUWZbHbLAwCv+x+D0d4tK/if939A05iiqcz1nK68/lnnKnFr6D6CQ==);strokeColor=none;strokeWidth=18;spacingTop=-3;spacingBottom=-3;spacingLeft=-3;spacingRight=-3;points=[];labelBackgroundColor=none;rounded=0;html=1;whiteSpace=wrap;" parent="59" vertex="1">
          <mxGeometry x="9" y="14" width="11" height="11" as="geometry" />
        </mxCell>
        <mxCell id="66" style="vsdxID=1034;fillColor=#88acef;gradientColor=none;shape=stencil(lZFdDoMgEIRPs6+GsrUewNp7mIhlUwoG6d/thW4M2pg2fZvd/WZCBsB61O2gQIoxeHdRD+qCBjyClGS18hSiAmwA6955dfbuZjuehzaRSV3dPSU82VdiUWFySfHizU6I93xi3JBd4PNxhrN9E98fClmtDF+y18nZugn/+e6feBS5op6M4YaX989K44q/A5sJ);strokeColor=none;strokeWidth=18;spacingTop=-3;spacingBottom=-3;spacingLeft=-3;spacingRight=-3;points=[];labelBackgroundColor=none;rounded=0;html=1;whiteSpace=wrap;" parent="59" vertex="1">
          <mxGeometry x="7" y="24" width="4" height="4" as="geometry" />
        </mxCell>
        <UserObject label="&lt;div style=&quot;font-size: 1px&quot;&gt;&lt;font style=&quot;font-size:15.52px;font-family:Segoe UI;color:#000000;direction:ltr;letter-spacing:0px;line-height:120%;opacity:1&quot;&gt;Azure Pipelines&lt;br/&gt;&lt;/font&gt;&lt;/div&gt;" tags="Background" id="67">
          <mxCell style="verticalAlign=middle;align=center;overflow=width;vsdxID=1035;fillColor=none;gradientColor=none;shape=stencil(nZBLDoAgDERP0z3SIyjew0SURgSD+Lu9kMZoXLhwN9O+tukAlrNpJg1SzDH4QW/URgNYgZTkjA4UkwJUgGXng+6DX1zLfmoymdXo17xh5zmRJ6Q42BWCfc2oJfdAr+Yv+AP9Cb7OJ3H/2JG1HNGz/84klThPVCc=);strokeColor=none;points=[];labelBackgroundColor=none;rounded=0;html=1;whiteSpace=wrap;" parent="1" vertex="1">
            <mxGeometry x="45" y="347" width="73" height="35" as="geometry" />
          </mxCell>
        </UserObject>
        <UserObject label="&lt;div style=&quot;font-size: 1px&quot;&gt;&lt;font style=&quot;font-size:15.52px;font-family:Segoe UI;color:#000000;direction:ltr;letter-spacing:0px;line-height:120%;opacity:1&quot;&gt;CI/CD&lt;br/&gt;&lt;/font&gt;&lt;/div&gt;" tags="Background" id="68">
          <mxCell style="verticalAlign=middle;align=center;overflow=width;vsdxID=1036;fillColor=none;gradientColor=none;shape=stencil(nZBLDoAgDERP0z3SIyjew0SURgSD+Lu9kMZoXLhwN9O+tukAlrNpJg1SzDH4QW/URgNYgZTkjA4UkwJUgGXng+6DX1zLfmoymdXo17xh5zmRJ6Q42BWCfc2oJfdAr+Yv+AP9Cb7OJ3H/2JG1HNGz/84klThPVCc=);strokeColor=none;points=[];labelBackgroundColor=none;rounded=0;html=1;whiteSpace=wrap;" parent="1" vertex="1">
            <mxGeometry x="51" y="279" width="62" height="35" as="geometry" />
          </mxCell>
        </UserObject>
        <UserObject label="" tags="Background" id="69">
          <mxCell style="vsdxID=1037;fillColor=none;gradientColor=none;strokeColor=none;spacingTop=-3;spacingBottom=-3;spacingLeft=-3;spacingRight=-3;points=[[0.5,1.65,0],[0.5,0,0],[0,0.5,0],[1,0.5,0]];labelBackgroundColor=none;rounded=0;html=1;whiteSpace=wrap;" parent="1" vertex="1">
            <mxGeometry x="198" y="334" width="50" height="46" as="geometry" />
          </mxCell>
        </UserObject>
        <mxCell id="70" style="vsdxID=1038;fillColor=#000000;gradientColor=none;shape=stencil(vZTBcoQgDIafhqMZICh43m7fg+miMrW6g27Xvn1xcO3Gel1vISHkA/6E4Wlo7NUxyYcx9J/u7i9jw/CNSem7xgU/RovhmeGp6oOrQ3/rLml9tfPO2frqv+cTppRXIqCZsyT/SR6lQSbPe0qw4SNGw5IgFQiZEsKSgQo4JteyyXAoyKFoQCxlpsxOfshCP9rR912K8xRrbahdFgtmVWtrEhruzl3/ufcRDUi9QSzBlAQxFyAVYeSH8ZUgSsqnxOp6bIofowmfLEDjYYwF5BtG1JBLwsgJX4GrMg7giyrFDZ8BRfmiEEROGAV/4S+3vnvqLK1B4W7x/Qvh2kTrhSQoKooV//HkJfD8sCePGt0QRiUbQQjjPFG0reI8KV7Y+tH4m22Vb9s0Gp/j21kYXWmO4vkX);strokeColor=none;spacingTop=-3;spacingBottom=-3;spacingLeft=-3;spacingRight=-3;points=[[0.5,1.65,0],[0.5,0,0],[0,0.5,0],[1,0.5,0]];labelBackgroundColor=none;rounded=0;html=1;whiteSpace=wrap;" parent="69" vertex="1">
          <mxGeometry width="49" height="37" as="geometry" />
        </mxCell>
        <mxCell id="71" style="vsdxID=1039;fillColor=#767676;gradientColor=none;shape=stencil(jZDdCoMwDIWfJrfSNoztXt17CNY1WFup3d/bryWM1YHi3TnJl3A4gPViulmDEksMftRP6qMBbEApckYHikkBtoD14IO+BX93Pfu5y2RWk3/kDy++E/lCiXfprgxaciVYSVyxZ1ld5DYvxfr11x+CT3tBDifeBpP4FTKQtdxnuf8vMI24fGw/);strokeColor=none;spacingTop=-3;spacingBottom=-3;spacingLeft=-3;spacingRight=-3;points=[[0.5,1.65,0],[0.5,0,0],[0,0.5,0],[1,0.5,0]];labelBackgroundColor=none;rounded=0;html=1;whiteSpace=wrap;" parent="69" vertex="1">
          <mxGeometry x="28" y="14" width="22" height="18" as="geometry" />
        </mxCell>
        <mxCell id="72" style="vsdxID=1040;fillColor=#999999;gradientColor=none;shape=stencil(jZBLDsIwDERP423k2lDRdSn3qNSURISkSsvv9iRYFYEFYje234w0Bm5n008aCOclhpO+2WExwHsgst7oaJekgDvgdgxRH2O4+EHmqc9kVudwzQl38TWN2nJ2ET5kg6/pILCzvoDxA6SNqulfuMIfuetxhXeVwrrEk3gXGK1z0r+8fxdOK3kWd08=);strokeColor=none;spacingTop=-3;spacingBottom=-3;spacingLeft=-3;spacingRight=-3;points=[[0.5,1.65,0],[0.5,0,0],[0,0.5,0],[1,0.5,0]];labelBackgroundColor=none;rounded=0;html=1;whiteSpace=wrap;" parent="69" vertex="1">
          <mxGeometry x="22" y="14" width="6" height="16" as="geometry" />
        </mxCell>
        <mxCell id="73" style="vsdxID=1041;fillColor=#a3a3a3;gradientColor=none;shape=stencil(lZVJcoMwEEVPo21Xq1sTa8e5h6uMAxViXJhMt4+IKonbBAl2kvhP+v3RoHh3bQ6XWhFex6F/rt/b49goflBE7bmph3aMLcV7xbtTP9RPQ/96Pqb+5TApp9ZL/zbN8JE4Y8DwRBF+phHvwVTfI48J6NrzDWAtWC+AQKB5C0AB0C8Dc0tEQJuAQg0rAJkSM1AQgHZQmeUVomNtJICQcTTXuwAuLANzR56BaQtQKGEFIENyDjzJneHAZlaIoVsrgCqGZLNAcALgCkxmhbmlWFXIbKXNNawAZEoo/zICZraF1qBlQs5kj8Ic+D19/+qlG1wrLNguiGUgGqXcIgS9PHcIEGSFxgJuAioL7DIZ3hn66a8SF9wX5bHxd1Wf2q5LN/3t9/urPQ6lZ4H3Xw==);strokeColor=none;spacingTop=-3;spacingBottom=-3;spacingLeft=-3;spacingRight=-3;points=[[0.5,1.65,0],[0.5,0,0],[0,0.5,0],[1,0.5,0]];labelBackgroundColor=none;rounded=0;html=1;whiteSpace=wrap;" parent="69" vertex="1">
          <mxGeometry x="30" y="17" width="18" height="13" as="geometry" />
        </mxCell>
        <mxCell id="74" style="vsdxID=1042;fillColor=#B3B3B3;gradientColor=none;shape=stencil(lZLNDoMgEISfhusGWFQ8W/seJmIltWLQ/r19pcRUNDV6W4ZvyGwYgllfF50inPaDNVf11OVQEzwRznVbK6uHcSKYE8wqY9XFmntb+nNXONJNN/NwL7y8DxFi4Vycvr2SIkj5Vc7e0Oh2ZqABzCjdjSYg0v/wOghjkEZHDKvk4apT1gnfSB5HIHgAJ0dgmQDbMCyDSAYo9uNB7nH4fW2lm8Y3Y36/rMIo+Rph/gE=);strokeColor=none;spacingTop=-3;spacingBottom=-3;spacingLeft=-3;spacingRight=-3;points=[[0.5,1.65,0],[0.5,0,0],[0,0.5,0],[1,0.5,0]];labelBackgroundColor=none;rounded=0;html=1;whiteSpace=wrap;" parent="69" vertex="1">
          <mxGeometry x="23" y="17" width="3" height="10" as="geometry" />
        </mxCell>
        <mxCell id="75" style="vsdxID=1043;fillColor=#000000;gradientColor=none;shape=stencil(lZHNDsIgEISfZq+E7lar51rfo0mpJSI0FP/eXnBjLMbUeJvdnflCBqB6GtpRAcopeHdUV92FAWgHiNoOyusQFVADVPfOq4N3Z9vxPLbJmdTJXRLhxrlCypRBeed5vRUlPjd7thttZ/ZqI1aUBV6Ar/acXRaCFtgYz1UWWCD/+e6f9ijeFfXaGG54fv+sNK74O6h5AA==);strokeColor=none;spacingTop=-3;spacingBottom=-3;spacingLeft=-3;spacingRight=-3;points=[[0.5,1.65,0],[0.5,0,0],[0,0.5,0],[1,0.5,0]];labelBackgroundColor=none;rounded=0;html=1;whiteSpace=wrap;" parent="69" vertex="1">
          <mxGeometry x="22" y="27" width="28" height="7" as="geometry" />
        </mxCell>
        <mxCell id="76" style="vsdxID=1044;fillColor=#767676;gradientColor=none;shape=stencil(jZHRDoIwDEW/pq/LbCOGZ8T/IGG4xbmRMVH+3s3GCMSIb7ftuU1zC1QNuukVoBxi8Bd1N23UQEdANE6rYGJSQDVQ1fmgzsHfXMt132Qyq6sf84YH+3ZSZg/KiesDirJ8dU6MW+Nm+BJ+m7+jYr+Af6DrI7AQ9D+9cfImnsQnnc5Yy+HO5+s0U4s/QfUT);strokeColor=none;spacingTop=-3;spacingBottom=-3;spacingLeft=-3;spacingRight=-3;points=[[0.5,1.65,0],[0.5,0,0],[0,0.5,0],[1,0.5,0]];labelBackgroundColor=none;rounded=0;html=1;whiteSpace=wrap;" parent="69" vertex="1">
          <mxGeometry x="28" y="29" width="22" height="17" as="geometry" />
        </mxCell>
        <mxCell id="77" style="vsdxID=1045;fillColor=#a3a3a3;gradientColor=none;shape=stencil(lZXbboMwDIafJrdWYpPTdde9R6XSgcagouz09gNFbHPTuuQuTr4/+e2YoGh3aQ7nWqG+TOPwWn+2x6lR9KQQ276px3aaR4r2inanYaxfxuG9P6b4fFjIZfQ2fCw7fCWdXhSov1NkdIqfE9q1/V1UAI0BYxiMYKsSPjpwuNVJgekrlJeCCExgeIgQ3P2957S0574JrOA7F9h14iZ/wxGYMl7OYIOA16iqACMXOPDCCbnAaDBCM1gLFecRXCjgw5xTiZ/iBDIBL5H3UPFL9g60cIJzYHn7+wheaKNcYCygkHRuyQSgIsGDHDYIeJXWL3HFXQQr3HII6/Lv/gQotFEuQA0onBAjIHEBQhBuoTCDh/g8+HukT23XpTf+//r1oz5PpR8C7X8A);strokeColor=none;spacingTop=-3;spacingBottom=-3;spacingLeft=-3;spacingRight=-3;points=[[0.5,1.65,0],[0.5,0,0],[0,0.5,0],[1,0.5,0]];labelBackgroundColor=none;rounded=0;html=1;whiteSpace=wrap;" parent="69" vertex="1">
          <mxGeometry x="30" y="32" width="18" height="10" as="geometry" />
        </mxCell>
        <mxCell id="78" style="vsdxID=1046;fillColor=#999999;gradientColor=none;shape=stencil(jZDdDoIwDIWfprekrAnzHvE9SBiucW5kTNG3d7Mx/oWEu3Par017gNrZ9pMBhXOK4WQWHpIF2oNS7K2JnLIC6oDaMURzjOHiB/FTX8iizuFaNtxkDsuEwrs43VSon5WDwI79KlzrateswzV+47gdffkNR/xdnMX715Gdk6g++7/Z5JLkSt0D);strokeColor=none;spacingTop=-3;spacingBottom=-3;spacingLeft=-3;spacingRight=-3;points=[[0.5,1.65,0],[0.5,0,0],[0,0.5,0],[1,0.5,0]];labelBackgroundColor=none;rounded=0;html=1;whiteSpace=wrap;" parent="69" vertex="1">
          <mxGeometry x="22" y="29" width="6" height="17" as="geometry" />
        </mxCell>
        <mxCell id="79" style="vsdxID=1047;fillColor=#B3B3B3;gradientColor=none;shape=stencil(lZLdDoIwDIWfZrdNWQHZNep7kDBkERkZ+Pf2bi4qk7jIXXf6neW0KaNybKtBMo7jZPRRXlU9tYy2jHPVt9KoyVaMdozKRht5MPrc1/49VI501Ulf3A837+MCKHcujnevFFYpnsreGzrVzwwYwhlw+hdOCDYReBlFQJGu4RfRw1kTDPPg77/zDJI0gFMQfA0vMsDIGoV4td/bwUieJR6Bo3Pa4nMLjeo6f0rz/vftWMnfHe0e);strokeColor=none;spacingTop=-3;spacingBottom=-3;spacingLeft=-3;spacingRight=-3;points=[[0.5,1.65,0],[0.5,0,0],[0,0.5,0],[1,0.5,0]];labelBackgroundColor=none;rounded=0;html=1;whiteSpace=wrap;" parent="69" vertex="1">
          <mxGeometry x="23" y="31" width="3" height="11" as="geometry" />
        </mxCell>
        <mxCell id="80" value="&lt;div style=&quot;font-size: 1px&quot;&gt;&lt;font style=&quot;font-size:15.52px;font-family:Segoe UI;color:#000000;direction:ltr;letter-spacing:0px;line-height:120%;opacity:1&quot;&gt;Azure Container Registry&lt;br/&gt;&lt;/font&gt;&lt;/div&gt;" style="text;vsdxID=1037;fillColor=none;gradientColor=none;strokeColor=none;spacingTop=-3;spacingBottom=-3;spacingLeft=-3;spacingRight=-3;points=[[0.5,1.65,0],[0.5,0,0],[0,0.5,0],[1,0.5,0]];labelBackgroundColor=none;rounded=0;html=1;whiteSpace=wrap;verticalAlign=middle;align=center;overflow=width;;html=1;" parent="69" vertex="1">
          <mxGeometry x="-25.4" y="46" width="101.6" height="55.89" as="geometry" />
        </mxCell>
        <UserObject label="" tags="Connector" id="235">
          <mxCell style="vsdxID=1048;edgeStyle=none;dashed=1;dashPattern=4.00 2.00;startArrow=none;endArrow=block;startSize=5;endSize=5;strokeWidth=2;strokeColor=#000000;spacingTop=0;spacingBottom=0;spacingLeft=0;spacingRight=0;verticalAlign=bottom;html=1;labelBackgroundColor=#ffffff;rounded=0;" parent="1" edge="1">
            <mxGeometry relative="1" as="geometry">
              <Array as="points" />
              <mxPoint x="314" y="360" as="sourcePoint" />
              <mxPoint x="255" y="360" as="targetPoint" />
            </mxGeometry>
          </mxCell>
        </UserObject>
        <mxCell id="236" value="&lt;div style=&quot;font-size: 1px&quot;&gt;&lt;/div&gt;" style="text;vsdxID=1048;edgeStyle=none;dashed=1;dashPattern=4.00 2.00;startArrow=none;endArrow=block;startSize=5;endSize=5;strokeWidth=2;strokeColor=none;spacingTop=0;spacingBottom=0;spacingLeft=0;spacingRight=0;verticalAlign=bottom;html=1;labelBackgroundColor=#ffffff;rounded=0;align=center;overflow=width;fillColor=none;gradientColor=none;whiteSpace=wrap;;html=1;;rotation=0.09000000000003183" parent="235" vertex="1">
          <mxGeometry width="11.29" height="24.84" relative="1" as="geometry">
            <mxPoint x="52.355000000000004" y="12.58" as="offset" />
          </mxGeometry>
        </mxCell>
        <UserObject label="&lt;div style=&quot;font-size: 1px&quot;&gt;&lt;font style=&quot;font-size:12.7px;font-family:Segoe UI;color:#000000;direction:ltr;letter-spacing:0px;line-height:120%;opacity:1&quot;&gt;Docker push&lt;br/&gt;&lt;/font&gt;&lt;/div&gt;" tags="Background" id="81">
          <mxCell style="verticalAlign=middle;align=center;overflow=width;vsdxID=1049;fillColor=none;gradientColor=none;shape=stencil(nZBLDoAgDERP0z3SIyjew0SURgSD+Lu9kMZoXLhwN9O+tukAlrNpJg1SzDH4QW/URgNYgZTkjA4UkwJUgGXng+6DX1zLfmoymdXo17xh5zmRJ6Q42BWCfc2oJfdAr+Yv+AP9Cb7OJ3H/2JG1HNGz/84klThPVCc=);strokeColor=none;points=[];labelBackgroundColor=none;rounded=0;html=1;whiteSpace=wrap;" parent="1" vertex="1">
            <mxGeometry x="126" y="369" width="62" height="35" as="geometry" />
          </mxCell>
        </UserObject>
        <UserObject label="&lt;div style=&quot;font-size: 1px&quot;&gt;&lt;font style=&quot;font-size:12.7px;font-family:Segoe UI;color:#000000;direction:ltr;letter-spacing:0px;line-height:120%;opacity:1&quot;&gt;Docker pull&lt;br/&gt;&lt;/font&gt;&lt;/div&gt;" tags="Background" id="82">
          <mxCell style="verticalAlign=middle;align=center;overflow=width;vsdxID=1050;fillColor=none;gradientColor=none;shape=stencil(nZBLDoAgDERP0z3SIyjew0SURgSD+Lu9kMZoXLhwN9O+tukAlrNpJg1SzDH4QW/URgNYgZTkjA4UkwJUgGXng+6DX1zLfmoymdXo17xh5zmRJ6Q42BWCfc2oJfdAr+Yv+AP9Cb7OJ3H/2JG1HNGz/84klThPVCc=);strokeColor=none;points=[];labelBackgroundColor=none;rounded=0;html=1;whiteSpace=wrap;" parent="1" vertex="1">
            <mxGeometry x="252" y="369" width="65" height="35" as="geometry" />
          </mxCell>
        </UserObject>
        <UserObject label="&lt;div style=&quot;font-size: 1px&quot;&gt;&lt;/div&gt;" tags="Connector" id="237">
          <mxCell style="vsdxID=1051;edgeStyle=none;dashed=1;dashPattern=4.00 2.00;startArrow=none;endArrow=block;startSize=5;endSize=5;strokeWidth=2;strokeColor=#000000;spacingTop=0;spacingBottom=0;spacingLeft=0;spacingRight=0;verticalAlign=bottom;html=1;labelBackgroundColor=#ffffff;rounded=0;align=center;" parent="1" edge="1">
            <mxGeometry relative="1" as="geometry">
              <mxPoint x="-1" y="-25" as="offset" />
              <Array as="points" />
              <mxPoint x="133" y="360" as="sourcePoint" />
              <mxPoint x="193" y="360" as="targetPoint" />
            </mxGeometry>
          </mxCell>
        </UserObject>
        <UserObject label="&lt;div style=&quot;font-size: 1px&quot;&gt;&lt;font style=&quot;font-size:15.52px;font-family:Segoe UI;color:#000000;direction:ltr;letter-spacing:0px;line-height:120%;opacity:1&quot;&gt;Helm upgrade&lt;br/&gt;&lt;/font&gt;&lt;/div&gt;" tags="Background" id="83">
          <mxCell style="verticalAlign=middle;align=center;overflow=width;vsdxID=1052;fillColor=none;gradientColor=none;shape=stencil(nZBLDoAgDERP0z3SIyjew0SURgSD+Lu9kMZoXLhwN9O+tukAlrNpJg1SzDH4QW/URgNYgZTkjA4UkwJUgGXng+6DX1zLfmoymdXo17xh5zmRJ6Q42BWCfc2oJfdAr+Yv+AP9Cb7OJ3H/2JG1HNGz/84klThPVCc=);strokeColor=none;points=[];labelBackgroundColor=none;rounded=0;html=1;whiteSpace=wrap;" parent="1" vertex="1">
            <mxGeometry x="190" y="287" width="114" height="22" as="geometry" />
          </mxCell>
        </UserObject>
        <UserObject label="&lt;div style=&quot;font-size: 1px&quot;&gt;&lt;/div&gt;" tags="Connector" id="238">
          <mxCell style="vsdxID=1053;edgeStyle=none;dashed=1;dashPattern=4.00 2.00;startArrow=none;endArrow=block;startSize=5;endSize=5;strokeWidth=2;strokeColor=#000000;spacingTop=0;spacingBottom=0;spacingLeft=0;spacingRight=0;verticalAlign=bottom;html=1;labelBackgroundColor=#ffffff;rounded=0;align=center;" parent="1" edge="1">
            <mxGeometry relative="1" as="geometry">
              <mxPoint y="-25" as="offset" />
              <Array as="points" />
              <mxPoint x="192" y="310" as="sourcePoint" />
              <mxPoint x="303" y="310" as="targetPoint" />
            </mxGeometry>
          </mxCell>
        </UserObject>
        <UserObject label="" tags="Background" id="84">
          <mxCell style="vsdxID=1054;fillColor=none;gradientColor=none;strokeColor=none;spacingTop=-3;spacingBottom=-3;spacingLeft=-3;spacingRight=-3;points=[[0.5,1,0],[0.5,0,0],[0.5,0.5,0],[1,0.5,0]];labelBackgroundColor=none;rounded=0;html=1;whiteSpace=wrap;" parent="1" vertex="1">
            <mxGeometry x="110" y="442" width="46" height="52" as="geometry" />
          </mxCell>
        </UserObject>
        <mxCell id="85" style="vsdxID=1055;fillColor=#000000;gradientColor=none;shape=stencil(tVNBcsMgDHwNR2sABRvOafoPJsE2U9d4MGnc3xcXPC1NppMcchOrlXZBiOB+7vVkCKdz8O7NXOwp9ARfCOd27I23IUYEDwT3rfOm8+48ntJ50itzjd7dx9phSXWKAZVrFaefCWGUfp9fE137Y8z5TJcgm8T2G30HNSZoa6lAiaKlFIC5bKn0YufKu6CDdWPKJ0E6aN+ZKgpW7aC7IjVfjJmu4JsWOUhWWrzHIUItnufwePbp0Vk2UMMu62cEGxAZWnj2REHUmcULrQXzxeI9tuHhHbJMAapSl5aaCIyXksigUaUsLSXj2zXivy+j8OrLNOVAJFB28xM+ZRqDHR/ZgAfpMfhZttYOQ9rV3/m/yxmhtNh4+AI=);strokeColor=none;spacingTop=-3;spacingBottom=-3;spacingLeft=-3;spacingRight=-3;points=[[0.5,1.19,0],[0.5,0,0],[0,0.5,0],[1,0.5,0]];labelBackgroundColor=none;rounded=0;html=1;whiteSpace=wrap;" parent="84" vertex="1">
          <mxGeometry y="22" width="46" height="28" as="geometry" />
        </mxCell>
        <mxCell id="86" style="vsdxID=1056;fillColor=#FFFFFF;gradientColor=none;fillOpacity=80;strokeOpacity=80;shape=stencil(xVJBEoIwDHxNj3TaBkTOiv/oSIGOlTKhCv7eYlGBGbl6S3azaTYNgUNXy1YRwTqH9qJ6XbiawJEIoZtaoXY+IpATOJQWVYX21hQhb+VYOUZXex87DEGXMBrzUSXYIyCcU0hfyCkIJJ49i5MgAyr2QYCTIuU0zgI0FbFFxykbIjnoLkLrpNO2WXBGYqUi/1JUGlktqK5Xqp3BfD6b0c22GcZ+l7/Jz5x0JzaMC8pgZZzRBBbGt9b5nwWsf9MH31sotTHhlOb8+nY8FO4O8ic=);strokeColor=none;spacingTop=-3;spacingBottom=-3;spacingLeft=-3;spacingRight=-3;points=[[0.5,1.19,0],[0.5,0,0],[0,0.5,0],[1,0.5,0]];labelBackgroundColor=none;rounded=0;html=1;whiteSpace=wrap;" parent="84" vertex="1">
          <mxGeometry x="16" y="23" width="13" height="18" as="geometry" />
        </mxCell>
        <mxCell id="87" style="vsdxID=1057;fillColor=#000000;gradientColor=none;shape=stencil(vVHLDsIgEPwajiQI6RfU+h8bu22JCGRB2/69kG1iazx58DazM/vIjjBtmiCi0CplCjecbZ8nYc5Ca+snJJsLEqYTph0C4Ujh4XvmEaqzont41gkL96naodXKrGF6YSfQtUi0OXXDVlqPfJNP6usotUhYbJIUMmQb/GGrAxpRljVycDBuc1hKM2LclX8/7H9nFfB+82Cd45T2+mcspcSRmu4F);strokeColor=none;spacingTop=-3;spacingBottom=-3;spacingLeft=-3;spacingRight=-3;points=[[0.5,1.19,0],[0.5,0,0],[0,0.5,0],[1,0.5,0]];labelBackgroundColor=none;rounded=0;html=1;whiteSpace=wrap;" parent="84" vertex="1">
          <mxGeometry x="10" width="26" height="26" as="geometry" />
        </mxCell>
        <mxCell id="88" value="&lt;div style=&quot;font-size: 1px&quot;&gt;&lt;/div&gt;" style="text;vsdxID=1054;fillColor=none;gradientColor=none;strokeColor=none;spacingTop=-3;spacingBottom=-3;spacingLeft=-3;spacingRight=-3;points=[[0.5,1,0],[0.5,0,0],[0.5,0.5,0],[1,0.5,0]];labelBackgroundColor=none;rounded=0;html=1;whiteSpace=wrap;verticalAlign=middle;align=center;overflow=width;;html=1;" parent="84" vertex="1">
          <mxGeometry x="-27.58" y="52.52" width="101.6" height="15.24" as="geometry" />
        </mxCell>
        <UserObject label="&lt;div style=&quot;font-size: 1px&quot;&gt;&lt;/div&gt;" tags="Connector" id="239">
          <mxCell style="vsdxID=1058;edgeStyle=none;startArrow=none;endArrow=block;startSize=5;endSize=5;strokeWidth=2;strokeColor=#000000;spacingTop=0;spacingBottom=0;spacingLeft=0;spacingRight=0;verticalAlign=bottom;html=1;labelBackgroundColor=#ffffff;rounded=0;align=center;" parent="1" edge="1">
            <mxGeometry relative="1" as="geometry">
              <mxPoint y="-25" as="offset" />
              <Array as="points" />
              <mxPoint x="165" y="469" as="sourcePoint" />
              <mxPoint x="437" y="469" as="targetPoint" />
            </mxGeometry>
          </mxCell>
        </UserObject>
        <UserObject label="" tags="Background" id="102">
          <mxCell style="vsdxID=1074;fillColor=none;gradientColor=none;strokeColor=none;spacingTop=-3;spacingBottom=-3;spacingLeft=-3;spacingRight=-3;points=[];labelBackgroundColor=none;rounded=0;html=1;whiteSpace=wrap;" parent="1" vertex="1">
            <mxGeometry x="756" y="204" width="58" height="55" as="geometry" />
          </mxCell>
        </UserObject>
        <mxCell id="103" style="vsdxID=1075;fillColor=none;gradientColor=none;strokeColor=none;spacingTop=-3;spacingBottom=-3;spacingLeft=-3;spacingRight=-3;points=[];labelBackgroundColor=none;rounded=0;html=1;whiteSpace=wrap;" parent="102" vertex="1">
          <mxGeometry width="58" height="55" as="geometry" />
        </mxCell>
        <mxCell id="104" style="vsdxID=1076;fillColor=none;gradientColor=none;strokeColor=none;spacingTop=-3;spacingBottom=-3;spacingLeft=-3;spacingRight=-3;points=[];labelBackgroundColor=none;rounded=0;html=1;whiteSpace=wrap;" parent="103" vertex="1">
          <mxGeometry width="58" height="55" as="geometry" />
        </mxCell>
        <mxCell id="105" style="vsdxID=1077;fillColor=none;gradientColor=none;strokeColor=none;spacingTop=-3;spacingBottom=-3;spacingLeft=-3;spacingRight=-3;points=[];labelBackgroundColor=none;rounded=0;html=1;whiteSpace=wrap;" parent="104" vertex="1">
          <mxGeometry width="58" height="55" as="geometry" />
        </mxCell>
        <mxCell id="106" style="vsdxID=1078;fillColor=none;gradientColor=none;strokeColor=none;spacingTop=-3;spacingBottom=-3;spacingLeft=-3;spacingRight=-3;points=[];labelBackgroundColor=none;rounded=0;html=1;whiteSpace=wrap;" parent="105" vertex="1">
          <mxGeometry x="1" width="15" height="15" as="geometry" />
        </mxCell>
        <mxCell id="107" style="vsdxID=1079;fillColor=#50e6ff;gradientColor=none;shape=stencil(zZZbboMwFERX40+QH5jg7zTdh9UYsEpxZEhDdl+7RoULLShSQP0zcy9wmMEPxI5NKS8KUdy01ryrmz63JWIviFJdl8rq1o0QOyF2zI1VhTXX+hyuL9J3+tGH+fRP6MJ9HPtbKL6HSyFiIb6V19At7Zur2r6bxYfQbu8ToW9I0pge4BMHpYtkp5vImla22tShTrKeoJK2UJF7X5RXsgjFvtTclLqMZPI3YULjlEFGLwFIB80AI3cKfTIjXnSRzmykABGmwnGMn8234OHgz4iPLVvogxf/K2aPlADI0WfsEzOZ2UggoptucLrgXWNe4+ODsp2FKzFPpoqTuACQYrbm+OSzXYNeXhUJns9nsp+Lvwa9YiHfP+gJow86Q9O/MQWUW2wuy0GnMyM5ZHTRwpXxJ/xtfKx0/cB2/li3GwznhlxXVTh2jOvTc4aTwhmFnb4A);strokeColor=none;strokeWidth=47;spacingTop=-3;spacingBottom=-3;spacingLeft=-3;spacingRight=-3;points=[];labelBackgroundColor=none;rounded=0;html=1;whiteSpace=wrap;" parent="106" vertex="1">
          <mxGeometry width="15" height="15" as="geometry" />
        </mxCell>
        <mxCell id="108" style="vsdxID=1080;fillColor=none;gradientColor=none;strokeColor=none;spacingTop=-3;spacingBottom=-3;spacingLeft=-3;spacingRight=-3;points=[];labelBackgroundColor=none;rounded=0;html=1;whiteSpace=wrap;" parent="105" vertex="1">
          <mxGeometry x="45" y="43" width="12" height="12" as="geometry" />
        </mxCell>
        <mxCell id="109" style="vsdxID=1081;fillColor=#50e6ff;gradientColor=none;shape=stencil(zVXRUoQgFP0aHnUQEON52/6DaVGZSBykVv8+CJoVnXaqTesNzr1yj+dwuQAfhpb3AiA4WKOfxFmebAvwPUBIdq0w0roVwEeAD7U2ojH6pTuFfc99pl8961d/whi+Iyxnlf8KwSkgBYTv+4eQzs2ji5mYjvMKh2wzLZGPE2mOSHIic0isMWZ8lENmtOVW6i5WvAsVoeKmEZmrmNWKNyEYQ8NZiH4GF59zJCgvy5Skg2hC8sI6ZpQO+WWK12UkKxlJwhAm9LxNbD8Jv2DzSkHvO92PoncZrVwuK7C8izRhOfuPfXxe65j6PHN2Ssr8E599Y6CtJbzVZ//CLC/jX9uMrzP0uv64XYpNHkVHiaazgG3Q07e3y2K6OGTTd0fJ7jsD0y0uw7aWSoVZPY8vh7ODwmDHxzc=);strokeColor=none;strokeWidth=47;spacingTop=-3;spacingBottom=-3;spacingLeft=-3;spacingRight=-3;points=[];labelBackgroundColor=none;rounded=0;html=1;whiteSpace=wrap;" parent="108" vertex="1">
          <mxGeometry width="12" height="12" as="geometry" />
        </mxCell>
        <mxCell id="110" style="vsdxID=1082;fillColor=none;gradientColor=none;strokeColor=none;spacingTop=-3;spacingBottom=-3;spacingLeft=-3;spacingRight=-3;points=[];labelBackgroundColor=none;rounded=0;html=1;whiteSpace=wrap;" parent="105" vertex="1">
          <mxGeometry x="7" y="7" width="41" height="40" as="geometry" />
        </mxCell>
        <mxCell id="111" style="vsdxID=1083;fillColor=none;gradientColor=none;strokeColor=none;spacingTop=-3;spacingBottom=-3;spacingLeft=-3;spacingRight=-3;points=[];labelBackgroundColor=none;rounded=0;html=1;whiteSpace=wrap;" parent="110" vertex="1">
          <mxGeometry width="41" height="40" as="geometry" />
        </mxCell>
        <mxCell id="112" style="vsdxID=1084;fillColor=#5ea0ef;gradientColor=none;shape=stencil(vVHLDsIgEPwajiQI6RfU+h8bu22JCGRB2/69kG1iazx58DazM/vIjjBtmiCi0CplCjecbZ8nYc5Ca+snJJsLEqYTph0C4Ujh4XvmEaqzont41gkL96naodXKrGF6YSfQtUi0OXXDVlqPfJNP6usotUhYbJIUMmQb/GGrAxpRljVycDBuc1hKM2LclX8/7H9nFfB+82Cd45T2+mcspcSRmu4F);strokeColor=none;spacingTop=-3;spacingBottom=-3;spacingLeft=-3;spacingRight=-3;points=[];labelBackgroundColor=none;rounded=0;html=1;whiteSpace=wrap;" parent="111" vertex="1">
          <mxGeometry width="41" height="40" as="geometry" />
        </mxCell>
        <mxCell id="113" style="vsdxID=1085;fillColor=none;gradientColor=none;strokeColor=none;spacingTop=-3;spacingBottom=-3;spacingLeft=-3;spacingRight=-3;points=[];labelBackgroundColor=none;rounded=0;html=1;whiteSpace=wrap;" parent="110" vertex="1">
          <mxGeometry y="17" width="18" height="16" as="geometry" />
        </mxCell>
        <mxCell id="114" style="vsdxID=1086;fillColor=#f2f2f2;gradientColor=none;shape=stencil(lZPdcsIgEIWfhtudZTciXFt9D6fGhjFNHIx/b18oRANx6vRuczjLd4CN4NWp2R5rQXgaXH+or3Y3NII/BJHtmtrZwVeC14JX+97VX64/d7v4fdwGZ6i++0vY4Rb7FgZkaCK8R8Fo0PyrbKL/8+xig0wGA9qkliRJxCjcqBDuSWAGTcnDT7JKriRxBVr+xfY9tMzZYWeT072LecZHnvEfe418AvmO/8g8nr0CzvHVAlROx5xMBrDKyQiSpuDWdpNHUqBG/2t7mROLO5KgVfFCErBIufSnN3lSf22G8qSz+cijvp+n//p98RzevW3bOPvT9XLYvRR/FF7/AA==);strokeColor=none;strokeWidth=47;spacingTop=-3;spacingBottom=-3;spacingLeft=-3;spacingRight=-3;points=[];labelBackgroundColor=none;rounded=0;html=1;whiteSpace=wrap;" parent="113" vertex="1">
          <mxGeometry width="18" height="16" as="geometry" />
        </mxCell>
        <mxCell id="115" style="vsdxID=1087;fillColor=none;gradientColor=none;strokeColor=none;spacingTop=-3;spacingBottom=-3;spacingLeft=-3;spacingRight=-3;points=[];labelBackgroundColor=none;rounded=0;html=1;whiteSpace=wrap;" parent="110" vertex="1">
          <mxGeometry x="21" y="6" width="19" height="16" as="geometry" />
        </mxCell>
        <mxCell id="116" style="vsdxID=1088;fillColor=#f2f2f2;gradientColor=none;shape=stencil(vZXBcsIgEIafJsfswEICnK2+B6OoTNPEIbHaty8piILOeGpusPsv+8H82VRsNR71yVRIxskNn+Zid9OxYh8Vou2PxtnJryq2rthqPzhzcMO534X9Sc/KefU1fM8nXEMdJWSuQfIT9o0EiX+RTZBvzy7oaVlAU0UTKsgVSw0mDdKoYSGkFEgVVTHUCFDisbd2W592CZVCPMRFWkpbaEQ8OIREexPdNCBkVNT6asfaDZOe7NDHtIysnXYHU/uW9b7Th5CMqfFizOkp/BKSERBtDska4AUjBcwYyaKAzTMg8gyQIaDKCH2EL/mMvh0vKAVwmlGi96ooKZEtR4kKSkiWXH1zrQKSQyoJhC8IyaEtPhv/cEyUT0ll/tmQfzVlZ/uHKdRiMmXR/vWVUCQ3pju1d8++nW2LXOrtaPWL+1je264LU/0xX45xHwq/ALb+BQ==);strokeColor=none;strokeWidth=47;spacingTop=-3;spacingBottom=-3;spacingLeft=-3;spacingRight=-3;points=[];labelBackgroundColor=none;rounded=0;html=1;whiteSpace=wrap;" parent="115" vertex="1">
          <mxGeometry width="19" height="16" as="geometry" />
        </mxCell>
        <mxCell id="117" style="vsdxID=1089;fillColor=none;gradientColor=none;strokeColor=none;spacingTop=-3;spacingBottom=-3;spacingLeft=-3;spacingRight=-3;points=[];labelBackgroundColor=none;rounded=0;html=1;whiteSpace=wrap;" parent="105" vertex="1">
          <mxGeometry y="6" width="58" height="41" as="geometry" />
        </mxCell>
        <mxCell id="118" style="vsdxID=1090;fillColor=#50e6ff;gradientColor=none;shape=stencil(vVddb6swDP01PNZKnA+S593d/4E22qL1lop2d92/nyviUIcNaVLbNzAJPvgcn5jKPB23zaGtUB1PQ//WfnSvp21l/lSI3X7bDt2JrirzXJmndT+0m6F/37+O94fmsvJy9a//f3nDedwXPVh72YXqc4xoDX6M/B03vLwP4w6dtiCEOm1JIQOYImccI8GCM2lRCqm0woy3Nb0mphUphGD9deZmeKGnQ4IaDJi0YchYa6hTLK3yGlQUH+RB+bRk1Zy742roT82p6/fpHSEB2zXDpl1RztV612wE5uNH2x5m4W9RGg81SpRO54IxyAi1k1VHQLwxSr3EYq1Ba8kiMR8ki8SRDZJFWoRccWbS8D4mkhYp/LlGFnPuXKMIVhIZFKiiRmpKfZcaSZREiS3kVoPTAmSkKnoJ0oO+J8ZZN1JXcKOlEBJFkkeCyaVMEYwQnaQxEHK2ghSyCvQCj9FCDEWJjAUtxU7UsrQ/s6zcrVtygcjosgNcw8QgYJJPSJRRgb+r3EoqSV6GIUxemyvFDaggsv3iHCmTWbZkcODiUnYPvtARdWCWO9s62CI3+UhtZG5NfmBkdnJlj4vfbrNCGY8CU366Be9lehLXLL0DizK9C+xj33u2AyP1YWNp2fRWJzvdTnkeoWLvMhuM8qIOK00TohEgHZ3vt/YjcfrNiIRYHCt02PliOlCSxEDqYJCGJ4pcbRYwOVb8uTzUPGxoXB50k4JSRIniaKXuWZri0KshFIOBp/PESYB1Ob3ECLcW2QJIrTSYQmXamnxcsxYxV5YtPeaj4FE4FZY4EWTP0rGnZj2bJ9WHtEMME6E8LOts4JOnFx2B0/DDHXE9qU9jlhzVd93+d7P9rzfQxfQrse52u/FP5Pp5+etBofG3xTx/AQ==);strokeColor=none;strokeWidth=47;spacingTop=-3;spacingBottom=-3;spacingLeft=-3;spacingRight=-3;points=[];labelBackgroundColor=none;rounded=0;html=1;whiteSpace=wrap;" parent="117" vertex="1">
          <mxGeometry width="58" height="41" as="geometry" />
        </mxCell>
        <UserObject label="" tags="Background" id="119">
          <mxCell style="vsdxID=1091;fillColor=none;gradientColor=none;strokeColor=none;spacingTop=-3;spacingBottom=-3;spacingLeft=-3;spacingRight=-3;points=[];labelBackgroundColor=none;rounded=0;html=1;whiteSpace=wrap;" parent="1" vertex="1">
            <mxGeometry x="762" y="121" width="38" height="50" as="geometry" />
          </mxCell>
        </UserObject>
        <mxCell id="120" style="vsdxID=1092;fillColor=none;gradientColor=none;strokeColor=none;spacingTop=-3;spacingBottom=-3;spacingLeft=-3;spacingRight=-3;points=[];labelBackgroundColor=none;rounded=0;html=1;whiteSpace=wrap;" parent="119" vertex="1">
          <mxGeometry width="38" height="50" as="geometry" />
        </mxCell>
        <mxCell id="121" style="vsdxID=1093;fillColor=none;gradientColor=none;strokeColor=none;spacingTop=-3;spacingBottom=-3;spacingLeft=-3;spacingRight=-3;points=[];labelBackgroundColor=none;rounded=0;html=1;whiteSpace=wrap;" parent="120" vertex="1">
          <mxGeometry width="38" height="50" as="geometry" />
        </mxCell>
        <mxCell id="122" style="vsdxID=1094;fillColor=none;gradientColor=none;strokeColor=none;spacingTop=-3;spacingBottom=-3;spacingLeft=-3;spacingRight=-3;points=[];labelBackgroundColor=none;rounded=0;html=1;whiteSpace=wrap;" parent="121" vertex="1">
          <mxGeometry width="38" height="50" as="geometry" />
        </mxCell>
        <mxCell id="123" style="vsdxID=1095;fillColor=none;gradientColor=none;strokeColor=none;spacingTop=-3;spacingBottom=-3;spacingLeft=-3;spacingRight=-3;points=[];labelBackgroundColor=none;rounded=0;html=1;whiteSpace=wrap;" parent="122" vertex="1">
          <mxGeometry y="6" width="38" height="43" as="geometry" />
        </mxCell>
        <mxCell id="124" style="vsdxID=1096;fillColor=#005ba1;gradientColor=none;shape=stencil(fZPdkoIwDIWfpredJhFpr119D2fFpbMsOBWVfXvBlJ90V+6ScE75OKSKdtfyeCkUmmsbmu/i4U9tqehDIfq6LIJv+0rRXtHu3ITiKzS3+sT95Tgoh+qnuQ8ndOzLzGBB88stZNrCa3Jg9ectsBxYgKjJRQukHtMhj8ZDY2u1i56OpEC08ZWVrxeAks9uNLg1PiPZHGqbSTaEiWbkc07brQTcOI1OQoJZwUxzlNqUMs/1FpIUo2PinAYTJWmwknLW0Jt8JOWs/yf3FHIWw/gbcysZl9+Bf7eBkmzozZKtR5mq+2Le5rOvKr4My+fp9vcjvjm0fwI=);strokeColor=none;strokeWidth=48;spacingTop=-3;spacingBottom=-3;spacingLeft=-3;spacingRight=-3;points=[];labelBackgroundColor=none;rounded=0;html=1;whiteSpace=wrap;" parent="123" vertex="1">
          <mxGeometry width="38" height="43" as="geometry" />
        </mxCell>
        <mxCell id="125" style="vsdxID=1097;fillColor=none;gradientColor=none;strokeColor=none;spacingTop=-3;spacingBottom=-3;spacingLeft=-3;spacingRight=-3;points=[];labelBackgroundColor=none;rounded=0;html=1;whiteSpace=wrap;" parent="122" vertex="1">
          <mxGeometry width="38" height="13" as="geometry" />
        </mxCell>
        <mxCell id="126" style="vsdxID=1098;fillColor=#e8e8e8;gradientColor=none;shape=stencil(jZLRDoIwDEW/Zq/LaEXwGfE/iAxZREYGKPy9kKJsixDf2u52p3crw6Qts0YyEG1n9F2+VN6VDM8MQNWlNKqbIoYpw6TQRt6M7uuc8iablXP00M/5hoH6AiHmHhAj5SGlF9Jee0PiwFcvhSjiUUylAb6lY7CowGsb0KGIEV3BBhaA48kFr1cuDOEio5gfwIV6zH2nnk8IeOj5tIdyZ9hyuQu0n82dYfBf8YOzh0Jf89Nlpeq//34K1qUpVFXRztnn/pJNJVpQTN8=);strokeColor=none;strokeWidth=48;spacingTop=-3;spacingBottom=-3;spacingLeft=-3;spacingRight=-3;points=[];labelBackgroundColor=none;rounded=0;html=1;whiteSpace=wrap;" parent="125" vertex="1">
          <mxGeometry width="38" height="13" as="geometry" />
        </mxCell>
        <mxCell id="127" style="vsdxID=1099;fillColor=none;gradientColor=none;strokeColor=none;spacingTop=-3;spacingBottom=-3;spacingLeft=-3;spacingRight=-3;points=[];labelBackgroundColor=none;rounded=0;html=1;whiteSpace=wrap;" parent="122" vertex="1">
          <mxGeometry x="4" y="1" width="29" height="8" as="geometry" />
        </mxCell>
        <mxCell id="128" style="vsdxID=1100;fillColor=#50e6ff;gradientColor=none;shape=stencil(lVLLDoIwEPyaXknp8tAz6n8QKdKIlBRQ+HtbF+0jwehtdzq7M9sMgWJoyp4TRodRySt/iGpsCBwIY6JruBKjrggcCRS1VPyi5NRV2PelYZrqJu9mw4xzMaVmhtEF+2Qf7V7ACdnnSSE9DvkrkOdRliA0sw+UrtDCgrEZEEjfa8AnbMgyFiWZL2xXrhrUl3SNgc+A324NLtUeaOpLurZ8F1t3fr3S/Tjfwxz+42IdQOZLWs7Gna3o/kiALmx4atG2mD33PQybhjCocHwC);strokeColor=none;strokeWidth=48;spacingTop=-3;spacingBottom=-3;spacingLeft=-3;spacingRight=-3;points=[];labelBackgroundColor=none;rounded=0;html=1;whiteSpace=wrap;" parent="127" vertex="1">
          <mxGeometry width="29" height="8" as="geometry" />
        </mxCell>
        <mxCell id="129" style="vsdxID=1101;fillColor=none;gradientColor=none;strokeColor=none;spacingTop=-3;spacingBottom=-3;spacingLeft=-3;spacingRight=-3;points=[];labelBackgroundColor=none;rounded=0;html=1;whiteSpace=wrap;" parent="122" vertex="1">
          <mxGeometry x="7" y="7" width="23" height="3" as="geometry" />
        </mxCell>
        <mxCell id="130" style="vsdxID=1102;fillColor=#198ab3;gradientColor=none;shape=stencil(vVPBbsMgDP0ajkGAQzrOXfcfaCUJGguRw9r070dktjapNu2y3my/x+PZshnsp96OjikxJYxv7uyPqWfwzJTyQ+/QpxwxODDYtxFdh/FjOFI+2oW5RO/xtCjM9E6L5YkSF0opeyGmxdeMYGHK2nBliI2FLgVoDjUV51uJL0EtOeiCV3b2U4Ux2eTjQLgp9GCxc1X+sWqD7VZK09m58a78g8cdb+TWowLerD1uupZCPNBizaVaWzTG8Ppp5fDbUqHkxvTucSY1cAHbOTaSK/3bHP9zisEPf1zbHFy3vfUh0LHc4tvryCW6LDh8Ag==);strokeColor=none;strokeWidth=48;spacingTop=-3;spacingBottom=-3;spacingLeft=-3;spacingRight=-3;points=[];labelBackgroundColor=none;rounded=0;html=1;whiteSpace=wrap;" parent="129" vertex="1">
          <mxGeometry width="23" height="3" as="geometry" />
        </mxCell>
        <mxCell id="131" style="vsdxID=1103;fillColor=none;gradientColor=none;strokeColor=none;spacingTop=-3;spacingBottom=-3;spacingLeft=-3;spacingRight=-3;points=[];labelBackgroundColor=none;rounded=0;html=1;whiteSpace=wrap;" parent="122" vertex="1">
          <mxGeometry x="4" y="22" width="30" height="15" as="geometry" />
        </mxCell>
        <mxCell id="132" style="vsdxID=1104;fillColor=#f2f2f2;gradientColor=none;shape=stencil(vVnLctswDPwaH40hCT7PbfofmsRJPHXtjOw0yd8XqiQygGzVnVi82RQpLpfgYkGt8NvxuXnZrIw6ntrDz83b9uH0vMLvK2O2++dNuz3RrxXerfDb46HdPLWH1/1D//+l6Xp2v34dfndveO/HRQvRdKOM+uhbvINk/7b86AfstvvZAQqSudw/eFD2S/1DgoSXB2ilvtL9v5f79QF8B7QDZP2RdW7ae3rUjp0DxKF3m7uDH5ryEgH5K00EPXRZN+/b47o9nJrT9rDvH6eBkl3TPm3WNOP6cdc8DbvVPzq+bTYvn5r1ZYwWhhVkiBEsR5hAew5QQ/LVEGLmZ0TowQbJoeccag8Gq0H04AWJ2kBMHKOFoDlGHGO/BkaK3BhFMCqIloGkcLCCyARuQYz8OE6nx1Ffzq7JODCBr8kmUP8iXt12QWqGdNJHL0jXoDlACypyDQIb60FU4ERckOg7HhdchWlX3I0VigG8f217zdV89uEvIphRfswYJnrc4qHFqhzu7zjqWBhC+WNosXRwzWVqOiEW4eUomAwPLwchMHocLnpkpH5rI/SbwwtZCEd4qaSgGuotGAwy/IlAL+KfWqoBDDmXZe12YD2HqEXW9wF8PYhdMnMTFXE8ByrJ4tL7zKV7Mn0IYGfWRB7CiLRuS1PhnSv3aNZq6GLxQZl0Ouo8do3J4jkum2I31QNJSp2m4s2jl7Jk5DS6CLikgE9A4gSj0hwjuTyuotZCPR5pei9UwLpicrMunPX+ywAUhdB83cGLFO8BDdcrMlZuZvnkVqWPohE80XlygvytlGMrhhGBlC7bkoPmKjhdehdroRpISrdeMEklH3JZI2W2Qqsh3Fiq5zCmiePDmOv40VckaWtUtk81NrtUdG2JNsU3G1POi5nHVFHXIhjhvShDIPdfaEBzjHUDsqsu5NH2ZSeHTimnkZKL440NzvzRlkzS0dZcfsnyJH7X5HVJI1WOtiw2qRJxnEk6SJ4fGzIEuqJIqjxbBpnkubGU/vl2R6qWljzcPJk5CkCuf+M939nuPmZHc013erv0ZHFM5Zc21kl7XWryK3JqDc6uyOncBExpKAXBWRpITEXkdPeX4qoigRa1modb26CZqiFNAFoBUMvQ6pJtxVLNTpyUiZJFzPG4oJOaB5lk1ZCKSl1isivZTDWQKU+fd3sSiyhUxJacsTzAmO1wBuhl6UWH0E/uziuSqEvp9+nSN/CdphOCvD6sHo4omDQh475Czmrcb1whp/SjfLh73O52/Xe/z8/lhz5q6j8S4t0f);strokeColor=none;strokeWidth=48;spacingTop=-3;spacingBottom=-3;spacingLeft=-3;spacingRight=-3;points=[];labelBackgroundColor=none;rounded=0;html=1;whiteSpace=wrap;" parent="131" vertex="1">
          <mxGeometry width="30" height="15" as="geometry" />
        </mxCell>
        <UserObject label="&lt;div style=&quot;font-size: 1px&quot;&gt;&lt;/div&gt;" tags="Connector" id="241">
          <mxCell style="vsdxID=1105;edgeStyle=none;startArrow=none;endArrow=block;startSize=5;endSize=5;strokeWidth=2;strokeColor=#000000;spacingTop=0;spacingBottom=0;spacingLeft=0;spacingRight=0;verticalAlign=bottom;html=1;labelBackgroundColor=#ffffff;rounded=0;align=center;" parent="1" edge="1">
            <mxGeometry relative="1" as="geometry">
              <mxPoint y="-25" as="offset" />
              <Array as="points" />
              <mxPoint x="604" y="155" as="sourcePoint" />
              <mxPoint x="758" y="155" as="targetPoint" />
            </mxGeometry>
          </mxCell>
        </UserObject>
        <UserObject label="" tags="Background" id="133">
          <mxCell style="vsdxID=1106;fillColor=none;gradientColor=none;strokeColor=none;spacingTop=-3;spacingBottom=-3;spacingLeft=-3;spacingRight=-3;points=[];labelBackgroundColor=none;rounded=0;html=1;whiteSpace=wrap;" parent="1" vertex="1">
            <mxGeometry x="330" y="34" width="70" height="63" as="geometry" />
          </mxCell>
        </UserObject>
        <mxCell id="134" style="vsdxID=1107;fillColor=none;gradientColor=none;strokeColor=none;spacingTop=-3;spacingBottom=-3;spacingLeft=-3;spacingRight=-3;points=[];labelBackgroundColor=none;rounded=0;html=1;whiteSpace=wrap;" parent="133" vertex="1">
          <mxGeometry width="70" height="63" as="geometry" />
        </mxCell>
        <mxCell id="135" style="vsdxID=1108;fillColor=none;gradientColor=none;strokeColor=none;spacingTop=-3;spacingBottom=-3;spacingLeft=-3;spacingRight=-3;points=[];labelBackgroundColor=none;rounded=0;html=1;whiteSpace=wrap;" parent="134" vertex="1">
          <mxGeometry width="70" height="63" as="geometry" />
        </mxCell>
        <mxCell id="136" style="vsdxID=1109;fillColor=none;gradientColor=none;strokeColor=none;spacingTop=-3;spacingBottom=-3;spacingLeft=-3;spacingRight=-3;points=[];labelBackgroundColor=none;rounded=0;html=1;whiteSpace=wrap;" parent="135" vertex="1">
          <mxGeometry x="11" width="22" height="20" as="geometry" />
        </mxCell>
        <mxCell id="137" style="vsdxID=1110;fillColor=#b77af4;gradientColor=none;shape=stencil(pZHdCsMgDIWfxlvR2KFed917FGqnzGmx3d/bTydlw2Fh7O4k+XIIOYi1s+4nhYDMS/AndTPDohHbIwDjtApmiQqxDrF29EEdg7+4IddTn8ikzv6aHO55j6QNII9cUYJ39NU5ZNgaV4UFx0LU4UZiCYU7qePrcIU5x3TDvcSpxA38cszGKX/85AuO4v360Vibk/ucl1HFVo6ZdU8=);strokeColor=none;strokeWidth=45;spacingTop=-3;spacingBottom=-3;spacingLeft=-3;spacingRight=-3;points=[];labelBackgroundColor=none;rounded=0;html=1;whiteSpace=wrap;" parent="136" vertex="1">
          <mxGeometry width="22" height="20" as="geometry" />
        </mxCell>
        <mxCell id="140" style="vsdxID=1113;fillColor=none;gradientColor=none;strokeColor=none;spacingTop=-3;spacingBottom=-3;spacingLeft=-3;spacingRight=-3;points=[];labelBackgroundColor=none;rounded=0;html=1;whiteSpace=wrap;" parent="135" vertex="1">
          <mxGeometry x="11" width="11" height="20" as="geometry" />
        </mxCell>
        <mxCell id="141" style="vsdxID=1114;fillColor=#341a6e;gradientColor=none;shape=stencil(nZNNDoMgEIVPw3YCDCKubXsPE7WSWjVq/25fKGlaNFLtbgbeB+9NMgTTocq6gnA6jH17Km46HyuCO8K5bqqi16OpCO4JpmXbF8e+vTS567vMKm11bq/2hbvjqCU4fbguASVeBwenrXWzqFUxxMmymFFf/u5XiQPS/w1Ptf4gBAce+wEZKBbwLIALD4gVSNwCsDAwt8Qk0IClzRlWAP6UVARqAkgQfPmHCEH6oRWCCISeA2ZuKgDMLTEGMtoC/MiwAjDFZ8NKXdduQb/vpxtpjtw24/4J);strokeColor=none;strokeWidth=45;spacingTop=-3;spacingBottom=-3;spacingLeft=-3;spacingRight=-3;points=[];labelBackgroundColor=none;rounded=0;html=1;whiteSpace=wrap;" parent="140" vertex="1">
          <mxGeometry width="11" height="20" as="geometry" />
        </mxCell>
        <mxCell id="142" style="vsdxID=1115;fillColor=none;gradientColor=none;strokeColor=none;spacingTop=-3;spacingBottom=-3;spacingLeft=-3;spacingRight=-3;points=[];labelBackgroundColor=none;rounded=0;html=1;whiteSpace=wrap;" parent="135" vertex="1">
          <mxGeometry x="35" width="22" height="20" as="geometry" />
        </mxCell>
        <mxCell id="143" style="vsdxID=1116;fillColor=#b77af4;gradientColor=none;shape=stencil(pZHdDsIgDIWfhlvCj3NwPed7LBkTIsLCmD9vL9gsmhnMEu9O26/NSQ/izaS7USFGphj8Wd1MHzXiB8SYcVoFE5NCvEW8GXxQp+Bn10M9dpnM6uKv+cId9kjeYOQBFSW4oq/OEWBrXBEWNRaiDFfr06TMLsMFrvdYyu04lXjHNjv54eOPb3zBSbyfPhhrIbPP+Tqk1IKAefsE);strokeColor=none;strokeWidth=45;spacingTop=-3;spacingBottom=-3;spacingLeft=-3;spacingRight=-3;points=[];labelBackgroundColor=none;rounded=0;html=1;whiteSpace=wrap;" parent="142" vertex="1">
          <mxGeometry width="22" height="20" as="geometry" />
        </mxCell>
        <mxCell id="144" style="vsdxID=1117;fillColor=none;gradientColor=none;strokeColor=none;spacingTop=-3;spacingBottom=-3;spacingLeft=-3;spacingRight=-3;points=[];labelBackgroundColor=none;rounded=0;html=1;whiteSpace=wrap;" parent="135" vertex="1">
          <mxGeometry x="35" width="11" height="20" as="geometry" />
        </mxCell>
        <mxCell id="145" style="vsdxID=1118;fillColor=#341a6e;gradientColor=none;shape=stencil(nZPdDoMgDIWfhtuGUoZ47bb3MFEnmVOj7u/tpyPLhkSiu2vL+eC0oYySvkzbnAneD11zzu8mG0pGeyaEqcu8M8MYMTowSoqmy09dc60zm7fppJyiS3ObbnhYjk+E4E+bxaDlu3C02srUi1odQRQvi5G78k++ShyQ/m94rnUHIQUgug0iaAx4JtCxA0QaFG0BMAz4llABD1ja3MMKwJ2SVh6gQIrlF3YEKnIBAhlo2gdQgg4AviVECHyKzS2sAMbgu2CFqSq7n7/n84UcS3aZ6fAC);strokeColor=none;strokeWidth=45;spacingTop=-3;spacingBottom=-3;spacingLeft=-3;spacingRight=-3;points=[];labelBackgroundColor=none;rounded=0;html=1;whiteSpace=wrap;" parent="144" vertex="1">
          <mxGeometry width="11" height="20" as="geometry" />
        </mxCell>
        <mxCell id="146" style="vsdxID=1119;fillColor=none;gradientColor=none;strokeColor=none;spacingTop=-3;spacingBottom=-3;spacingLeft=-3;spacingRight=-3;points=[];labelBackgroundColor=none;rounded=0;html=1;whiteSpace=wrap;" parent="135" vertex="1">
          <mxGeometry y="21" width="22" height="20" as="geometry" />
        </mxCell>
        <mxCell id="147" style="vsdxID=1120;fillColor=#b77af4;gradientColor=none;shape=stencil(pZHdCsMgDIWfxlvR2KFed917FGqnzGmx3d/bTydlw2Fh7O4k+XIIOYi1s+4nhYDMS/AndTPDohHbIwDjtApmiQqxDrF29EEdg7+4IddTn8ikzv6aHO55j6QNII9cUYJ39NU5ZNgaV4UFx0LU4UZiCYU7qePrcIU5x3TDvcSpxA38cszGKX/85AuO4v360Vibk/ucl1HFVo6ZdU8=);strokeColor=none;strokeWidth=45;spacingTop=-3;spacingBottom=-3;spacingLeft=-3;spacingRight=-3;points=[];labelBackgroundColor=none;rounded=0;html=1;whiteSpace=wrap;" parent="146" vertex="1">
          <mxGeometry width="22" height="20" as="geometry" />
        </mxCell>
        <mxCell id="148" style="vsdxID=1121;fillColor=none;gradientColor=none;strokeColor=none;spacingTop=-3;spacingBottom=-3;spacingLeft=-3;spacingRight=-3;points=[];labelBackgroundColor=none;rounded=0;html=1;whiteSpace=wrap;" parent="135" vertex="1">
          <mxGeometry y="21" width="11" height="20" as="geometry" />
        </mxCell>
        <mxCell id="149" style="vsdxID=1122;fillColor=#341a6e;gradientColor=none;shape=stencil(nZPdDoMgDIWfhtuGAgpeO/ceJuokc2rU/b39dCzZ0Ii4u7Z8pzltKOFxX6ZtThjth64553edDSXhB8KYrsu808MYEZ4QHhdNl5+65lpnJm/TiZyiS3ObOjyMjk4KRp8mQwriXTgattL1KqskyGgdRjpvTf1hB/q/4TlrL0IgKG4PyCBkDs8clMXLCNC1kDmPbn5pCEMQwR7BxgQeAntHKgAl93yCgEMobIH4bMGTx8A589IRMmC4R7AxgodgDL7nVeiqMtf5+z4/x7FkTpknLw==);strokeColor=none;strokeWidth=45;spacingTop=-3;spacingBottom=-3;spacingLeft=-3;spacingRight=-3;points=[];labelBackgroundColor=none;rounded=0;html=1;whiteSpace=wrap;" parent="148" vertex="1">
          <mxGeometry width="11" height="20" as="geometry" />
        </mxCell>
        <mxCell id="150" style="vsdxID=1123;fillColor=none;gradientColor=none;strokeColor=none;spacingTop=-3;spacingBottom=-3;spacingLeft=-3;spacingRight=-3;points=[];labelBackgroundColor=none;rounded=0;html=1;whiteSpace=wrap;" parent="135" vertex="1">
          <mxGeometry x="24" y="21" width="22" height="20" as="geometry" />
        </mxCell>
        <mxCell id="151" style="vsdxID=1124;fillColor=#b77af4;gradientColor=none;shape=stencil(pZHdCoMwDIWfJrelNkrntXPvIVjXsq6V6v7efu2CbDg6hN2dJF/CIQewmXQ3KhB8moM/qZvpZw24ByGM0yqYOSrAFrAZfFDH4C+up3rsEpnU2V/ThTvt8bQh+IOqgrOyfnUOBFvjsvBOMinycLU+zfPsMlxgKRmvtuNFzUrc7OSHjz++8QVH8X76YKylzD7n65BiiwLG9gk=);strokeColor=none;strokeWidth=45;spacingTop=-3;spacingBottom=-3;spacingLeft=-3;spacingRight=-3;points=[];labelBackgroundColor=none;rounded=0;html=1;whiteSpace=wrap;" parent="150" vertex="1">
          <mxGeometry width="22" height="20" as="geometry" />
        </mxCell>
        <mxCell id="152" style="vsdxID=1125;fillColor=none;gradientColor=none;strokeColor=none;spacingTop=-3;spacingBottom=-3;spacingLeft=-3;spacingRight=-3;points=[];labelBackgroundColor=none;rounded=0;html=1;whiteSpace=wrap;" parent="135" vertex="1">
          <mxGeometry x="24" y="21" width="11" height="20" as="geometry" />
        </mxCell>
        <mxCell id="153" style="vsdxID=1126;fillColor=#341a6e;gradientColor=none;shape=stencil(nZPbDoMgDEC/htfGUhR8du4/TNRJ5tSou/39ZGTZ0HjbWwvnQNukjKKuSJqMca/r2/qc3XXaF4wOjHNdFVmr+yFiFDOK8rrNTm19rVKbN4khTXSpb+aFh/U8Y3DvabMQgnd+tGipq1lUSZDhPIyei3/yTfAC+ne9I9SdgkAIpdsegsKFigmUcASpgNQeARUIMS9MS0Ifgl3CSg8bBHdKygdFrhAAp/kffAIRugIBLkxpKqBYbHpaEiLs4lda2CAMwXe7cl2Wdjl/78fbOBzZTab4BQ==);strokeColor=none;strokeWidth=45;spacingTop=-3;spacingBottom=-3;spacingLeft=-3;spacingRight=-3;points=[];labelBackgroundColor=none;rounded=0;html=1;whiteSpace=wrap;" parent="152" vertex="1">
          <mxGeometry width="11" height="20" as="geometry" />
        </mxCell>
        <mxCell id="154" style="vsdxID=1127;fillColor=none;gradientColor=none;strokeColor=none;spacingTop=-3;spacingBottom=-3;spacingLeft=-3;spacingRight=-3;points=[];labelBackgroundColor=none;rounded=0;html=1;whiteSpace=wrap;" parent="135" vertex="1">
          <mxGeometry x="48" y="21" width="22" height="20" as="geometry" />
        </mxCell>
        <mxCell id="155" style="vsdxID=1128;fillColor=#b77af4;gradientColor=none;shape=stencil(pZHdCsMgDIWfxlvR2KFed917FGqnzGmx3d/bTydlw2Fh7O4k+XIIOYi1s+4nhYDMS/AndTPDohHbIwDjtApmiQqxDrF29EEdg7+4IddTn8ikzv6aHO55j6QNII9cUYJ39NU5ZNgaV4UFx0LU4UZiCYU7qePrcIU5x3TDvcSpxA38cszGKX/85AuO4v360Vibk/ucl1HFVo6ZdU8=);strokeColor=none;strokeWidth=45;spacingTop=-3;spacingBottom=-3;spacingLeft=-3;spacingRight=-3;points=[];labelBackgroundColor=none;rounded=0;html=1;whiteSpace=wrap;" parent="154" vertex="1">
          <mxGeometry width="22" height="20" as="geometry" />
        </mxCell>
        <mxCell id="156" style="vsdxID=1129;fillColor=none;gradientColor=none;strokeColor=none;spacingTop=-3;spacingBottom=-3;spacingLeft=-3;spacingRight=-3;points=[];labelBackgroundColor=none;rounded=0;html=1;whiteSpace=wrap;" parent="135" vertex="1">
          <mxGeometry x="48" y="21" width="11" height="20" as="geometry" />
        </mxCell>
        <mxCell id="157" style="vsdxID=1130;fillColor=#341a6e;gradientColor=none;shape=stencil(pZPbDoMgDIafhtsGCgheu+09TNRJ5sSoO739dGQHNaJmd235/vK3SQmPmjyuUoK0aWt7Sm8maXPCdwTRlHlam7aLCN8THmW2To+1vZSJy6u4J/vobK99h7vT0V6B9OEyRkGGr8rBwYUpZ2GtQHlgRse96XrYg/7heAIPdyEQUA1HRNAe0wJQDHgVAt8kYCEIMS+YOmIBBJsE/hGW+eGKtAQ94hUgn/9A8rffj0AAU1sETHpHnlpiCJv4hRFWCLrge2CZKQp3n7/v44PsSu6Y+f4J);strokeColor=none;strokeWidth=45;spacingTop=-3;spacingBottom=-3;spacingLeft=-3;spacingRight=-3;points=[];labelBackgroundColor=none;rounded=0;html=1;whiteSpace=wrap;" parent="156" vertex="1">
          <mxGeometry width="11" height="20" as="geometry" />
        </mxCell>
        <mxCell id="158" style="vsdxID=1131;fillColor=none;gradientColor=none;strokeColor=none;spacingTop=-3;spacingBottom=-3;spacingLeft=-3;spacingRight=-3;points=[];labelBackgroundColor=none;rounded=0;html=1;whiteSpace=wrap;" parent="135" vertex="1">
          <mxGeometry x="11" y="43" width="22" height="20" as="geometry" />
        </mxCell>
        <mxCell id="159" style="vsdxID=1132;fillColor=#b77af4;gradientColor=none;shape=stencil(pZHdCsMgDIWfxluxsdR53XXvUaidMqfFdn9vP10oGw4LY3cnyZdDyCG8nXU/KQJsXoI/qZsZFk34ngAYp1UwS1SEd4S3ow/qGPzFDVhPfSKTOvtrcrjjHksbwB5YVYyCeHUOCFvjivBO0EaW4VpSCZk7K+PrcIVFQ+WGe45XktbwyzEbp/zxky84ivfrR2MtJvc5z6OKLYyZd08=);strokeColor=none;strokeWidth=45;spacingTop=-3;spacingBottom=-3;spacingLeft=-3;spacingRight=-3;points=[];labelBackgroundColor=none;rounded=0;html=1;whiteSpace=wrap;" parent="158" vertex="1">
          <mxGeometry width="22" height="20" as="geometry" />
        </mxCell>
        <mxCell id="162" style="vsdxID=1135;fillColor=none;gradientColor=none;strokeColor=none;spacingTop=-3;spacingBottom=-3;spacingLeft=-3;spacingRight=-3;points=[];labelBackgroundColor=none;rounded=0;html=1;whiteSpace=wrap;" parent="135" vertex="1">
          <mxGeometry x="11" y="43" width="11" height="20" as="geometry" />
        </mxCell>
        <mxCell id="163" style="vsdxID=1136;fillColor=#341a6e;gradientColor=none;shape=stencil(pZPbDoMgDIafhtsGipyu3fYeJuokc2rUnd5+Oi42NKJmd235P+hfUsLjrkiajCDt+ra+ZA+b9gXhB4JoqyJrbT9EhB8Jj/O6zc5tfatSlzfJqByja30fb3g6jo4E0pfLGAWjP5WTE5e2WhRrBcosixmd3k23iwPSPzqeif1ZRAiofIsINGQxAow8QGlQbA/ADMjAC/OWmATD9wArHjYA/pS0AD0BJMhAS4KD9E3roRL4tDnABBixDMxbYghK7gFWPGwAhuC7ZLktS7ejv+fTpRxKbqH58Q0=);strokeColor=none;strokeWidth=45;spacingTop=-3;spacingBottom=-3;spacingLeft=-3;spacingRight=-3;points=[];labelBackgroundColor=none;rounded=0;html=1;whiteSpace=wrap;" parent="162" vertex="1">
          <mxGeometry width="11" height="20" as="geometry" />
        </mxCell>
        <mxCell id="164" style="vsdxID=1137;fillColor=none;gradientColor=none;strokeColor=none;spacingTop=-3;spacingBottom=-3;spacingLeft=-3;spacingRight=-3;points=[];labelBackgroundColor=none;rounded=0;html=1;whiteSpace=wrap;" parent="135" vertex="1">
          <mxGeometry x="35" y="43" width="22" height="20" as="geometry" />
        </mxCell>
        <mxCell id="165" style="vsdxID=1138;fillColor=#b77af4;gradientColor=none;shape=stencil(pZHdCsMgDIWfxlvR2KFed917FGqnzGmx3d/bTydlw2Fh7O4k+XIIOYi1s+4nhYDMS/AndTPDohHbIwDjtApmiQqxDrF29EEdg7+4IddTn8ikzv6aHO55j6QNII9cUYJ39NU5ZNgaV4UFx0LU4UZiCYU7qePrcIU5x3TDvcSpxA38cszGKX/85AuO4v360Vibk/ucl1HFVo6ZdU8=);strokeColor=none;strokeWidth=45;spacingTop=-3;spacingBottom=-3;spacingLeft=-3;spacingRight=-3;points=[];labelBackgroundColor=none;rounded=0;html=1;whiteSpace=wrap;" parent="164" vertex="1">
          <mxGeometry width="22" height="20" as="geometry" />
        </mxCell>
        <mxCell id="166" style="vsdxID=1139;fillColor=none;gradientColor=none;strokeColor=none;spacingTop=-3;spacingBottom=-3;spacingLeft=-3;spacingRight=-3;points=[];labelBackgroundColor=none;rounded=0;html=1;whiteSpace=wrap;" parent="135" vertex="1">
          <mxGeometry x="35" y="43" width="11" height="20" as="geometry" />
        </mxCell>
        <mxCell id="167" style="vsdxID=1140;fillColor=#341a6e;gradientColor=none;shape=stencil(nZNNDoMgEIVPw3YiAyKurb2HiVhJrRq1f7cvljQtGlG7m4H3wXuTDGFJX2atIhj0Q9ec1V3nQ0nYgSDqulSdHkxFWEpYUjSdOnXNtc5t32ajcqwuzW184WG5YCQweNouBsnfB0errXS9qJURRPGymAau/NNvEnuk/xueat1BcASM3IAUYl9ADsgdIJIg2B6A+oG5JRqC3AWsZNgAuFOSxsAEEMBx+YeQgXBDSwbck2EOmLn5Qs8tUQoi3AOsZNgAmOK7YYWuKrugv/fTjTRHdptZ+gI=);strokeColor=none;strokeWidth=45;spacingTop=-3;spacingBottom=-3;spacingLeft=-3;spacingRight=-3;points=[];labelBackgroundColor=none;rounded=0;html=1;whiteSpace=wrap;" parent="166" vertex="1">
          <mxGeometry width="11" height="20" as="geometry" />
        </mxCell>
        <UserObject label="&lt;div style=&quot;font-size: 1px&quot;&gt;&lt;font style=&quot;font-size:15.52px;font-family:Segoe UI;color:#000000;direction:ltr;letter-spacing:0px;line-height:120%;opacity:1&quot;&gt;Azure Kubernetes Service (AKS)&lt;br/&gt;&lt;/font&gt;&lt;/div&gt;" tags="Background" id="168">
          <mxCell style="verticalAlign=middle;align=center;overflow=width;vsdxID=1141;fillColor=none;gradientColor=none;shape=stencil(nZBLDoAgDERP0z3SIyjew0SURgSD+Lu9kMZoXLhwN9O+tukAlrNpJg1SzDH4QW/URgNYgZTkjA4UkwJUgGXng+6DX1zLfmoymdXo17xh5zmRJ6Q42BWCfc2oJfdAr+Yv+AP9Cb7OJ3H/2JG1HNGz/84klThPVCc=);strokeColor=none;points=[];labelBackgroundColor=none;rounded=0;html=1;whiteSpace=wrap;" parent="1" vertex="1">
            <mxGeometry x="400" y="28" width="134" height="74" as="geometry" />
          </mxCell>
        </UserObject>
        <UserObject label="" tags="Background" id="169">
          <mxCell style="vsdxID=1142;fillColor=none;gradientColor=none;strokeColor=none;points=[];labelBackgroundColor=none;rounded=0;html=1;whiteSpace=wrap;" parent="1" vertex="1">
            <mxGeometry x="651" y="208" width="49" height="49" as="geometry" />
          </mxCell>
        </UserObject>
        <mxCell id="170" style="vsdxID=1143;fillColor=none;gradientColor=none;shape=stencil(vVHLDsIgEPwajiQI6RfU+h8bu22JCGRB2/69kG1iazx58DazM/vIjjBtmiCi0CplCjecbZ8nYc5Ca+snJJsLEqYTph0C4Ujh4XvmEaqzont41gkL96naodXKrGF6YSfQtUi0OXXDVlqPfJNP6usotUhYbJIUMmQb/GGrAxpRljVycDBuc1hKM2LclX8/7H9nFfB+82Cd45T2+mcspcSRmu4F);strokeColor=#a5a5a5;points=[];labelBackgroundColor=none;rounded=0;html=1;whiteSpace=wrap;" parent="169" vertex="1">
          <mxGeometry width="49" height="49" as="geometry" />
        </mxCell>
        <mxCell id="171" style="vsdxID=1144;fillColor=none;gradientColor=none;strokeColor=none;points=[];labelBackgroundColor=none;rounded=0;html=1;whiteSpace=wrap;" parent="169" vertex="1">
          <mxGeometry x="11" y="9" width="25" height="30" as="geometry" />
        </mxCell>
        <mxCell id="172" style="vsdxID=1145;fillColor=#50e6ff;gradientColor=none;shape=stencil(UzV2Ls5ILEhVNTIoLinKz04tz0wpyVA1dlE1MsrMy0gtyiwBslSNXVWNndPyi1LTi/JL81Ig/IJEkEoQKze/DGRCBUSfoYEBSI+RQSWEb26iZ2kJFnGDKM/JzMOj3MhUz8AQt3JTVNUGuFWSZCxJTkZzA8wHRHmPxNDAUA5kIAI+LTMnBxJvyPLoEQUUgkSysSsA);strokeColor=none;strokeWidth=18;spacingTop=-3;spacingBottom=-3;spacingLeft=-3;spacingRight=-3;points=[];labelBackgroundColor=none;rounded=0;html=1;whiteSpace=wrap;" parent="171" vertex="1">
          <mxGeometry width="25" height="30" as="geometry" />
        </mxCell>
        <mxCell id="173" style="vsdxID=1146;fillColor=#32b0e7;gradientColor=none;shape=stencil(UzV2Ls5ILEhVNTIoLinKz04tz0wpyVA1dlE1MsrMy0gtyiwBslSNXVWNndPyi1LTi/JL81Ig/IJEkEoQKze/DGRCBUSfoYEBSI+RQSWEb2KuZ2YMFnGDKM/JzENSboqq2gC3SkqMhTkKq1oSXUxQOZCBCJy0zJwcSNgiy6MHJlAIEhHGrgA=);strokeColor=none;strokeWidth=18;spacingTop=-3;spacingBottom=-3;spacingLeft=-3;spacingRight=-3;points=[];labelBackgroundColor=none;rounded=0;html=1;whiteSpace=wrap;" parent="171" vertex="1">
          <mxGeometry width="25" height="15" as="geometry" />
        </mxCell>
        <mxCell id="174" style="vsdxID=1147;fillColor=#0078d4;gradientColor=none;shape=stencil(UzV2Ls5ILEhVNTIoLinKz04tz0wpyVA1dlE1MsrMy0gtyiwBslSNXVWNndPyi1LTi/JL81Ig/IJEkEoQKze/DGRCBUSfoYEBSI+RQSWEb2amZ2YKFnGDKM/JzMOj3AC3UlSFxiZ6FhbEKobZQpQTSHQxhnIgAxE4aZk5OZCwRZZHD0ygECQijF0B);strokeColor=none;strokeWidth=18;spacingTop=-3;spacingBottom=-3;spacingLeft=-3;spacingRight=-3;points=[];labelBackgroundColor=none;rounded=0;html=1;whiteSpace=wrap;" parent="171" vertex="1">
          <mxGeometry x="12" y="7" width="12" height="22" as="geometry" />
        </mxCell>
        <UserObject label="" tags="Background" id="175">
          <mxCell style="vsdxID=1148;fillColor=none;gradientColor=none;strokeColor=none;points=[];labelBackgroundColor=none;rounded=0;html=1;whiteSpace=wrap;" parent="1" vertex="1">
            <mxGeometry x="544" y="208" width="49" height="49" as="geometry" />
          </mxCell>
        </UserObject>
        <mxCell id="176" style="vsdxID=1149;fillColor=none;gradientColor=none;shape=stencil(vVHLDsIgEPwajiQI6RfU+h8bu22JCGRB2/69kG1iazx58DazM/vIjjBtmiCi0CplCjecbZ8nYc5Ca+snJJsLEqYTph0C4Ujh4XvmEaqzont41gkL96naodXKrGF6YSfQtUi0OXXDVlqPfJNP6usotUhYbJIUMmQb/GGrAxpRljVycDBuc1hKM2LclX8/7H9nFfB+82Cd45T2+mcspcSRmu4F);strokeColor=#a5a5a5;points=[];labelBackgroundColor=none;rounded=0;html=1;whiteSpace=wrap;" parent="175" vertex="1">
          <mxGeometry width="49" height="49" as="geometry" />
        </mxCell>
        <mxCell id="177" style="vsdxID=1150;fillColor=none;gradientColor=none;strokeColor=none;points=[];labelBackgroundColor=none;rounded=0;html=1;whiteSpace=wrap;" parent="175" vertex="1">
          <mxGeometry x="11" y="9" width="25" height="30" as="geometry" />
        </mxCell>
        <mxCell id="178" style="vsdxID=1151;fillColor=#50e6ff;gradientColor=none;shape=stencil(UzV2Ls5ILEhVNTIoLinKz04tz0wpyVA1dlE1MsrMy0gtyiwBslSNXVWNndPyi1LTi/JL81Ig/IJEkEoQKze/DGRCBUSfoYEBSI+RQSWEb26iZ2kJFnGDKM/JzMOj3MhUz8AQt3JTVNUGuFWSZCxJTkZzA8wHRHmPxNDAUA5kIAI+LTMnBxJvyPLoEQUUgkSysSsA);strokeColor=none;strokeWidth=18;spacingTop=-3;spacingBottom=-3;spacingLeft=-3;spacingRight=-3;points=[];labelBackgroundColor=none;rounded=0;html=1;whiteSpace=wrap;" parent="177" vertex="1">
          <mxGeometry width="25" height="30" as="geometry" />
        </mxCell>
        <mxCell id="179" style="vsdxID=1152;fillColor=#32b0e7;gradientColor=none;shape=stencil(UzV2Ls5ILEhVNTIoLinKz04tz0wpyVA1dlE1MsrMy0gtyiwBslSNXVWNndPyi1LTi/JL81Ig/IJEkEoQKze/DGRCBUSfoYEBSI+RQSWEb2KuZ2YMFnGDKM/JzENSboqq2gC3SkqMhTkKq1oSXUxQOZCBCJy0zJwcSNgiy6MHJlAIEhHGrgA=);strokeColor=none;strokeWidth=18;spacingTop=-3;spacingBottom=-3;spacingLeft=-3;spacingRight=-3;points=[];labelBackgroundColor=none;rounded=0;html=1;whiteSpace=wrap;" parent="177" vertex="1">
          <mxGeometry width="25" height="15" as="geometry" />
        </mxCell>
        <mxCell id="180" style="vsdxID=1153;fillColor=#0078d4;gradientColor=none;shape=stencil(UzV2Ls5ILEhVNTIoLinKz04tz0wpyVA1dlE1MsrMy0gtyiwBslSNXVWNndPyi1LTi/JL81Ig/IJEkEoQKze/DGRCBUSfoYEBSI+RQSWEb2amZ2YKFnGDKM/JzMOj3AC3UlSFxiZ6FhbEKobZQpQTSHQxhnIgAxE4aZk5OZCwRZZHD0ygECQijF0B);strokeColor=none;strokeWidth=18;spacingTop=-3;spacingBottom=-3;spacingLeft=-3;spacingRight=-3;points=[];labelBackgroundColor=none;rounded=0;html=1;whiteSpace=wrap;" parent="177" vertex="1">
          <mxGeometry x="12" y="7" width="12" height="22" as="geometry" />
        </mxCell>
        <UserObject label="" tags="Background" id="181">
          <mxCell style="vsdxID=1154;fillColor=none;gradientColor=none;strokeColor=none;points=[];labelBackgroundColor=none;rounded=0;html=1;whiteSpace=wrap;" parent="1" vertex="1">
            <mxGeometry x="552" y="132" width="49" height="49" as="geometry" />
          </mxCell>
        </UserObject>
        <mxCell id="182" style="vsdxID=1155;fillColor=none;gradientColor=none;shape=stencil(vVHLDsIgEPwajiQI6RfU+h8bu22JCGRB2/69kG1iazx58DazM/vIjjBtmiCi0CplCjecbZ8nYc5Ca+snJJsLEqYTph0C4Ujh4XvmEaqzont41gkL96naodXKrGF6YSfQtUi0OXXDVlqPfJNP6usotUhYbJIUMmQb/GGrAxpRljVycDBuc1hKM2LclX8/7H9nFfB+82Cd45T2+mcspcSRmu4F);strokeColor=#a5a5a5;points=[];labelBackgroundColor=none;rounded=0;html=1;whiteSpace=wrap;" parent="181" vertex="1">
          <mxGeometry width="49" height="49" as="geometry" />
        </mxCell>
        <mxCell id="183" style="vsdxID=1156;fillColor=none;gradientColor=none;strokeColor=none;points=[];labelBackgroundColor=none;rounded=0;html=1;whiteSpace=wrap;" parent="181" vertex="1">
          <mxGeometry x="11" y="9" width="25" height="30" as="geometry" />
        </mxCell>
        <mxCell id="184" style="vsdxID=1157;fillColor=#50e6ff;gradientColor=none;shape=stencil(UzV2Ls5ILEhVNTIoLinKz04tz0wpyVA1dlE1MsrMy0gtyiwBslSNXVWNndPyi1LTi/JL81Ig/IJEkEoQKze/DGRCBUSfoYEBSI+RQSWEb26iZ2kJFnGDKM/JzMOj3MhUz8AQt3JTVNUGuFWSZCxJTkZzA8wHRHmPxNDAUA5kIAI+LTMnBxJvyPLoEQUUgkSysSsA);strokeColor=none;strokeWidth=18;spacingTop=-3;spacingBottom=-3;spacingLeft=-3;spacingRight=-3;points=[];labelBackgroundColor=none;rounded=0;html=1;whiteSpace=wrap;" parent="183" vertex="1">
          <mxGeometry width="25" height="30" as="geometry" />
        </mxCell>
        <mxCell id="185" style="vsdxID=1158;fillColor=#32b0e7;gradientColor=none;shape=stencil(UzV2Ls5ILEhVNTIoLinKz04tz0wpyVA1dlE1MsrMy0gtyiwBslSNXVWNndPyi1LTi/JL81Ig/IJEkEoQKze/DGRCBUSfoYEBSI+RQSWEb2KuZ2YMFnGDKM/JzENSboqq2gC3SkqMhTkKq1oSXUxQOZCBCJy0zJwcSNgiy6MHJlAIEhHGrgA=);strokeColor=none;strokeWidth=18;spacingTop=-3;spacingBottom=-3;spacingLeft=-3;spacingRight=-3;points=[];labelBackgroundColor=none;rounded=0;html=1;whiteSpace=wrap;" parent="183" vertex="1">
          <mxGeometry width="25" height="15" as="geometry" />
        </mxCell>
        <mxCell id="186" style="vsdxID=1159;fillColor=#0078d4;gradientColor=none;shape=stencil(UzV2Ls5ILEhVNTIoLinKz04tz0wpyVA1dlE1MsrMy0gtyiwBslSNXVWNndPyi1LTi/JL81Ig/IJEkEoQKze/DGRCBUSfoYEBSI+RQSWEb2amZ2YKFnGDKM/JzMOj3AC3UlSFxiZ6FhbEKobZQpQTSHQxhnIgAxE4aZk5OZCwRZZHD0ygECQijF0B);strokeColor=none;strokeWidth=18;spacingTop=-3;spacingBottom=-3;spacingLeft=-3;spacingRight=-3;points=[];labelBackgroundColor=none;rounded=0;html=1;whiteSpace=wrap;" parent="183" vertex="1">
          <mxGeometry x="12" y="7" width="12" height="22" as="geometry" />
        </mxCell>
        <UserObject label="" tags="Background" id="187">
          <mxCell style="vsdxID=1160;fillColor=none;gradientColor=none;strokeColor=none;points=[];labelBackgroundColor=none;rounded=0;html=1;whiteSpace=wrap;" parent="1" vertex="1">
            <mxGeometry x="444" y="172" width="49" height="49" as="geometry" />
          </mxCell>
        </UserObject>
        <mxCell id="188" style="vsdxID=1161;fillColor=#ffffff;gradientColor=none;shape=stencil(vVHLDsIgEPwajiQI6RfU+h8bu22JCGRB2/69kG1iazx58DazM/vIjjBtmiCi0CplCjecbZ8nYc5Ca+snJJsLEqYTph0C4Ujh4XvmEaqzont41gkL96naodXKrGF6YSfQtUi0OXXDVlqPfJNP6usotUhYbJIUMmQb/GGrAxpRljVycDBuc1hKM2LclX8/7H9nFfB+82Cd45T2+mcspcSRmu4F);strokeColor=#a5a5a5;points=[];labelBackgroundColor=none;rounded=0;html=1;whiteSpace=wrap;" parent="187" vertex="1">
          <mxGeometry width="49" height="49" as="geometry" />
        </mxCell>
        <mxCell id="189" style="vsdxID=1162;fillColor=none;gradientColor=none;strokeColor=none;points=[];labelBackgroundColor=none;rounded=0;html=1;whiteSpace=wrap;" parent="187" vertex="1">
          <mxGeometry x="11" y="9" width="25" height="30" as="geometry" />
        </mxCell>
        <mxCell id="190" style="vsdxID=1163;fillColor=#50e6ff;gradientColor=none;shape=stencil(UzV2Ls5ILEhVNTIoLinKz04tz0wpyVA1dlE1MsrMy0gtyiwBslSNXVWNndPyi1LTi/JL81Ig/IJEkEoQKze/DGRCBUSfoYEBSI+RQSWEb26iZ2kJFnGDKM/JzMOj3MhUz8AQt3JTVNUGuFWSZCxJTkZzA8wHRHmPxNDAUA5kIAI+LTMnBxJvyPLoEQUUgkSysSsA);strokeColor=none;strokeWidth=18;spacingTop=-3;spacingBottom=-3;spacingLeft=-3;spacingRight=-3;points=[];labelBackgroundColor=none;rounded=0;html=1;whiteSpace=wrap;" parent="189" vertex="1">
          <mxGeometry width="25" height="30" as="geometry" />
        </mxCell>
        <mxCell id="191" style="vsdxID=1164;fillColor=#32b0e7;gradientColor=none;shape=stencil(UzV2Ls5ILEhVNTIoLinKz04tz0wpyVA1dlE1MsrMy0gtyiwBslSNXVWNndPyi1LTi/JL81Ig/IJEkEoQKze/DGRCBUSfoYEBSI+RQSWEb2KuZ2YMFnGDKM/JzENSboqq2gC3SkqMhTkKq1oSXUxQOZCBCJy0zJwcSNgiy6MHJlAIEhHGrgA=);strokeColor=none;strokeWidth=18;spacingTop=-3;spacingBottom=-3;spacingLeft=-3;spacingRight=-3;points=[];labelBackgroundColor=none;rounded=0;html=1;whiteSpace=wrap;" parent="189" vertex="1">
          <mxGeometry width="25" height="15" as="geometry" />
        </mxCell>
        <mxCell id="192" style="vsdxID=1165;fillColor=#0078d4;gradientColor=none;shape=stencil(UzV2Ls5ILEhVNTIoLinKz04tz0wpyVA1dlE1MsrMy0gtyiwBslSNXVWNndPyi1LTi/JL81Ig/IJEkEoQKze/DGRCBUSfoYEBSI+RQSWEb2amZ2YKFnGDKM/JzMOj3AC3UlSFxiZ6FhbEKobZQpQTSHQxhnIgAxE4aZk5OZCwRZZHD0ygECQijF0B);strokeColor=none;strokeWidth=18;spacingTop=-3;spacingBottom=-3;spacingLeft=-3;spacingRight=-3;points=[];labelBackgroundColor=none;rounded=0;html=1;whiteSpace=wrap;" parent="189" vertex="1">
          <mxGeometry x="12" y="7" width="12" height="22" as="geometry" />
        </mxCell>
        <UserObject label="&lt;div style=&quot;font-size: 1px&quot;&gt;&lt;font style=&quot;font-size:15.52px;font-family:Segoe UI;color:#000000;direction:ltr;letter-spacing:0px;line-height:120%;opacity:1&quot;&gt;SQL Database&lt;br/&gt;&lt;/font&gt;&lt;/div&gt;" tags="Background" id="205">
          <mxCell style="verticalAlign=middle;align=center;overflow=width;vsdxID=1178;fillColor=none;gradientColor=none;shape=stencil(nZBLDoAgDERP0z3SIyjew0SURgSD+Lu9kMZoXLhwN9O+tukAlrNpJg1SzDH4QW/URgNYgZTkjA4UkwJUgGXng+6DX1zLfmoymdXo17xh5zmRJ6Q42BWCfc2oJfdAr+Yv+AP9Cb7OJ3H/2JG1HNGz/84klThPVCc=);strokeColor=none;points=[];labelBackgroundColor=none;rounded=0;html=1;whiteSpace=wrap;" parent="1" vertex="1">
            <mxGeometry x="727" y="177" width="117" height="28" as="geometry" />
          </mxCell>
        </UserObject>
        <UserObject label="&lt;div style=&quot;font-size: 1px&quot;&gt;&lt;font style=&quot;font-size:15.52px;font-family:Segoe UI;color:#000000;direction:ltr;letter-spacing:0px;line-height:120%;opacity:1&quot;&gt;Azure Cosmos DB&lt;br/&gt;&lt;/font&gt;&lt;/div&gt;" tags="Background" id="206">
          <mxCell style="verticalAlign=middle;align=center;overflow=width;vsdxID=1179;fillColor=none;gradientColor=none;shape=stencil(nZBLDoAgDERP0z3SIyjew0SURgSD+Lu9kMZoXLhwN9O+tukAlrNpJg1SzDH4QW/URgNYgZTkjA4UkwJUgGXng+6DX1zLfmoymdXo17xh5zmRJ6Q42BWCfc2oJfdAr+Yv+AP9Cb7OJ3H/2JG1HNGz/84klThPVCc=);strokeColor=none;points=[];labelBackgroundColor=none;rounded=0;html=1;whiteSpace=wrap;" parent="1" vertex="1">
            <mxGeometry x="735" y="263" width="102" height="37" as="geometry" />
          </mxCell>
        </UserObject>
        <UserObject label="" tags="Background" id="207">
          <mxCell style="vsdxID=126;fillColor=none;gradientColor=none;strokeColor=none;points=[];labelBackgroundColor=none;rounded=0;html=1;whiteSpace=wrap;" parent="1" vertex="1">
            <mxGeometry x="94" y="174" width="46" height="40" as="geometry" />
          </mxCell>
        </UserObject>
        <mxCell id="208" style="vsdxID=127;fillColor=#59b4d9;gradientColor=none;shape=stencil(vVLLDsIgEPwajjQUTBPOVf+DWNoSEZot2vr3gqD2YTz04G13dnZnFwaxsm9FJxElvQN7loOqXIvYHlGqTCtBOR8hdkCsrC3IBuzVVDHvRGCG6GJvYcIY+0jooOQeM84yzp/IMZIFnHwVEnmXkTzyITUUGaEReVFm83KS5o9YjKrHYJ1wypqZthbQSOyVcK1FMyv1g5TdCk67aWUmh/Diq/LWO96br17mD7csxX9QNxJXH+2Dj0VqpXV02LS+tJSHoh3Z4QE=);strokeColor=none;strokeWidth=2;spacingTop=-3;spacingBottom=-3;spacingLeft=-3;spacingRight=-3;points=[];labelBackgroundColor=none;rounded=0;html=1;whiteSpace=wrap;" parent="207" vertex="1">
          <mxGeometry y="9" width="46" height="30" as="geometry" />
        </mxCell>
        <mxCell id="209" style="vsdxID=128;fillColor=#a0a1a2;gradientColor=none;shape=stencil(tZLdDoIwDIWfZpcjg4mRa8T3WGTA4txINwXf3uFAfkQvSLxre76uaXcQTU3Fao4iYizoC29EbitEjyiKhKo4COsiRDNE00IDL0HfVO7zmnVkF131vXuh9X3JvmuJyMOn5JWdPCmFmpC77yCDs1NgAAMSehZ6OIyDhPpSO20no36Iex2zVhgM2jIrtJrRkkHJsRuGC8nKmWQazuuP8uoei9HkBzqI2+D3UpuvtPo5fzmRC0aHFEJKb7CpvnSUK3k30uwJ);strokeColor=none;strokeWidth=2;spacingTop=-3;spacingBottom=-3;spacingLeft=-3;spacingRight=-3;points=[];labelBackgroundColor=none;rounded=0;html=1;whiteSpace=wrap;" parent="207" vertex="1">
          <mxGeometry width="46" height="11" as="geometry" />
        </mxCell>
        <mxCell id="210" style="vsdxID=129;fillColor=#FFFFFF;gradientColor=none;fillOpacity=20;strokeOpacity=20;shape=stencil(vVLREoIgEPwaHnFQ0sZns/9gEpWJxDko8e/DMNO0Xprp7W53j7vjFtFM16zlKCLagDrzThSmRvSAokg0NQdhXIRojmhWKuAVqGtT+Lxlg3KILuo2vGB93S6I06EoIr0HyCM7ei2Dk2Ng0iZeCv0T2IcesfNiMtHJ+LbFzAqNQRlmhGoWYsmg4th1wqVk1YLSHeftCh5nk6LhnzqncUB/2WP1KyEh/9okDRK62XtTPQ22db6l9PupXfDySCmk9Bab8++ecpD3I83v);strokeColor=none;strokeWidth=2;spacingTop=-3;spacingBottom=-3;spacingLeft=-3;spacingRight=-3;points=[];labelBackgroundColor=none;rounded=0;html=1;whiteSpace=wrap;" parent="207" vertex="1">
          <mxGeometry width="40" height="39" as="geometry" />
        </mxCell>
        <mxCell id="211" style="vsdxID=130;fillColor=#FFFFFF;gradientColor=none;shape=stencil(nZBLDoAgDERP0z3SIyjew0SURgSD+Lu9kMZoXLhwN9O+tukAlrNpJg1SzDH4QW/URgNYgZTkjA4UkwJUgGXng+6DX1zLfmoymdXo17xh5zmRJ6Q42BWCfc2oJfdAr+Yv+AP9Cb7OJ3H/2JG1HNGz/84klThPVCc=);strokeColor=none;strokeWidth=2;spacingTop=-3;spacingBottom=-3;spacingLeft=-3;spacingRight=-3;points=[];labelBackgroundColor=none;rounded=0;html=1;whiteSpace=wrap;" parent="207" vertex="1">
          <mxGeometry x="11" y="4" width="31" height="3" as="geometry" />
        </mxCell>
        <mxCell id="212" style="vsdxID=131;fillColor=#59b4d9;gradientColor=none;shape=stencil(lVHREoIgEPwaHnEQtHw3+w8mUZlInIOS/j4InVKnqd7udm/3Fg6x0nR8EIgSY0GfxShr2yF2QJTKvhMgra8QqxArGw2iBX3t69gPPEyG6qJvwcFFXUpI0FByj31eJHnxRI5xnMPJs+DWNIGNYvbM0iSjC9dph8PcSYNBW26l7hec4tAK7LfhRvF2ChcpMwoxbOBP+Xb7Tb4Z+vrmvxOSHxL64vX7jVQqHu+dX1/LQ/HSrHoA);strokeColor=none;strokeWidth=2;spacingTop=-3;spacingBottom=-3;spacingLeft=-3;spacingRight=-3;points=[];labelBackgroundColor=none;rounded=0;html=1;whiteSpace=wrap;" parent="207" vertex="1">
          <mxGeometry x="2" y="1" width="7" height="7" as="geometry" />
        </mxCell>
        <mxCell id="213" style="vsdxID=132;fillColor=#FFFFFF;gradientColor=none;shape=stencil(nZLdDoIwDIWfprdLtzqQa8T3IGHIIjIyhj9vL3MxgkYQ70677zRdeoDSrspbBQI7Z81RXXThKqAdCKGbSlntBgWUAaWlsepgTd8UoW5zT3p1Mmc/4Rp8MmI89i6Bt9DhiI96H/BaNyOcEhbT7zhOULlq8Az8ufQMLCKG08kbzjD+bnj+6E9cblnC16yzYFi80CBe1y11XYdwjN/f0zC0QpIouwM=);strokeColor=none;strokeWidth=2;spacingTop=-3;spacingBottom=-3;spacingLeft=-3;spacingRight=-3;points=[];labelBackgroundColor=none;rounded=0;html=1;whiteSpace=wrap;" parent="207" vertex="1">
          <mxGeometry x="3" y="3" width="6" height="5" as="geometry" />
        </mxCell>
        <UserObject label="" tags="Background" id="214">
          <mxCell style="vsdxID=1180;fillColor=none;gradientColor=none;strokeColor=none;points=[];labelBackgroundColor=none;rounded=0;html=1;whiteSpace=wrap;" parent="1" vertex="1">
            <mxGeometry x="675" y="384" width="33" height="19" as="geometry" />
          </mxCell>
        </UserObject>
        <mxCell id="215" style="vsdxID=1181;fillColor=#feffff;gradientColor=none;shape=stencil(lZHdDsIgDIWfppcSoBp2P+d7LBkTIsLCmD9vL9gLpybT3Z22X5uTU8B6NO2gQfIxxXDSV9slA7gHKa03OtqUFWADWPch6mMMk++oHtpCFnUOl3LhRnuqYpUqW5LfqcOf1YFgZ/0MloIJ/BfeKKa2b/Bu1WnBF/Bv24u44KvM/Agli1ecvXWOvjGff8afW/Q6bB4=);strokeColor=none;points=[];labelBackgroundColor=none;rounded=0;html=1;whiteSpace=wrap;" parent="214" vertex="1">
          <mxGeometry x="5" y="1" width="22" height="17" as="geometry" />
        </mxCell>
        <mxCell id="216" style="vsdxID=1182;fillColor=none;gradientColor=none;strokeColor=none;spacingTop=-3;spacingBottom=-3;spacingLeft=-3;spacingRight=-3;points=[];labelBackgroundColor=none;rounded=0;html=1;whiteSpace=wrap;" parent="214" vertex="1">
          <mxGeometry width="33" height="19" as="geometry" />
        </mxCell>
        <mxCell id="217" style="vsdxID=1183;fillColor=none;gradientColor=none;strokeColor=none;spacingTop=-3;spacingBottom=-3;spacingLeft=-3;spacingRight=-3;points=[];labelBackgroundColor=none;rounded=0;html=1;whiteSpace=wrap;" parent="216" vertex="1">
          <mxGeometry x="8" y="7" width="17" height="3" as="geometry" />
        </mxCell>
        <mxCell id="218" style="vsdxID=1184;fillColor=#4672c4;gradientColor=none;shape=stencil(vZTdboMgFMefhksJAgK97rr3IC0qGRODdLVvPxwuK5rqzMzu4Hxw/uf8wgHk2NWyVQCjzjv7pm764mtAXgDGuqmV0z6cADkBciytU5Wz1+YS760cIofTu/0YXuhjXo7QkIPRPd4LAbH4srzGcOnOweu+wzEkPCa4hwwaTWOQ4JAVyatjjT6Tve4yZ7302jbRdxidRrpKZaFcVhpZjeWiq7sp1c7MTwWymcD8kAh83vR2iegXEo1utow8JUSDfJpOExL8R0QMQSqmKti+lNCyxmJOiSUaFxrfDVOiMcW0PveUk4Ac740J5xDxKSb+v5zWv/u8cbrzb1rAtDr2jeHh8LMrS21MXLWP/uluDaa4l8npEw==);strokeColor=none;strokeWidth=48;spacingTop=-3;spacingBottom=-3;spacingLeft=-3;spacingRight=-3;points=[];labelBackgroundColor=none;rounded=0;html=1;whiteSpace=wrap;" parent="217" vertex="1">
          <mxGeometry width="17" height="3" as="geometry" />
        </mxCell>
        <mxCell id="219" style="vsdxID=1185;fillColor=none;gradientColor=none;strokeColor=none;spacingTop=-3;spacingBottom=-3;spacingLeft=-3;spacingRight=-3;points=[];labelBackgroundColor=none;rounded=0;html=1;whiteSpace=wrap;" parent="216" vertex="1">
          <mxGeometry y="7" width="11" height="11" as="geometry" />
        </mxCell>
        <mxCell id="220" style="vsdxID=1186;fillColor=#50e6ff;gradientColor=none;shape=stencil(vVPbbsMgDP0aHmOBSTPy3HX/gVaSoLEQOWxN/75QUi2ZmmnTpL6Zc7F1ZMzkfuz0YBjyMZB/Myd7DB2TzwzR9p0hG2LF5IHJfePJtOQ/+mN+DzopU/XuP1OHKftqBbs6uZCfM6IUlNUVeckGZ/uFQamVOvqr3VKt6TWyNKtLmOV0vgGVyMitnwCUGy35VOjJjgX5oIP1/czzTDpNrSnivKJxus3cTI0nY4YFLLbzICixGo8SpNhOVEO1TlRDeuIPHQUHLB8WSEgoV+P5tvbO9gWop//s8/6HwofF//OH/oUhFl/301jn8vkt+e/3FqF8q/JwAQ==);strokeColor=none;strokeWidth=48;spacingTop=-3;spacingBottom=-3;spacingLeft=-3;spacingRight=-3;points=[];labelBackgroundColor=none;rounded=0;html=1;whiteSpace=wrap;" parent="219" vertex="1">
          <mxGeometry width="11" height="11" as="geometry" />
        </mxCell>
        <mxCell id="221" style="vsdxID=1187;fillColor=none;gradientColor=none;strokeColor=none;spacingTop=-3;spacingBottom=-3;spacingLeft=-3;spacingRight=-3;points=[];labelBackgroundColor=none;rounded=0;html=1;whiteSpace=wrap;" parent="216" vertex="1">
          <mxGeometry width="11" height="11" as="geometry" />
        </mxCell>
        <mxCell id="222" style="vsdxID=1188;fillColor=#1490df;gradientColor=none;shape=stencil(vVPbcoMgEP0aHt3hooLPafofTILKlIqDpDF/HyxkKra205e8LeecXdjDLmKHqZejQhRP3tk3ddVn3yP2gijVQ6+c9iFC7IjYobVOdc5ehnM8j3JRLtG7/VgqzDFPcOB0yaL4FhEClH8Cr1Fv9LDSNwIqnusJ1PU6QbpTYF1KKEEkvbs9kKT/paZ4PALPhZz1VDjrpdd2SBk4kka6ThXhwqI1sotcoqarUuMKJvs9EQZ1md+P8b6cgqgytWiAk30HAlvmDjTASObAt5K8hoo8zQCBodkYAIzvd/Tjn1ZZR2GuxHau2PO+9L9j/bc+BF871Gpj4gqu+e3OBSjuKzveAQ==);strokeColor=none;strokeWidth=48;spacingTop=-3;spacingBottom=-3;spacingLeft=-3;spacingRight=-3;points=[];labelBackgroundColor=none;rounded=0;html=1;whiteSpace=wrap;" parent="221" vertex="1">
          <mxGeometry width="11" height="11" as="geometry" />
        </mxCell>
        <mxCell id="223" style="vsdxID=1189;fillColor=none;gradientColor=none;strokeColor=none;spacingTop=-3;spacingBottom=-3;spacingLeft=-3;spacingRight=-3;points=[];labelBackgroundColor=none;rounded=0;html=1;whiteSpace=wrap;" parent="216" vertex="1">
          <mxGeometry x="21" y="7" width="11" height="11" as="geometry" />
        </mxCell>
        <mxCell id="224" style="vsdxID=1190;fillColor=#50e6ff;gradientColor=none;shape=stencil(vVPLbsMgEPwajl7xio3PafofKME2KjUWJk3y94USVIjkSLnktrvMzO5IDGL7dZKLQhSv3tkvddEnPyH2gSjV86Sc9qFC7IDYfrBOjc6e51PqFxmRsfq2P1HhmniihTaSKL6lAf7rPhPW6LnA9h2QvgITDJSXBOmO4dVlQtZ2tzyILX0mSRkwcsc08qrXxlkvvbbznZEOxEa6UTVhXzMYOZa34/Wi1FKMybYlIqBj1f5eQLvbtsRB1JZ49pgVCfTdhuJbHAGvtgsBnLzmh9SGHgUJCPE2O6/8z+fYUPyHYNDGpAyV74+hCaMUOHb4BQ==);strokeColor=none;strokeWidth=48;spacingTop=-3;spacingBottom=-3;spacingLeft=-3;spacingRight=-3;points=[];labelBackgroundColor=none;rounded=0;html=1;whiteSpace=wrap;" parent="223" vertex="1">
          <mxGeometry width="11" height="11" as="geometry" />
        </mxCell>
        <mxCell id="225" style="vsdxID=1191;fillColor=none;gradientColor=none;strokeColor=none;spacingTop=-3;spacingBottom=-3;spacingLeft=-3;spacingRight=-3;points=[];labelBackgroundColor=none;rounded=0;html=1;whiteSpace=wrap;" parent="216" vertex="1">
          <mxGeometry x="21" width="11" height="11" as="geometry" />
        </mxCell>
        <mxCell id="226" style="vsdxID=1192;fillColor=#1490df;gradientColor=none;shape=stencil(vVNBcsMgDHwNR2sAOYDPafoPpsE2U9d4MG2S3xcKnZpOk2kuuYnVrsSCRHC/jnoxhNM1ePdqTvYYRoJPhHM7j8bbECOCB4L73nkzePc+H/N50YmZojf3kSqcs66TQGVScXrJiOpA8i/kOQsmO28ESgBiJWCUXqczaHnNVoDtlq/9S8z6wm9Blev4yzciREaulmQgd4XS6LNdG++CDtbNxWO+H520H0wT+zX9pIecK6n1ZMyygdkNRxx4/WIMUNzpaFc76oDh3yUf4SjOAFNVeymgvfFJcUKwttQBVo5SydpRHCvBH2npvrH+hyAGP1vU22nKS7jN/966COWNxcMn);strokeColor=none;strokeWidth=48;spacingTop=-3;spacingBottom=-3;spacingLeft=-3;spacingRight=-3;points=[];labelBackgroundColor=none;rounded=0;html=1;whiteSpace=wrap;" parent="225" vertex="1">
          <mxGeometry width="11" height="11" as="geometry" />
        </mxCell>
        <UserObject label="" tags="Background" id="227">
          <mxCell style="vsdxID=217;fillColor=none;gradientColor=none;image;aspect=fixed;image=data:image/png,iVBORw0KGgoAAAANSUhEUgAABqYAAAODCAYAAADetLAsAAAAAXNSR0IArs4c6QAAAARnQU1BAACxjwv8YQUAAAAJcEhZcwAAEnQAABJ0Ad5mH3gAAHBxSURBVHhe7d3NseRG1iboEIEaTFpLkAL0okTI3WwpAs0gQFOEFGAWXIwAuZ1efSJQBGrQtFCg5ngxo75L1Lk3I4DjDg/Es3iMVecG3B2Iv4S/Acfln//8JwAAAAAAAHSXFgEAAAAAAKBaWgQAAAAAAIBqaREAAAAAAACqpUUAAAAAAAColhYBAAAAAACgWloEAAAAAACAamkRAAAAAAAAqqVFAAAAAAAAqJYWAQAAAAAAoFpaBAAAAAAAgGppEQAAAAAAAKqlRQAAAAAAAKiWFgEAAAAAAKBaWgQAAAAAAIBqaREAAAAAAACqpUUAAAAAAAColhYBAAAAAACgWloEAAAAAACAamkRAAAAAAAAqqVFAAAAAAAAqJYWAQAAAAAAoFpaBAAAAAAAgGppEQAAAAAAAKqlRQAAAAAAAKiWFgEAAAAAAKBaWgQAAAAAAIBqaREAAAAAAACqpUUAAAAAAAColhYBAAAAAACgWloEAAAAAACAamkRAAAAAAAAqqVFAAAAAAAAqJYWAQAAAAAAoFpaBAAAAAAAgGppEQAAAAAAAKqlRQAAAAAAAKiWFgEAAAAAAKBaWgQAAAAAAIBqaREAAAAAAACqpUUAAAAAAAColhYBAAAAAACgWloEAAAAAACAamkRAAAAAAAAqqVFAAAAAAAAqJYWAQAAAAAAoFpaBAAAAAAAgGppEQAAAAAAAKqlRQAAAAAAAKiWFgEAAAAAAKBaWgQAAAAAAIBqaREAAAAAAACqpUUAAAAAAAColhYBAAAAAACgWloEAAAAAACAamkRAAAAAAAAqqVFAAAAAAAAqJYWAQAAAAAAoFpaBAAAAAAAgGppEQAAAAAAAKqlRQAAAAAAAKiWFgEAAAAAAKBaWgQAAAAAAIBqaREAAAAAAACqpUUAAAAAAAColhYBAAAAAACgWloEAAAAAACAamkRAAAAAAAAqqVFAAAAAAAAqJYWAQAAAAAAoFpaBAAAAAAAgGppEQAAAAAAAKqlRQAAAAAAAKiWFgEAAAAAAKBaWgQAAAAAAIBqaREAAAAAAACqpUUAAAAAAAColhYBAAAAAACgWloEAAAAAACAamkRAAAAAAAAqqVFAAAAAAAAqJYWAQAAAAAAoFpaBAAAAAAAgGppEQAAAAAAAKqlRQAAAAAAAKiWFgEAAAAAAKBaWgQAAAAAAIBqaREAAAAAAACqpUUAAAAAAAColhYBAAAAAACgWloEAAAAAACAamkRAAAAAAAAqqVFAAAAAAAAqJYWAQAAAAAAoFpaBAAAAAAAgGppEQAAAAAAAKqlRQAAAAAAAKiWFgEAAAAAAKBaWgQAAAAAAIBqaREAAAAAAACqpUUAAAAAAAColhYBAAAAAACgWloEAAAAAACAamkRAAAAAAAAqqVFAAAAAAAAqJYWAQAAAAAAoFpaBAAAAAAAgGppEQAAAAAAAKqlRQAAAAAAAKiWFgEAAAAAAKBaWgQAAAAAAIBqaREAAAAAAACqpUUAAAAAAAColhYBAAAAAACgWloEAAAAAACAamkRAAAAAAAAqqVFAAAAAAAAqJYWAQAAAAAAoFpaBAAAAAAAgGppEQAAAAAAAKqlRQAAAAAAAKiWFgEAAAAAAKBaWgQAAAAAAIBqaREAAAAAAACqpUUAAAAAAAColhYBAAAAAACgWloEAAAAAACAamkRAAAAAAAAqqVFAAAAAAAAqJYWAQAAAAAAoFpaBAAAAAAAgGppEQAAAAAAAKqlRQAAAAAAAKiWFgEAAAAAAKBaWgQAAAAAAIBqaREAAAAAAACqpUUAAAAAAAColhYBAAAAAACgWloEAAAAAACAamkRAAAAAAAAqqVFAAAAAAAAqJYWAQAAAAAAoFpaBAAAAAAAgGppEQAAAAAAAKqlRQAAAAAAAKiWFgEAAAAAAKBaWgQAAAAAAIBqaREAAAAAAACqpUUAAAAAAAColhYBAAAAAACgWloEAAAAAACAamkRAAAAAAAAqqVFAAAAAAAAqJYWAQAAAAAAoFpaBAAAAAAAgGppEQAAAAAAAKqlRQAAAAAAAKiWFgEAAAAAAKBaWgQAAAAAAIBqaREAAAAAAACqpUUAAAAAAAColhYBAAAAAACgWloEAAAAAACAamkRAAAAAAAAqqVFAAAAAAAAqJYWAQAAAAAAoFpaBAAAAAAAgGppEQAAAAAAAKqlRQAAAAAAAKiWFgEAAAAAAKBaWgQAAAAAAIBqaREAAAAAAACqpUUAAAAAAAColhYBAAAAAACgWloEAAAAAACAamkRAAAAAAAAqqVFAAAAAAAAqJYWAQAAAAAAoFpaBAAAAAAAgGppEQAAAAAAAKqlRQAAAAAAAKiWFgEAAAAAAKBaWgQAAAAAAIBqaREAAAAAAACqpUUAAAAAAAColhYBAAAAAACgWloEAAAAAACAamkRAAAAAAAAqqVFAAAAAAAAqJYWAQAAAAAAoFpaBAAAAAAAgGppEQAAAAAAAKqlRQAAAAAAAKiWFgEAAAAAAKBaWgQAAAAAAIBqaREAAAAAAACqpUUAAAAAAAColhYBAAAAAACgWloEAAAAAACAamkRAAAAAAAAqqVFAAAAAAAAqJYWAQAAAAAAoFpaBAAAAAAAgGppEQAAAAAAAKqlRQAAAAAAAKiWFgEAAAAAAKBaWgQAAAAAAIBqaREAAAAAAACqpUUAAAAAAAColhYBAAAAAACgWloEAAAAAACAamkRAAAAAAAAqqVFAAAAAAAAqJYWAQAAAAAAoFpaBAAAAAAAgGppEQAAAAAAAKqlRQAAAAAAAKiWFgEAAAAAAKBaWgQAAAAAAIBqaREAAAAAAACqpUUAAAAAAAColhYBAAAAAACgWloEAAAAAACAamkRAAAAAAAAqqVFAAAAAAAAqJYWAQAAAAAAoFpaBAAAAAAAgGppEQAAAAAAAKqlRQAAAAAAAKiWFgEAAAAAAKBaWgQAAAAAAIBqaREAAAAAAACqpUUAAAAAAAColhYBAAAAAACgWloEAAAAAACAamkRAAAAAAAAqqVFAAAAAAAAqJYWAQAAAAAAoFpaBAAAAAAAgGppEQAAAAAAAKqlRQAAAAAAAKiWFgEAAAAAAKBaWgQAAAAAAIBqaREAAAAAAACqpUUAAAAAAAColhYBAAAAAACgWloEAAAAAACAamkRAAAAAAAAqqVFAAAAAAAAqJYWAQAAAAAAoFpaBAAAAAAAgGppEQAAAAAAAKqlRQAAAAAAAKiWFgEAAAAAAKBaWgQAAAAAAIBqaREAAAAAAACqpUUAAAAAAAColhYBAAAAAACgWloEAAAAAACAamkRAAAAAAAAqqVFAAAAAAAAqJYWAQAAAAAAoFpaBAAAAAAAgGppEQAAAAAAAKqlRQAAAAAAAKiWFgEAAAAAAKBaWgQAAAAAAIBqaREAAAAAAACqpUUAAAAAAAColhYBAAAAAACgWloEAAAAAACAamkRAAAAAAAAqqVFAAAAAAAAqJYWAQAAAAAAoFpaBAAAAAAAgGppEQAAAAAAAKqlRQAAAAAAAKiWFgEAAAAAAKBaWgQAAAAAAIBqaREAAAAAAACqpUUAAAAAAAColhYBAAAAAACgWloEAAAAAACAamkRAAAAAAAAqqVFAAAAAAAAqJYWAQAAAAAAoFpaBAAAAAAAgGppEQAAAAAAAKqlRQAAAAAAAKiWFgEAAAAAAKBaWgQAAAAAAIBqaREAAAAAYGbLsvwj/Bx+/e5b+K/E7e/Nl/CPrD0AxkiLAAAAAACzWJblp9BCqN/CH+GfBVo7rb0WVv2U9QtAvbQIAAAAAHCkFhaFFka1q56yYKmSq6gABkmLAAAAAABHWP4KpNqye39+D41GEEwBDJIWAQAAAABGWo4JpG4EUwCDpEUAAAAAgFFaMBSq7h21hWAKYJC0CAAAwDbLsnxuk1vtv9nfAYC/i+/MryELi0YSTAEMkhYBAAC4z7IsX8Jv4b1febfliL6Fn7PtAeBVxXdjW7rv95B9f44mmAIYJC0CAADwseWvQOrRJYdaSCWgAuDlxfdhu8L4yKX71gRTAIOkRYAZXb/8j/87/AIb/F/Za+pH/tf/vvxf4RfY4H9mrylqLf+9XNpRfsrGxd+147Q6biN1eY5au6FdIZVNat3rv4LXEAAvKb4D27/j2o81su/IowimAAZJiwAzun75H/8n/BM2+CV7Tf3I94Dhn7DBf2WvKWotf03sZ5MKo7jq5Q7tOK2O20jlE0zRZuWSQ60d4RQALyW++2YMpRrBFMAgaRFgRlfBFNsJphhNMDXAcnww5Xm+QxynI+8b0SOYqt4f4RQAL6N954WZlu97SzAFMEhaBJjRVTDFdoIpRhNYDLAcH0w1n7Kx8Zc4Pm05vey4jVI6wRTtfV21X+Vr1h8AnE185x35g5UfEUwBDJIWAWZ0FUyxnWCK0QRTAyxzBFMChQ/E8dl7H6a9yiaYWlurtquZDAPg1OK77tfVd99sfBcDDJIWAWZ0FUyxnWCK0QRTAyxzBFN/ZGPjX89PW6onO2YjVQZT31ZtV/uW9QsAZxDfc0dfRX0PwRTAIGkRYEZXwRTbCaYYTTA1wDJHMNV8ycb36uK4/LI6TkcomWCKdkaFbJaGBOCU4jtu5iX8bgRTAIOkRYAZXQVTbCeYYjTB1ADLPMGUK10ScVxmuLF5VTD1ZdVuLz9n/QPAM4vvtxl+rHIPwRTAIGkRYEZXwRTbCaYYTTA1wDJPMNW40uWNOB6zLNdTFUyNuifGr1n/APCs4rutXXX855vvupkJpgAGSYsAM7oKpthOMMVogqkBlrmCqU2fM2cVx6P3/Zju9WzB1G9Z/wDwrOK77efVd11v7Yrt30K7Sqv9UGat1b+GbGnBocFU9Pc5WBIaeElpEWBGV8EU2wmmGE0wNUCcyM8UTP2RjfEVxbH4tDo2R3q2YMpnBwCnEt9to5b2bT+Keeh7Px7f/s3SvuNvY+weTLU+QgvGbn367gdeUloEmNFVMMV2gilGc4I5QDuR/35CP4uhv7KdVRyHUSHOPZ4tmPqa9Q8Azyi+11oIk33fVWrLBO7+vo822pVd5UszR5ttKcPWdruKK1vS0HkD8JLSIsCMroIpthNMMZoTzAHaifzqxP5olmELcRxG/TL6Hs8WTLnHFACnEd9rLYzJvu+qtOX4fsr6PlKMqV2J1ZYMvGdpY+cNwEtKiwAzugqm2E4wxWhOMAdoJ/KrE/sZTDc5MlLs/5fV8ThaVTA14hffjftMAHAa8b2WXSFUpbU9zb+7YiztflHv3bvqI84bgJeUFgFmdBVMsZ1gitGcYA7QTuRXJ/Yz+Dkb66uI/T/t8orRVs/JtWaqCTYA2CO+01pQk33fVSn7jt8qxtB+kNOuCttztbjzBuAlpUWAGV0FU2wnmGI0J5gDtBP51Yn9DH7PxvoKYt/bsjXZMTlSZTDVezk/S0ECcBrxvdaWssu+7yoc8p0Z/d7uF3XPEn33ct4AvKS0CDCjq2CK7QRTjOYEc4B2Ir86sZ/F52y8Zxf73ZavyY7HkSqDqTYZ1euqqdZu+Q3XAeAo8b3W8/5Sh3xnJuOo4LwBeElpEWBGV8EU2wmmGM0J5gDtRH51Yj+Lr9l4zy72u/dSd1uULvMT7fW6h9ZLLwEJwPnEd9uj91q612H/zk7GUsF5A/CS0iLAjK6CKbYTTDGaE8wB2on86sR+Fn9m4z2z2Oe2rE12LI5Wfv+JaLP6yjBL+AFwOsn3XZVN53YVkrFUcN4AvKS0CDCjq2CK7QRTjOYEc4B2Ir86sZ/JS10BE/s763PR5cbo0W7V/aZe8uo6AM4tvt/a8rfZ916Fw5ZMTsZSwXkD8JLSIsCMroIpthNMMZoTzAHaifzqxH4mL/MaiH39vNr3mXQJpppouy3rt3X5wrbdl6xdAHh28R33jzffeaXWfY2UjaeA8wbgJaVFgBldBVNsJ5hiNCeYA7QT+dWJ/WwOuTH3aLGfPW9uvle3YKqJ9tsvwtvVU3987+9H2uPa43/K2gOAM4jvuV7B1KH/xk7GU8F5A/CS0iLAjK6CKbYTTDGaE8wB2on86sR+Nr9m4z6T2McWzGy9amiErsHUW62v0EKnFtS11+ZN+/+tPmwsAHCk9p0Xsu/lvQRTACeRFgFmdBVMsZ1gitGcYA7QTuRXJ/az+SMb95nEPv682ufZCIMAYLD2/bv6Pq5y6I9+kvFUcN4AvKS0CDCjq2CK7QRTjOYEc4B2Ir86sZ/Rqe8jFPt37xJ2RxFMAcBg7ft39X1cRTAFcBJpEWBGV8EU2wmmGM0J5gDtRH51Yj+jb9nYzyD2rdekUyXBFAAM1r5/V9/HVQRTACeRFgFmdBVMsZ1gitGcYA7QTuRXJ/az+ikb/7OL/Wr3Tsr2dyaCKQAYrH3/rr6PqwimAE4iLQLM6CqYYjvBFKM5wRygncivTuxntekzaGaxTz+t9nFWgikAGKx9/66+j6sIpgBOIi0CzOgqmGI7wRSjOcEcoJ3Ir07s9/o9/LmqVfgjG/8zi336ZbWPe7T7VLVjn/1tL8EUAAzWvn9X38dVBFMAJ5EWAWZ0FUyxnWCK0ZxgDtBO5Fcn9nu19notT/c524dnFfvTwqRsP7f4NfS6+k0wBQCDte/f1fdxFcEUwEmkRYAZXQVTbCeYYjQnmAO0E/nVif1erb3Pq1qV37J9eEaxL19W+7bXpyCYAoCTaN+/q+/jKoIpgJNIiwAzugqm2E4wxWhOMAdoJ/KrE/u9/vW8xX97LCvXlgj8ab0Pzyj249ub/drr2/c2BVMAcBLt+3f1fVxFMAVwEmkRYEZXwRTbCaYYzQnmAO1EfnViv9ctmPp5Va/y83ofnk3sQ7u6Kdu3rf51TOK/gikAOIn2/bv6Pq4imAI4ibQIMKOrYIrtBFOM5gRzgHYivzqx3+sWTP0U2hVO2WP2+H29D88m9qHdDyrbty3+fNOuYAoATqJ9/66+j6sIpgBOIi0CzOgqmGI7wRSjOcEcoJ3Ir07s9/r38xb/+7fV36p8ersPzybG/8dqf/b4+qZdwdTJxLFvV9e1iclfQgs0v4b2PK+1ELgtn7mut22a1sZTv2+4T3uevz/f7arV2/PfrF8bb719XLv/Xdv+FMum9hLHZ/3ebMuzro9r9r5sj7sd67b956z9V9KOwfdjcTuWzXufdc3bY3g7jqf8nvq+b9n38l6CKYCTSIsAM7oKpthOMMVoTjAHaCfyqxP7vd4GU9VL1t38O4x5NjH26iUO/x02xP+ufi5vBFMDxHFu75cWCtwmZLPnYq82Ud7a/tdkbjaOV9D2/fsxaMfiR/fDa3+/TYRPFSLEeG770cbX475+TTtG7TXZPrteNtyMfW/hSQtO2rHucjVwaD/maH2cNWRpV1K3z7jbe6/yRxo3bz/jWl9PHbDG+AVT93PeALyktAgwo6tgiu0EU4zmBHOAdiK/OrHf62/PW/v/q79X+Pfydc8mxl55PEYc66Z0krS1F9qkYbWnmzSPMbfJ7jbp3ytUuEebaG+hQ/kEbrTZwrbsudrr4ec6tmmT1G3if2+ocNiEbvTdjmcLLnq91+/RwoT2mv2SjfFMYh9v788eAco92vPcnu+nDQRj7DN8xrW+2+fGIcFy9LvnO6/XlefttZX1N0o2pr3a+zTra6+XDeSB55AWAWZ0FUyxnWCK0QRTA8QJd/UE5zosqb5C6ObpJkVjzNVXkP28av9Zgqk20ZP1s9dTXGUQ42yvgyMnuz/yr5AqG/cW0VavX/vf/VzHY9tnUOWxHhpMRX+3MOrIif33tJCvvZZPtRxd7E97zcx2vNt42utg+iuAYoxHB3ofaWMaGvZFX72+8xjjlFcwAueRFgFmdBVMsZ1gitEEUwPECXfXYOp7Hz2WPfq27md2MeY2UZftyxb/cdVY1ARTSX+zaOMLLfjJxj6b9p5tz9OuSfDY/rBgKh7TJsd7vCeGBFPRzzO9Xpp2rJ96AjfGXx1i9nDoEmwfibHNGOh9pF2N1D2gij4EU89NMAVMLS0CzOgqmGI7wRSjCaYGiBPuEcFUZSDz1lMtrxLjrQzo/uM+W1ETTCX9Ha2NK/R6bnrbtWxmbH9IMBV/b1dEZNtV6BoMRPvP/Hppni6gauMNzxKoTBdMxZieIdD7SNeAKtoWTD03wRQwtbQIMKOrYIrtBFOMJpgaIE64RwRT1UvY3Uz7y/G1GGubuMv2Yav/mESLmmAq6e8oMZ72un/mgOFf1vv1iNh+eDAVf+t1T5abLp870e4pXi9vtH2Z/scDMcZeP5zoZZrvvRhLu2/bMwdSa+210ONee4Kp5yaYAqaWFgFmdBVMsZ1gitEEUwPECXf3YKpTP80fWV8zirFW/hp/5DFuBFMPirGcZiJyvW+PiO2HBlNR7x1KNaXBQLT3U2vzTftn0q4S3fTvx95iXC0IfKZl524OD6ZiDO3YPdMyk49oQduzfOcxhmAKmFpaBJjRVTDFdoIpRhNMDRAn3KOCqeorhm6mnzCIMbZ73WRj3+rnd/oRTCX9jRRjaM/1M052v2u9j4+I7YcFU1EbEUo1ZcFAtHW618s72mdT+ZUoW8VY2nHvce/DEQ4NpqL/9l3+rMfuEf+xXO5W0ZZg6rkJpoCppUWAGV0FU2wnmGI0wdQAccI9JJhq4m89JrN+y/qaSRvjasx7vHvPn/ibYCrpb5To/5QTtuv9fERsPySYiv8/cjm2kmAg2ul5H6wZtffG5+xYjBRj6PUjiVEOCaai33Zl36jwdxYtNN4dqEYbgqnnJpgCppYWAWZ0FUyxnWCK0QRTA8QJ98hgqtfkzDS/xF9rYwuVYcW7QVz8TTCV9DdC9P1s96m523pfHxHbdw+m4n+3+9xkj+lldzAQbbzaBP9b6RWfI7S+V2N5RsODqeizfY+9wpV9md2BamwvmHpugilgamkRYEZXwRTbCaYYTTA1QJxwjwym2n0psm32mvIeJk2MrXoi9N0JsvibYCrpr7fo99Qhw3p/HxHbdw2m4r/Vwe89NgcDse0rT/C/NTycij57vRZHGxpMRX/PvOxhlV3hVGwrmHpugilgamkRYEZXwRTbCaYYTTA1QJxwDwummvh7jxum/571NYMYW7uRejbmLT7cz/i7YCrpr6fo8/RXvqz3+RGxfe9g6ojjvykYiO2EUn83LJyKvtqPIs4SrgwLpqIvodR/2xxOxXaCqecmmAKmlhYBZnQVTLGdYIrRBFMDxAn36GCq17Jbh9+7ZC3GVD0p/+FEbvxdMJX010v09xLLsa33+xGxfbdgKrRJ8+xvvT0cDMQ2QqnckHAq+jnTsR8STEU/Qqn/tCmcim0EU89NMAVMLS0CzOgqmGI7wRSjCaYGiBPuocFUE4+pvIro5t17Lx2ljWk1xj3ahNiH99KKvwumkv56iL5eIpRq1vv+iNi+ZzDV4+rLezwUDMTjhVIf6/q+jfbPFgp0D6aiD6HU+374XbwWjxdMPTfBFDC1tAgwo6tgiu0EU4wmmBogTriPCKZ6TNL8mfV1lBhPm4zOxrnVD4O3eIxgKumvWvTzUpOM6/1/RGzfK5iqvnfbIx4Npl4mxNyoTfR/yo7dXq3dN/2cRddgKtoXpP7YQ8sHx+MFU89NMAVMLS0CzOgqmGI7wRSjCaYGiBPuI4KpXpOFw2+o/54Yyy+rse31w+WD4jGCqaS/StFHr6Uop7U+Bo+I7XsFUz2uurzX3cFAe+xqW3Jd7hMY7Z4xFOwdTPX6Hjmbr9nxy8RjfQ48N8EUMLW0CDCjq2CK7QRTjCaYGiBOuIcHU008rscyXNO8ZmIslRPnd03axuMEU0l/VaL9Fqi+3PJW6+PwiNi+VzB1pLuCgXjcGfe9p7sn+u8R7R1xtVS70qh9Dn8N7XPupn3ftXrF90K3YKq1veqLj33JjuNaPM5xfW6CKWBqaRFgRlfBFNsJphhNMDVAnHAfFUz1mrTtsiTUI2IM1VfV3HUlWDxOMJX0VyXan2l5qzaWNtl9m/huV+i191TT/vetvnsyfH0cHhHbv2QwFY9py6HNEGK2MbTXQHN7Tbx1+1u27RHK3sPRVguHsj4qtePbrsq6K6C4icff3qftPfzo66RLMBXtzvJebZ9X7TX59vPtpj2n7W+zfBa35+6H95uKx7SxZ9vzHARTwNTSIsCMroIpthNMMZpgaoA44a6elLz7eYvH9liOq/RX91vEGCqvBrtr4quJx/WaYH75YCraPnpisU3EtjFs2sfYrgUlLTBtk+gPTYSv23pEbP+qwVTlZ8AjbkFJuwfXQyF9e/z37baEJVX+yMa2RbTVex/a+/Guz+YfiXZu782sn7XyYCrabJ8PPb6P79H6bYFTOwYPHc94/OfQAr4jw9V77v8omHpugilgamkRYEZXwRTbCaYYTTA1QJxwHxlMVd+HqSmb2Nwi+q9ePuqHk1438VjBVNLfXtFum/zM+uutTay3CdvyqwCjzTYJfFd4st72EbH9jMHU7YqM9XJrrdb8KND4MBiIv1dfMXmPNu6ye+xFWy2oaCHVEWHF7uAl2uj5umuvjx/e82+LaPee494jmBpxddlaC+LKPrOjrfbd297HR4Sq3YKL1vaqryrlr6NHJOOp4LwBeElpEWBGV8EU2wmmGM0J5gDtRH51Yr/XI8FUm4TL2tjroWWVKkXf1aHL3ROg8djq5/Lm1YOp0ctGtYnVdoxKrsb4SPTRJnM/vFJjvc0jYvuZlgdrQfhdIV97XGgBQXZsfhRMjQxzWl/dJsWbaL8dh5GT/a2vXa/92L5n0NIllFqLftp7J/tMLw0Uor3RwXvbp25L7kbb7d8Vvb5j3tPt36vRtmDqfs4bgJeUFgFmdBVMsZ1gitGcYA7QTuRXJ/Z7PfS8xePvXb7oEd+yvkaIvisnpR+6+iseL5hK+tsj2myT8llfvbSrmIbfJ631GdL34vqxj4jtjw6mdgc3sf36KpZ3J3Tb374/ZoRhy5ZGX+0YjFyecNekeWzf67Nw+GR+9LkOqKqDqV7Haq0FjmVX9f1I9NUCt5E/Kuj1wwjB1P2cNwAvKS0CzOgqmGI7wRSjOcEcoJ3Ir07s93o0mOo16XLE5H51iPHQ5248XjCV9LdVtNcm40ddKTJ00vY9MYb2fvzbZO76MY/43t7b/RypfOI12mxXXaXvy6iPer20Pg65KjT67bH8aqbt4+arplZtVep+FeN7ou/blWtlr+toa9T7s32mDLnS7K3os70ne/z4JdPl36zRrmDqfs4bgJeUFgFmdBVMsZ1gitGcYA7QTuRXJ/Z7Pfy8xTY9lr7a9Jm1R/RZfSwfvRG8YCrpb6tob9TVL22yefik7UdiPC2A+FfIsv7bI2L7I4KpQ4Kb6HPE6+Xw10r0P+oqwk0T57FdCyOy9vY6/N8kMYa2b2Wfc22fvu9bTy2UOizQa6L/UeFU6XdQ09pc9VFFMAVwEmkRYEZXwRTbCaYYzQnmAO1EfnViv9eWYKrHr/AfWgZvr+ivLYWWjWOr37J+PhLbCKaS/raItkZd/XL4pO17YlztNf179rd7xfajg6lDgpvoc8Tr5fBQ6ibGMSKc+jPr+0diu1NO5FeL/Rnx3pzm8y3GMSKcevh7+0eiTcHU/Zw3AC8pLQLM6CqYYjvBFKM5wRygncivTuz32hJM9fqFe/mvl98TfVXfbP/hscc2gqmkvy2irRFLlk0bSlWJ/RsdTB0S3ES/I4KaQ5bve0+MZ8QVYg/vc2wjmLpD7E/voKYFqcOX1P1IjKd95mZjrVT6mR7tCabu57wBeElpEWBGV8EU2wmmGM0J5gDtRH51Yr/XpucttusxSVb+6+X3RF+VV0tsutorthNMJf1tEW31WF7yrWmufukp9nFkMHXYPbqi794T3lOGIjGuXp85N9+yfj8S2wimfiD2pdePQd4q/d6oEGMacWVj6TLC0Z5g6n7OG4CXlBYBZnQVTLGdYIrRnGAO0E7kVyf2e20Npj6v2qnQJqC6X5ESfVRfLbHp8za2E0wl/T0q2vmyareH6SZte2j7udrvXh4OMKpE3z0+u97atZxiTzG26iVMMw99hsfje73mTvNvktiX3leEfs36nUGMrffVjaXv12hPMHU/5w3AS0qLADO6CqbYTjDFaE4wB2gn8qsT+702P2+xbY+rDrpfRRF9VI97U5gW2wmmkv4eFe18W7Vb7TRXXvxI7OuIYGpIAP2e6Lt6Gc+1qUPMGF/vJf0e+gyPx/d6zW2659WMYl96XuF36PvxHjG+3lf6lS1hGG0Jpu7nvAF4SWkRYEZXwRTbCaYYzQnmAO1EfnViv9eeYKrHL5m7Xm0Q7VdfLbF5+cHYVjCV9PeIaKP3ElfTXv3SQ+zviGDq6AnWnss+DluOdKsYY+/l0R46BvH4nq+5qe7ztUXsQ++r3A5bUvNeMcben0tlxyDaEkzdz3kD8JLSIsCMroIpthNMMZoTzAHaifzqxH6vPcFUrwnObvfyibar7421OVyJbQVTSX+PiDZ6L/NUeixn1/Z3tf/Vjr5aqvcyfmVXXvQU4+x51dhDVyrF43u+5p4+WI596LmM36b7Ix4hxtrzqrGypUWjLcHU/Zw3AC8pLQLM6CqYYjvBFKM5wRygncivTuz32vW8xfbVQU/T5X4X0W51kLZrUi+2F0wl/T0i2ui5jN/LfabFPvcOpg69oij67znJ/zSvlxhr76tw7v5xQTy291WP01/F9pEYf8/PuKdZpjTG2vNHCGXLPkZbgqn7OW8AXlJaBJjRVTDFdoIpRnOCOUA7kV+d2O+1N5jqcQVCl3uDRLvVE1ubPmdvYnvBVNLfI5I2K73U1VJN2+fVMajW7WrIe0T/PSf5p18S7a0Yb88rUB76bEy2r/a04VSMveeyi09xhV8TY+0dYJZ8NkU7gqn7OW8AXlJaBJjRVTDFdoIpRnOCOUA7kV+d2O+1+3mLNnpMcJZP8kab1feW2bUkWWwvmEr6u1fbftVepZf8PIv97nlMD182LMbQa5K/S5jeU4y559Vjj95nqtdn4Vutj6cJYpoYb8+lJ8uWrxuljXm1D5VK/s0R7Qim7ue8AXhJaRFgRlfBFNsJphjNCeYA7UR+dWK/V0Uw1WOJndJJs2iverJo9/iiDcFU0t+9Yvte42qe6uqXKrHfPYOpo5fx6znJ/3RX5MSYey7n99C9neLxPd/La62vw+5z9ogYZ8/w8Ok+49qYV/tQqST4iXYEU/dz3gC8pLQIMKOrYIrtBFOM5gRzgHYivzqx36simKq+d9NN2a/bo63qe2F9yfp5RLQhmEr6u1ds3+v4tdfyU0xcV4v97hlMHToR3vpfjafSUwaZMe7qq0j/bd3XR+LxX9bbd9be49MHVDG+HvdwvHmqq8eaNubVPlQq+TdstCOYup/zBuAlpUWAGV0FU2wnmGI0J5gDtBP51Yn9XlWTMV9X7Vao+gVz9b0pSpYki3YEU0l/90raq/J0S1xViX3vGUwdOhEe/fe8KufpJvmbGHfPpdEeOibx+J73UnrP1AFVjKvXd8Thy2puFWPv9Tqp+l4XTN3PeQPwktIiwIyugim2E0wxmhPMAdqJ/OrEfq+qYKrHL5mrJoqql0OqCswEU0l/94htey7L9pLL+DWx792CqXVfo8UYer3fnu7+Ujcx9p5h3UPv73h8z6uD7tH6/5yN7Sir8VV6uqUnb2Lsvd7H0Xze5yOiHcHU/Zw3AC8pLQLM6CqYYjvBFKM5wRygncivTuz3KnveWlurtitULJlXvVxVydUR0Y5gKunvHrFtz6W/nvLqlwqx770mVQ//fogx9Fq27mm/+2LsPa+Qeyjgjcf3XKbtEe1z+fBwOsbQ83gcGnLs0ca+2pdKuz/7ow3B1P2cNwAvKS0CzOgqmGI7wRSjOcEcoJ3Ir07s96oMpnrcw2XXL7tj++oAo2yZt2hLMJX0d4/YtteYnvbqlwqx/70mVQ9fHjEZU5VnnuTveeXhw8cltun1mbhFWzKuLVF7SFAd/fYMDUu/I0aKsVdfAf3W7uPS2li1WUUwBXASaRFgRlfBFNsJphjNCeYA7UR+dWK/V+nzFu31uP/D5vt/xLbV91DZfQXXTbQlmEr6u0ds22vZr5f+HIv9P+ukavV95t7a9O+tWST7U2VLMDXLVVNr7XtkaJgT/fX4ocfNVEsWPiLGPnVg19pYtVlFMAVwEmkRYEZXwRTbCaYYzQnmAO1EfnViv1d1MNV+YZ71s8emz7PYrnqSs/SG8dGeYCrp7x6xba9j9zXr71XE/p91UnXqyewjJftTZdNVcrFdz6Xa9mqfO0Oe7+in23FY9/VMYvw938u7Q+ZoQzB1P+cNwEtKiwAzugqm2E4wxWhOMAdoJ/KrE/u9qoOpHr943xQIxXbVE3ulE0PRnmAq6e8ese3vq7aqHDr5d7TY/16Tqofesyf6F0y9I8bf63No83dLbNvr/V2le0AV7Qum3pHtU5Hdn//RhmDqfs4bgJeUFgFmdBVMsZ1gitGcYA7QTuRXJ/Z7lT9vrc1VHxUeXnootvlj1cZepfcaifYEU0l/90jaqlK2VOMziv3vNal6aHgT/Vffa+6tzUuNziDGP2Mw1X7g0GNZ2GptSdEuz3+02+Pq4+bp/62W7FMVwdQ7kvFUcN4AvKS0CDCjq2CK7QRTjOYEc4B2Ir86sd+rRzDVYxL4t6yv98Tjq+/PsWlZqo9Em4KppL97JG1VOTRAOVrb/9XxqHJ0MOXqk3fEPkwXTDWx/efwDOFUG+PuJeDWos0pn5cZJPtURTD1jmQ8FZw3AC8pLQLM6CqYYjvBFKM5wRygncivTuz36vK8RbvVVyu1yb+7f5kej60+TuVX0kSbgqmkv3skbVURTOXHZS/B1KRiH6YNQKKNZwmnmnYcy66e+t5e1s9egqn3CabekYyngvMG4CWlRYAZXQVTbCeYYjQnmAO0E/nVif1evYKpHhPBd92nJh5XfZ+rP7N+9op2BVNJfz8S27XJ6qy9CoKp/LjsJZiaVOzD1AFItNPe77Pfc+qmhWgPLzubiXYEU+9I9qmKYOodyXgqOG8AXlJaBJjRVTDFdoIpRnOCOUA7kV+d2O/VK5iqDoeau8Yaj6u+N8fXrJ+9ol3BVNLfj7TtVu1UEkzlx2UvwdSkYh+mD0CirZ/Ctzdtz+6uH1F8JNoQTL0j2acqgql3JOOp4LwBeElpEWBGV8EU2wmmGM0J5gDtRH51Yr9Xt+ct2u4xkfgp6+uteEz10k8/7HOLaFcwlfT3I227VTuVBFP5cdlLMDWp2IenCUCizV/Csyzttyuciu0FU+9I9qmKYOodyXgqOG8AXlJaBJjRVTDFdoIpRnOCOUA7kV+d2O/VM5j6suqrwodXL8Xff149fq+ex0cwlfT3I227VTuVBFP5cdlLMDWp2IenCkCi3XY1bq8xV9scTsW2gql3JPtURTD1jmQ8FZw3AC8pLQLM6CqYYjvBFKM5wRygncivTuz36vq8Rft/rPrb68P7PcXfq+9FsntJpvdE24KppL8fadut2qkkmMqPy16CqUnFPjxlABLttx8+VH+/9LD1c04w9Y5kn6oIpt6RjKeC8wbgJaVFgBldBVNsJ5hiNCeYA7QT+dWJ/V69Jw97TAh/eaevdpP87PFbfRiC7RXtC6aS/n6kbbdqp1L62noVsf+Cqcf9lPX5LGL8vT6Hutybby36mX15vza2h18jsU2v5+X3rL9nkuxTld2f/9GGYOp+zhuAl5QWAWZ0FUyxnWCK0ZxgDtBO5Fcn9nv1DqbasktZv3t8e6ev31aP26vrxGq0L5hK+vuR2O6nVTuVDp38O1rs/1mDqR7Lit4cum97JftTZdh7KfpqnwktoJr1Cqr0O+sjsU3199m/rft6JjH+nj9M2P1ebm2s2qwimAI4ibQIMKOrYIrtBFOM5gRzgHYivzqx36v78xZ99Jhg+7Tqo01MVv9q/m99VIv2BVNJf/dI2qoy5CqPWcX+nzWYmnoy+0jJ/lQ5ZCI9+m33Gaxe0rXCQ6+TeHy3q/zWfT2TGL9g6gDJeCo4bwBeUloEmNFVMMV2gilGc4I5QDuRX53Y7zUimOoxUfO3SZr4/20yMnvcViOOi2Aq6e8eSVtVXvpzLPZfMPW4QyeM94ixVy9/+tYMz3m3q442eGgJvXh8z+UnD31u9oixtyvjsn3abd3XFtGOYOp+zhuAl5QWAWZ0FUyxnWCK0ZxgDtBO5Fcn9nsNed6in+ollv7o3P7Pb9vvIfoQTCX93SO27bVkV9f7is0u9v+swVTP5R+f9iq7GHvPwG6K8CPG0Z779hk2wzJ/dx+TeGz1jy3eetp76cXYp76SLNoRTN3PeQPwktIiwIyugim2E0wxmhPMAdqJ/OrEfq9RwVSPXzn/a5Kv/XdV32tIOBH9CKaS/u4R2/Y6dk3XJRxnFvt+ymCqScZU5Wm/+2LsU0/yV4txtbDnyIDq7ntNxWN7hobPfJVfr8/+kvdxtCOYup/zBuAlpUWAGV0FU2wnmGI0J5gDtBP51Yn9XqOCqR5XLPz2ve3q5ZqGXAER/Qimkv7uEdv2XKKr+9Vys4p9P3Mw1e2+Q+u+nkWM/dt6X4r87YrW2cT42uu8Z7j9kZ+yMa3F4z6ttqv0zGFq9b0kb/7174m9oh3B1P2cNwAvKS0CzOgqmGI7wRSjOcEcoJ3Ir07s9xr2vEVfPcKEHpN3n7PxV4t+BFNJf/eIbbtd6RHuvqrhbGLfzxxM9QwihnxmVItx97p66CneQzHOI66gujv4Trat8pRLlsa4e4Z1m86b1qIdwdT9nDcALyktAszoKphiO8EUoznBHKCdyK9O7PcaGUz1mLCpnlR86Ab1e0Rfgqmkv3u0bVdtVWq/yL/rqoazif0+czDVM8wsmdQeKcbcc5L/qZaKa+Ndjb+nu6/MiccKU9+IMfe871bJZ1RrZ9VuFcEUwEmkRYAZXQVTbCeYYjQnmAO0E/nVif1eQ5+36G+GG9B/ZNgybtGXYCrp7x6xbY+lId96yeX8Yr/PHEx9WY2p0rBAu0qMucd9/24Of74fFWP+HLot9/jG3a+VeOzX1baVhixZWynG3GvpyWg+7/NR0ZZg6n7OG4CXlBYBZnQVTLGdYIrRnGAO0E7kVyf2e40Opnr+4nmvoVfKRF+CqaS/e8X2PUPOl/w8i/0+czDV8wqh5lPW76xivNNP8o8WY2+Bd/dwat3ve+KxPb8vp74PWCbG3Ov+UmWf99GWYOp+zhuAl5QWAWZ0FUyxnWCK0ZxgDtBO5Fcn9nuNDqbaxF+vyaW9Sm5+fq/oTzCV9Hev2L7HPcveOjxMGa3t8+oYVJniWMY4eoaZT7N8XYy1Z0j31P8WiPGPCKfuWkYvHtc7TH2az7gYa8+Qruy9G20Jpu7nvAF4SWkRYEZXwRTbCaYYzQnmAO1EfnViv9fw5y367B0obDX0nhvRn2Aq6e9esX3vq+9e7jMt9vnswVTPz56nuQIlxtrznkpPd7+ttdiHFgj1/AHF3e+HeGzPMHXojzH2iLH2+r5syr77oy3B1P2cNwAvKS0CzOgqmGI7wRSjOcEcoJ3Ir07s9zoimGr38sjGcqTh94iJPgVTSX/3iu1732eq+ZL1fVaxv2cPpnqHmdPfmyzG2Puq1ada0vA9sR89w7tHgqneP+SY/vmKMfb6XGpKA+VoTzB1P+cNwEtKiwAzugqm2E4wxWhOMAdoJ/KrE/u9Dnneot8RN5l/xPAJ5ehTMJX094hoo9t9cr5rVysMu+/Y0WJfzx5M9Q4zh96nbosYX8/AZXjA30vsS8/XyiPB1JfVttW+Zf3OJMbY82qpr1mfW0V7gqn7/Zn1BXB2aRFgRlfBFNsJphhNMDVAnMifJZjqfeXCIw6ZTI4+BVNJf4+INka8jqafuK0S+3rqYKqJsfQOM0snuivF2HpfLfX0y/i9FfvT6wcUD70f4vE9n7Nm2itDY2w9r5ZqSpfwjfYEUw9Y9wPwCtIiwIyugim2E0wxmmBqgDiRP0sw1XuC9BGH3Gcj+hVMJf09ItoY9To61YT7e2I/XyGYGhFmTrO/b8W4eodyp1jG7yb2p9cyeo8GU72X8zvkxxk/0sYUet5jq/y+cNGmYOoxU35WAvSUFgFmdBVMsZ1gitEEUwPESfwpgqkm+u492Xav0l9M3yv6FUwl/T0q2hn1OnqG+wftGmNs/wrB1Igwc7qJ/hhP70BuU8Af27V7Dk45OR3jmuKzrz1+tX0P0/0bLsbU+7O9/DM92hRMPeYlfvQB8FZaBJjRVTDFdoIpRhNMDRAn8WcKptqEZDamkQ67J0r0LZhK+ntUtPNp1W5PU4ZTMa52DP71elr/7RGx/emDqSbG83U1vh7aMnBThFMxjvZZ2zuM2/Qct+2+b9+ek9nCvF7ByMM/hohtel45dHPI1cOZGEvvILVLeBxtnjWY6rWs5WnuSwdwr7QIMKOrYIrtBFOMJpgaIE7iTxNMNa3/1XhGO+zXutG3YCrpb4toa+TraKpfeLfxhH+HDuu/PyK2f5VgalSYeXg4Ff2PCKU2f4/Etm9fcy18mSb8jbF0+VxZ93OP2G7UfRkPD6diDCP2tUvQE+2eNZjq+R17qiVAAX4kLQLM6CqYYjvBFKMJpgaIE/jqyYGjg6lRk23vOWzSOPoWTCX9bdHaWrXdW7tXz9GBQ9vn//gV+/pxj4jtXyKYamJMo5aAbM/RIROv0W97PnuHUs3m57dtu2qraZ+Nh75mov+25ON6XBU239eobbtqq5f23jjk8y36bUF7NqZKXa6WaqLdXp+hZw6mprlSD2CEtAgwo6tgiu0EU4wmmBogTuBPFUw1MYYRE6eZQydDon/BVNLfVtFeC4uyfnppk8RfsrH0FH22ic93Xzvrxz8itn+lYGrkEpDtM27oayX66/W+Xdv1HRLbf/SaOyygin57Hb9vWX/3iG1H/pCjBarD7r8YfbUgcNRneLeQJ9o+azDV+/Nkuu8IgF7SIsCMroIpthNMMZpgaoA4eT9jMDXifi+ZQydCon/BVNLfVtFeCxqOCDmHTJ5HH1++95WN4d/W2z0itn+ZYKqJcY26auqmPX9dJ/uj/fYc9rofTGbX1WCx/T2vuXbchi3xF331XP5w11Kgsf2oq6Zuul89Fe23wG3UZ/fmK9buEe2fNZjqfSVbe/53fzZGG+34WxoQmFpaBJjRVTDFdoIpRhNMDRAn3NVhxgzB1MgrF266Tk7dI8ZQ/VzevGQw1USbo64SybQwoE2wlk3iRlvtvdGC27sno9dtPCK2f7Vgql2lcVSYWXoFVWvve7tZf73sniyPNh55zbXnqr0fuoV7re3v/WT9VxgR5FVrx6MFVGXHPdpq7732eTk6aOv6WdTaX/VX5ehgasTrrr3ONp2/xnbtfXv7ocGU3zcAN2kRYEZXwRTbCaYYTTA1QJxwny6Yato4VuPqbdev1ivEGARTSX97RbsjrxZ5T3tu23F7aB/j8W2ytgUMbfJ9036s23xEbP9SwVQTYxtxT5v33Cb823P+UGARj3/7Whk9ud+0PneHsNHG1tdc678spIp2Wgjc+wq637O+HxXtjF629K3bcW/P20PPfzy+HeMWRrXj3DP8e0/35Xujj1MGU00ypl7aa6x9Ln/4mdj+/v1x6+9KwRQwtbQIMKOrYIrtBFOMJpgaIE64zxpMjbx3RtN1aaJ7xBgEU0l/e0W7va942KKNpz3ft8DqrTZJ2+ol4cL6eDwitn+5YKqJ8fV6L25xe520yf/1a+X2txle31WBUMVrrh2PFta0Y9Ta+2HIF49pnxMt2GvbjAqzS5YjjHaOutIv89FnW3sN3/6WbTtSSZD6I9HHmYOpI3700Z639vp5+3nY3usfjUUwBUwtLQLM6CqYYjvBFKMJpgaIE+7qCZ5pnrcYy6iJtu6/mr5HjKPXZN1LB1NNtD066JzG+lg8IrZ/1WBqpon+Z1B2xWm01es1d3MLRpqS8Hej9vqqXOaz93E7m27LP74V/Zw5mGrhUDa22QimgKmlRYAZXQVTbCeYYjTB1ABxwn3mYGrUpMcUkxYxDsFU0l+VaL/3slxTWh+HR8T2LxlMNW2MqzGTKw32o71XOe7lwUJrc9UHuZIr1e4RfZ05mGpXGWZjm41gCphaWgSY0VUwxXaCKUYTTA0QJ9xnDqba/QKyMVb6I+v7CDEWwVTSX6Xo44ilhw61PgaPiO1fNphqYpxH3m/qGbT3U+lyaNHeKwRT3ZaRi3aPvN/UMxh6hXT0d9pgqolxHHnV4b0EU8DU0iLAjK6CKbYTTDGaYGqAOOE+bTDVxHh6T7KVLUG1V4xFMJX0Vyn6aEu0vVQ4tT4Gj4jtXzqYamKsL3ml3R3KQ6km2nyFYKrb6z/afrnPuAcMX7Y3+jx7MPUMV+kJpoCppUWAGV0FU2wnmGI0wdQAccJ99mCq3Yw+G2eV7jc/v1eMRTCV9Fct+nmpidv1/j8itn/5YKqJ8Qqn/q5LKNVEu2cPpr5m+10p+hBO/adD7iUZ/Z49mGqvtWx8MxFMAVNLiwAzugqm2E4wxWiCqQHihPvUwVQTY+q1VMwhE1XvifEIppL+eoi+Xmbidr3vj4jtBVPfxZiFU3/pFko10faZg6nfs33uIfoSTv23w77ro+9TB1NNjGX2z0bBFDC1tAgwo6tgiu0EU4wmmBogTrhfIZjqFYR8yfo7SoxHMJX010v09xITt+v9fkRsL5h6I8b96uFU11CqifbPGkx1P3Zrrb/v/WbjeRWH/gAl+n+FYKq9zv58M7bZCKaAqaVFgBldBVNsJ5hiNMHUAHHC/QrB1KfVGCv8kfV1pBiTYCrpr6fos02o9b6P2aHW+/yI2F4wtRJj/2W1L6+ihXLdg5Xo44zB1PBQ6qb1G141UD38HpIxhtMHU02MZ+bPRcEUMLW0CDCjq2CK7QRTjCaYGiBOuE8fTDUxrurwYKpJnSbGJJhK+hsh+u61T4db7+sjYnvBVKKNP8x8hUC1YRP80dfZgqnDQqm3YgyvFKi29+YUnzFtHG/GVWnGf8PM+iMPwRQwtbQIMKOrYIrtBFOMJpgaIE64XyWY+rIa516fsn6OFGMSTCX9jdL6D73uZ3aY9X4+IrYXTL0j9qFdidLrPTuL9n74nO1/L9HfmYKpNlF/eCh1E2P5HE73GbfS3pMzHfNXCqZmXTpSMAVMLS0CzOgqmGI7wRSjCaYGiBPulwimmhhb1YTat6z9o8W4BFNJfyPFGNrE2tc3Y3p66318RGwvmPqB2Jd2JcoZr55q7/PhE/zR51mCqcOXkcvEuE73Gfddew/+nO3zkWJMLxNMNTGutvTybJ+HgilgamkRYEZXwRTbCaYYTTA1QJxwv1IwVbUU0Zes/aPFuARTSX9HaGMJM/7y+1G73s+xvWDqDrE/Z7qPT/scOuyK0uj72YOpdvyGXmW2RRvj97Fm+/BsWtA2zVVSb8W4XiqYamJss105JZgCppYWAWZ0FUyxnWCK0QRTA8QJ9ysFU22yIxvzI/7I2p5BjE0wlfR3pBjTz+EZl75qr6Xdx7O18abNSqecKIz9alcLPGtAVfKa2SvG0AKTZ7wCrX1OTHfFzo/EmNt7/FkDqvZem25Z3rdifC8XTDUxvvbvtVnuOXXK7xvgPNIiwIyugim2E0wxmmBqgDjhfplgqonx7Z30nflXxoKppL8ZxNhaQPUMk7ft/VF2HFtbb9qudOqJwti/FlC1qzieIWBpr5nprvCJMbX33CwT2x95ykBqLfahvdefIVRt76n2HTR1IHUT43zJYOomxtnuD3r056BgCphaWgSY0VUwxXaCKUYTTA0QJ9yvFkztneSZdjIrxiaYSvqbSYyxXc0xW+DQlkxqy1yWL2UVbQqmdop9nTFgaeNp45py+bO32hi/j7WNeab3XWkIPIvYp3a82+fJTEuxtee9He8pl+H9SIz5pYOpJsbaXlPt3w1HvH/bv6ueIsQEXldaBJjRVTDFdoIpRhNMDRAn3G2ivE18VHmGe2Nk477H1PvWxrcab5XSyedor10NkvWz1/ST5G/FeG8h1egJ3HaFRpuk7R4stPZD9lzt9VTPdYW2z6E9Z+25G7085LDXTG8x/va+a8HJ6KDqdgzbFSAv8fqN/Wyf9Ucc66Z9rrbP16cLo96K8ff6DH26sCXGfPsM7B3UtzCqvW4FUsBTSIsAM7oKpthOMMVogingJSz/PfnYfhXeJt2qwqo2wdbaa+22CXETbSfRnsvvz2n1a6a18zKvmbZ/4e17r+LK0xZCtXa8796I49BCwRYstOPSjk9VwNraaqFfa7c9ly8XXL+a9hyH9t5q4eOe9+zbzztL9gFPKS0CzOgqmGI7wRSjCaaAl7b856/l26+42wTa2tvHTH/VIn2tXg+38Gqt1f/9uKydVxfH5e1VqLdA5a32fvz3MQwCkQ3acVsdx+xYN28f43OOv4nXxNvXUfa59/Yzz3sVOI20CDCjq2CK7QRTjCaYAgAAAEikRYAZXQVTbCeYYjTBFAAAAEAiLQLM6CqYYjvBFKMJpgAAAAASaRFgRlfBFNsJphhNMAUAAACQSIsAM7oKpthOMMVogikAAACARFoEmNFVMMV2gilGE0wBAAAAJNIiwIyugim2E0wxmmAKAAAAIJEWAWZ0FUyxnWCK0QRTAAAAAIm0CDCjq2CK7QRTjCaYAgAAAEikRYAZXQVTbCeYYjTBFAAAAEAiLQLM6CqYYjvBFKMJpgAAAAASaRFgRlfBFNsJphhNMAUAAACQSIsAM7oKpthOMMVogikAAACARFoEmNH1y//4f8J/wQb/M3tN/cj/+t+X/9kCBthgUxgKAAAAcHZpEQAAAAAAAKqlRQAAAAAAAKiWFgEAAAAAAKBaWgQAAAAAAIBqaREAAAAAAACqpUUAAAAAAAColhYBAAAAAACgWloEAAAAAACAamkRAAAAAAAAqqVFAAAAAAAAqJYWAQAAAAAAoFpaBAAAAAAAgGppEQAAAAAAAKqlRQAAAAAAAKiWFgFmdPl//8//Cf+EDX7JXlM/9P9dfgn/hA3+K31NAQAAALy4tAgwo4tgiu0EU4wmmAIAAABIpEWAGV0EU2wnmGI0wRQAAABAIi0CzOgimGI7wRSjCaYAAAAAEmkRYEYXwRTbCaYYTTAFAAAAkEiLADO6CKbYTjDFaIIpAAAAgERaBJjRRTDFdoIpRhNMAQAAACTSIsCMLoIpthNMMZpgCgAAACCRFgFmdBFMsZ1gitEEUwAAAACJtAgwo4tgiu0EU4wmmAIAAABIpEWAGV0EU2wnmGI0wRQAAABAIi0CzOgimGI7wRSjCaYAAAAAEmkRYEYXwRTbCaYYTTAFAAAAkEiLADO6CKbYTjDFaIIpAAAAgERaBJjRRTDFdoIpRhNMAQAAACTSIsCMLoIpthNMMZpgCgAAACCRFgFmdBFMsZ1gitEEU1yWZfk1/FdnX7K+AQAAYFZpEWBGF8EU2wmmGE0w9eKWZfkp/HOA37P+AQAAYFZpEWBGF8EU2wmmGE0w9eKWZfl5FSD19CkbAwAAAMwoLQLM6CKYYjvBFKMJpl7csiy/r8Kjnr5mYwAAAIAZpUWAGV0EU2wnmGI0wdQLW5bl0yo46u2PbBwAAAAwo7QIMKOLYIrtBFOMJph6YcuyfF0FRyN8ycYCAAAAs0mLADO6CKbYTjDFaIKpF7Ysyx+r0GiE37KxAAAAwGzSIsCMLoIpthNMMZpg6kUty/JlFRiN9FM2JgAAAJhJWgSY0UUwxXaCKUYTTL2oZVl+W4VFI/2cjQkAAABmkhYBZnQRTLGdYIrRBFMvaFmWn1ZB0Wi/Z+MCAACAmaRFgBldBFNsJ5hiNMHUC1qW5edVUHSET9nYAAAAYBZpEWBGF8EU2wmmGE0w9YKWZfl9FRId4Ws2NgAAAJhFWgSY0UUwxXaCKUYTTL2YZVk+rQKio/yRjQ8AAABmkRYBZnQRTLGdYIrRBFMvZlmWr6uA6EhfsjECAADADNIiwIwugim2E0wxmmDqxSzL8ucqHDrSb9kYAQAAYAZpEWBGF8EU2wmmGE0w9UKWZfmyCoZm8FM2VgAAADhaWgSY0UUwxXaCKUYTTL2QZVm+rUKhGfycjRUAAACOlhYBZnQRTLGdYIrRBFMvYlmWn1aB0Cx+z8YLAAAAR0uLADO6CKbYTjDFaIKpF7Esyy+rQGgmn7MxAwAAwJHSIsCMLoIpthNMMZpg6kUsy/L7KgyayddszAAAAHCktAgwo4tgiu0EU4wmmHoBy7J8XgVBs/kzGzcAAAAcKS0CzOgimGI7wRSjCaZewLIsX1dB0Iy+ZGMHAACAo6RFgBldBFNsJ5hiNMHUC1iW5c9VCDSjb9nYAQAA4ChpEWBGF8EU2wmmGE0wdXLLsnxZBUAz+ynbBwAAADhCWgSY0UUwxXaCKUYTTJ3csizfVuFPhV5h17bPQAAAAOggLQLM6CKYYjvBFKMJpk5sWZafVsFPhd+/t/37ql7hX20DAADADNIiwIwugim2E0wxmmDqxJZl+WUV/FT4uWPbzef1fgAAAMAR0iLAjC6CKbYTTDGaYOrElj5XNf3rPlDx30+repWv6/0AAACAI6RFgBldBFNsJ5hiNMHUSS3L8nkV+FT4tuqjR/D159s+AAAA4ChpEWBGF8EU2wmmGE0wdVLLsnxdBT4V/rWM35s+ei3n9+VtPwAAAHCEtAgwo4tgiu0EU4wmmDqpZVn+XIU9Ff61jN+bPn5a/b3K367MAgAAgCOkRYAZXQRTbCeYYjTB1Akty/JlFfRU+O2dvr6tHlflbyEYAAAAjJYWAWZ0EUyxnWCK0QRTJ7T0CYvS5fWi/vPqcVW2fR4CAABAkbQIMKOLYIrtBFOMJpg6mWVZPq0Cngp/Zn018bdey/n9nvUHAAAAo6RFgBldBFNsJ5hiNMHUySzL8ssq4KmQLuN3E3/vtZzf56w/gLX4vGgh+T++a1dy/vpd+9+3+tRLhMb42g8L2jhvY/8t/NcH2t9vj23b+cwEACiWFgFmdBFMsZ1gitEEUyezLMsfIQt59kiX8btpf189vsrXrD+A+HxoIU4L4lsw/mfIPkMy7TOybfNz1u5IMYZbCNVCpmysW/0eWmjVQrlPWd8AANwnLQLM6CKYYjvBFKMJpk5kWZbPIZuk3OOPrK+1eNwjE8P3encJwVnFmKsnmE9nfcwy8bhex/EfWX9Hi3F12d91P3tEez3G+PB3UGzTwpYWvGTtPWTd9gjRbxv/o2HaXu14tRBPSAUA8KC0CDCji2CK7QRTjCaYOpHlr1/IZ5OSe9x11VI8rkffzeFXNTwixiuY+oH1McvE4wRTBdb97BHtHRpMxWNboFN6Rei6j16ir3Z119cwMox6T3sen+pzFQDgSGkRYEYXwRTbCaYYTTB1IkufSc+77lkSj+u1nN+3rL9ZxXgFUz+wPmaZeJxgqsC6nz2ivUOCqXhMuxK05AqptXVf1aKPFkj1Cu33aiGfgAoA4AfSIsCMLoIpthNMMZpg6iTaBOObCccqdy3jdxOP73U1wNMsPxVjFUz9wPqYZeJxgqkC6372iPaGB1Px9/a51u0qo3V/VaLtn0K7QirtdzIt9JvyfQEAMIO0CDCji2CK7QRTjCaYOonlr3uWZJOOe/ya9fWeeHyvidhtn40HiLEKpn5gfcwy8TjBVIF1P3tEe0ODqfjbr6vHllv3WSHabVePzrBk36Pa5/dP2T4BALyytAgwo4tgiu0EU4wmmDqB5a/lorKJxr0eulIpHt+W3Mra2euhK7eOFGMVTP3A+phl4nGCqQLrfvaI9oYFU1Efsvzdut89or12lVSPHwiM1Jb3u2v5VgCAV5EWAWZ0EUyxnWCK0QRTJ7Asyy9vJhar/J719SOxXZvYzNrb6ykmS2OcgqkfWB+zTDxOMFVg3c8e0d6QYCpqPT7PUuu+t4q2Wij/jFdJZdp+uPcUAMB3aRFgRhfBFNsJphhNMHUCS58waNPnUWzXazm/37L+ZhPjFEz9wPqYZeJxgqkC6372iPa6B1Px/9syeNnjunjb91bRTo/7+83gaZZQBQDoKS0CzOgimGI7wRSjCaae3NJv+byHlvG7ie16jefPrL/ZxDgFUz+wPmaZeJxgqsC6nz2iva7BVPzvtiTp0KuObn1vFW30CuJn8RQ/CAAA6CktAszoIphiO8EUowmmnlybOFxNJFbY9bqI7Xst5zf98lIxRsHUx37NjttaPE4wVWDdzx7RXu9gavh759b3FrH9kPtgTcCVUwDAS0uLADO6CKbYTjDFaIKpJ7f0ucJgVwAU2/e6R8y3rL+ZxBgFU++7+/OmPXa1bRXB1EbRXrdgKv47dAm/m7f794jY9lVCqRv3nAIAXlZaBJjRRTDFdoIpRhNMPbE2WbiaPKzyU9bfvWL7tiRX1m6FTUsMjhLjE0zlWoB69+sqHiuYKrDuZ49or2cw1esqyw+93b97xXavFkrdfM6OBwDA2aVFgBldBFNsJ5hiNMHUE1uW5dtq4rBCyVVJ0c7vq3arTL2sVIxPMJV7KBCKxwumCqz72SPa6xJMhV4B+w+t9/FHYpteV4M+g4fCZQCAs0iLADO6CKbYTjDFaIKpJ7X0uyqpZMmmaKfXBO4fWX+ziPEJpv7T1+xYfSS2EUwVWPezR7TXK5jqFWL/0HofPxKPP2S5wclMv5wqAEC1tAgwo4tgiu0EU4wmmHpSS5/gp+wX8dFOz+X8pl1SKsYmmPq737Pj9COxnWCqwLqfPaK9HmPscY+8u6338T3x2M/hyLG2vtvxvzlyLF+yYwQAcFZpEWBGF8EU2wmmGE0w9aSWPvdk+S3ra6tor8dSg03pOCvF2LoEDE+qTZ5vuidYbNfrOAqmNor2TvfaXu9jJh73Uxh9VVf77Gw/PvgwhG9/D20pxHbfq1FhVevHkn4AwMtIiwAzugim2E4wxWiCqSe0/DUZmU0Y7lX6S/hor9e9Y/7M+ptBjE0w9d82LwsZ2wqmCqz72SPae9Vg6ut6u05a4PNr2Bz6xLbtM3fE8/Rr1j8AwBmlRYAZXQRTbCeYYjTB1BNa/vp1fDZZuEd52BNttisNsr4qlNwLq1qMq4WG/3gSPSewd13VFtsLpgqs+9kj2nu5YCoe094n6bbFdgVSa9FWC6h6XkG1+WpIAIBnkxYBZnQRTLGdYIrRBFNPZvkr7Okx4dhlebxot9dyfm7Cv0Mcvy+r41mpLTO5a5I9thdMFVj3s0e0N1Mw1T4D22dLC3TWgWvTlsFrf2uPeXfZ0/U+rsVjeiyZ+lZbIrDLPfOi3d5LEH7N+gUAOJu0CDCji2CK7QRTjCaYejJLv+Xxek2O9hpv4xf7G7TjFnpeTbH7tRRtCKYKrPvZI9qbIZhqY3h4ydHYpl3J2Jbk+1vQtH7cW/H3Fmy97btau/K1672aWvuhVzjVPkPcawoAOL20CDCji2CK7QRTjCaYejJLn8nhP7K+qkT7vUIQ9znZII5bz6sotn2PrUQ7gqkC6372iPaODKbaa7bkuYt2Wlj+r/fA+m838bdeV6bedLlCNRN99QynSt7vAAAzS4sAM7oIpthOMMVogqknsvx1pUs2ObhX1yWZov0e98RqugZqZxTHrF01kh3LCmXLK0ZbgqkC6372iPaOCqa6fD5Fu+/+myv+1uszqxkWSt1En72ukvQZDACcXloEmNFFMMV2gilGE0w9kaXf0lJdlvG7ifZ73s9oyqBhRu1YrY5dpdJlvaItwVSBdT97RHtHBFM/Z2PpKfrs9QOAZngodRN9P9UysAAAs0iLADO6CKbYTjDFaIKpJ7L0uRH/kF+8Rz+9lsU6bKL3mcRx6r00WWngE+0Jpgqs+9kj2hsdTA0PpZrot9dVhW05vUPvyRT993gOu15xCwBwtLQIMKOLYIrtBFOMJph6Eku/q122fe48KPrptTRW6ZU6ZxXHqGeoUH6vr2hTMFVg3c8e0d7IYOqoUKpngHv4lUUxhh7fI5bzAwBOLS0CzOgimGI7wRSjCaaexNIv2PmU9Vct+um5jNwhk9jPIo5PryUgm9+zPveKdgVTBdb97BHtjQqmzrjc3TRXFcVYelx5azk/AOC00iLAjC6CKbYTTDGaYOoJLP1+xd8lVHhP9NdjQrTxOn5HHJve95XqEmxGu4KpAut+9oj2RgRT7TPisCsgo++23F42rj2muqozxtJjqcIhV94CABwhLQLM6CKYYjvBFKOZ0H8CS79f8Q+dTIz+et27pRly5dcziWPSAs1eYWDzJeu3QrQtmCqw7mePaG9EMHXY1Y/R96fVWKqUL3W5R4zn82p8Fb5lfQEAnEFaBJjRRTDFdoIpRhNMPYGl34Tw0F/xR389JkRvppr8nUEck2+rY1Sp63Jr0b5gqsC6nz2ivd7B1KH3Kor+ewTnU94D7/u4svFu5T5TAMBppUWAGV0EU2wnmGI0wdTkln6/4j/kF+7Rb68reEyMvhHH45fV8anUljvrOtke7QumCqz72SPa6x1MHXqvuOi/xzJ+h90v6yMxrh7P5XQBHABAhbQIMKOLYIrtBFOMJpia3LIsv64m/6ocMgkc/fban2bK0GG0OA49r0xrPmf9Voo+BFMF1v3sEe31DKb+zPocJfrv9QOAWV9vPT6Hff4CAKeUFgFmdBFMsZ1gitEEU5Nb+l1hdMiv26PfXhPAzZRXJ4wUx6D3faWG3Jcs+hFMFVj3s0e01zOYOvS9G/33uI/ftFdxxth67O+QzwYAgNHSIsCMLoIpthNMMZpgamLLsvxjNfFX5dAb1Uf/PZbMaqa8n8tIsf+/vTke1Ya9bqIvwVSBdT97RHs9g6kvWZ+jRP893jfTBuUxth7fLe7zBwCcUloEmNFFMMV2gilGE0xNbOkXMhw9Cdzz/keH3qfmSG3fV8eiUrsKa1joF30Jpgqs+9kj2usWTK37Gi3G0OMqw0M/Zz8SY+sRTPn3BABwSmkRYEYXwRTbCaYYzUTSpJa/lmRrVwBlE4B7HHovlybG0HM5v5d8Tcd+t/tK9Xi93AwNdKI/wVSBdT97RHu9npND37PRf/uszca117RXb7axrcZawb8nAIBTSosAM7oIpthOMMVoJpImtfS7+mWK5aViHN2uvgifsj7PKva3TTL3Wh6xGb5EV/QpmCqw7mePaK/Xc/I162+U6L/H1UO/Z33NJBnzXof/6AEAoIe0CDCji2CK7QRTjCaYmtTSbxJ4iuWlYhw9l517qXudxP5+Xe1/pUM+I1q/q3FUEUxtFO31ek4OXX4z+u+xtGi7erEdr5ll495lfWwBAM4gLQLM6CKYYjvBFKMJpia09FvqbppftMdYei2f1fyR9XlGsa9fVvteqU2uH3L1WfTbZeI8CKY2ivZO+ZxE/7+uxsNG62MLAHAGaRFgRhfBFNsJphhNMDWhpd8VMIcumbUW4/m2Gl+lKQOISrGPLcDseV+pw66ui74FUwXW/ewR7fV6Tg69F1P032u/Xs762AIAnEFaBJjRRTDFdoIpRhNMTWhZlj/WE35FPmf9HSXG03M5vynupdVT7GPP+0odfd8fwVSBdT97RHvTj3GLGINgqs6hISMAQA9pEWBGF8EU2wmmGE0wNZml39Js0y1vF2Nqy/n1uuKntXvaSdLYt573lWqB11mvYhFMbRTtnTWYSsfFJqe/UhUAeD1pEWBGF8EU2wmmGE0wNZllWX5bTfSx3c/ZMX52sV//WO1npRboHX5lXYxBMFVg3c8e0V6PMR7+HZSMie0EUwDA6aRFgBldBFNsJ5hiNMHURJa/riDKJvvY5vfsOD+z2KeeV5k1U4R5MQ7BVIF1P3tEe4IpfkQwBQCcTloEmNFFMMV2gilGE0xNZOl7z6VX9Sk71s8q9qdXYNN8y/o8QoxFMFVg3c8e0d7pgqno348BagmmAIDTSYsAM7oIpthOMMVogqmJLH/d2yeb7GO7r9mxfkaxL7+u9q3SH2Gae3LFWARTBdb97BHtnTGY6rks5isSTAEAp5MWAWZ0EUyxnWCK0QRTk1iW5dNqgo8af2TH+9nEfvSeQD/8vlJvxXgEUwXW/ewR7Qmm+BHBFABwOmkRYEYXwRTbCaYYTTA1iWVZvq4m+KjzJTvmzyLG35Yba1c0ZftW4des3yPFmARTBdb97BHtCab4EcEUAHA6aRFgRhfBFNsJphhNMDWJpW/w8Op+y475s4jxf1vtT6UpPwPauFbjrCKY2ijaE0zxI4IpAOB00iLAjC6CKbYTTDGaYGoCy7J8WU3uUW+a+yc9Isb9y2o/Kv0ZpjwuMS7BVIF1P3tEe4IpfkQwBQCcTloEmNFFMMV2gilGE0xNYFmW31aTe9T7OTv2M4sxf17tQ7VplziMsQmmCqz72SPaO2Mw1fs99moEUwDA6aRFgBldBFNsJ5hiNMHUwZa/7h+UTfBR6/fs+M8qxtteF7+/GX+1r1m/s4jxCaYKrPvZI9o7XTDVJGNiO8EUAHA6aRFgRhfBFNsJphhNMHWwZVl+Xk3s0c+n7DmYUYy151V004d0MUbBVIF1P3tEe4IpfkQwBQCcTloEmNFFMMV2gilGE0wdbOl7VQx/N/VVQjcxzp5hZbuv1Oes35nEGAVTBdb97BHtCabuJ6ABADiJtAgwo4tgiu0EU4wmmDrQsiyfVpOZ9PVH9jzMJMbY7nnTwqNs/BWe4l5bMc5XC6a6BNTrfvaI9s4aTP2xGlOFae/fBgDAY9IiwIwugim2E0wxmmDqQMuyfF1NZtLf1BPGMb6eV9D9lvU5oxjrqwVT2Vh3W/ezR7R31mCqx379mvUFAMDzSYsAM7oIpthOMMVogqkDLX1+qc/Hpg1nYmw9g8r2Wvsp63dGMVbBVIF1P3tEe4Kp+z1NCAwAwMfSIsCMLoIpthNMMZpg6iDLsnxZTWQyznQBTYyp9+th+vtKvRXjFUwVWPezR7R31mDq19WYKvye9QUAwPNJiwAzugim2E4wxWiCqYMsy/JtNZHJOFPdZynG0+411vO+Utu+Ww4UY+4VTE13LGJM/1iNscy6rz2ivbMGU7+sxlTlaa5QBADgfWkRYEYXwRTbCaYYTTB1gDZhuZrAZKyprmZo41mNr9JTvsdj3D2uYmmmu/dPjOnn1RjLrPvaI9o7azDVKxic+n52AADcJy0CzOgimGI7wRSjCaYOsPT7hX7T7iXUJvWfXc+wpvmUPTejxTjavmbjq9CuwnrKqzZi3L2Oy7esvyPFmLrdW2zd1x7R3imDqSYZV4WvWV8AADyXtAgwo4tgiu0EU4wmmDrA0jd0ebpl2zKxH92uIvnu8EnjGEO3Jdy+m/J+SveIsfcKpqa7908b02qMZdZ97RHtnTmYaoF+Nr49/sj6AgDguaRFgBldBFNsJ5hiNMHUYMuyfF5NXlab4kqgCrEvPe+79GfW5yjRf1vOsef+PfXVGjH+bleSrfs6Uoyn3V8sHWeFdX97RHtnDqZ+W42rytOGwwAA/CUtAszoIphiO8EUowmmBls6LtsVprsaZI/Yn16TxTeH3QMm+u4xyX/z9K+D2Icvq32qNE1YEGPpuaxndJH3u0W0d+ZgqtcVmr9l/QEA8DzSIsCMLoIpthNMMZpgarCl71Uyp1jG7yb2p2c40Rxyv6Hot/d9pZ7+qrnYh57LHE5zNVmMpccScv+27m+PaO/MwVTPK9dOcxUrAMArSosAM7oIpthOMMVogqmBlv5By+kmQGOfuk7ch5+yfnuJ/nov5XjYVWCVYj96BgVT3PsnxtH7HmPRTd73FtHeaYOpJsbS67PmqZfVBAB4dWkRYEYXwRTbCaYYTTA10LIs31YTlpVOtYzfTexXz6UPm2FXmUVf7b5SPYO2Uy0bluxfpcOX84sx9FzO8V/Wfe4R7Z09mOr5WeOqKQCAJ5UWAWZ0EUyxnWCK0QRTgyx/hRLZhGWVn7N+n13sV+8rjIYFetFX12AyDL36q7fv+5Tta4VDQ7zov9c9jf5m3e8e0d7Zg6menzW+awEAnlRaBJjRRTDFdoIpRjNZNsiyLL+sJiqrnSqUeCv2rfdyfp+zfitFH72f/+77MFrs02+rfax2yDGLfltI3fNec/+27nuPaO/UwVQT4+n5WTPs6sxeYh9O+z0DAPCetAgwo4tgiu0EU4wmmBpk6Xv1x7esz7OI/esd6nS9B0y03/uqr6ef8M60/VrtZ7VDPv9av6txdLPue49o7xWCqd6vuae9sjXG3o7Nqb9rAAAyaRFgRhfBFNsJphhNMDXA0j+YOOUyfjexf59W+1vtz6zfCtF2uzpGKLlB7Fvv900zNNSL/npfBfY36/73iPZeIZjqveRq81Sf1zHe9j68Pff+zQAAvJy0CDCji2CK7QRTjGaSaYCl7031m9MvrxT72DPcab5k/e4V7fYMItpycKd+7r/vY7bvlbo892vRz9BQqlmPYY9o7/TBVBNjGvE8TX+VY4yx/SBgfSz8mwEAeDlpEWBGF8EU2wmmGM0k0wBL38n1l1haKfbz59V+Vys/jtFm7zH/I+v3TGIfv632uYf2/uwaTkX7w0OpZj2OPaK9Vwmmel+hedNe29MFyzGmLJC68W8GAODlpEWAGV0EU2wnmGI0k0ydLcvyZTWxV+3Uy/jdxH6OWGKrbJI42mrLX/UMJH/N+j2b2M/e4d5b5cc02myvg95X+71rPZ49or2XCKaaGNeoILF9RkzxXo5x/CP8aL/9mwEAeDlpEWBGF8EU2wmmGM0kU2dL/ys+Tr+M303sa+9jWba8VrTVM4xok9ltEvlZ3f2abY8N2THopT1vu69EizY+uupkmPW49oj2XimYas9fz2B57Y/wSxj6eR79tf1s/bb+s3Gt+TcDAPBy0iLAjC6CKbYTTDGaSaaOlv6T6i+xjN9N7G/vq2d+z/p9VLTT+55iz+6h4CceP2I5v7UWULUJ+0/ZmDLx2PZ+b1dIHjHe1HqMe0R7LxNMNTG2X1djHaUFmt2Wloy221V8bd+2hOf+zQAAvJy0CDCji2CK7QRTjGaSqaPlr4ntbHKvykss4/dW7HPvqxg+Z/3eK7bvvXTjGTwaTLWrrLJ2RmlXk7RQpk3mZ1oQddhyfR9ZH8s9or2XCqaaGN+9VxL1cnvdtc+Vhz+bYpv23mmBfmuj4vnzbwYA4OWkRYAZXQRTbCeYYjSTTB0tfSer/8z6PLvY797Lo33N+r1HbDt6+a9n9fBSebHN0QHBU1ofxz2ivVcMptrVRdm4j9aei/f0/N7xbwYA4OWkRYAZXQRTbCeYYjSTTJ0s/Sc0f8v6PbvY795XJG0O/GLbKa+amdCWYKr3Mo6ntD6Oe0R7LfRI+9lh+u+gGGO72igb+yvybwYA4OWkRYAZXQRTbCeYYjSTTJ0s/a/s6XYPktnFvve+eubhYxvbmLy+38PBVBPbCf4etD6Ge0R7LxlMNTHOae4bdjD/ZgAAXk5aBJjRRTDFdoIpRjPJ1MnSd0m3l1zG7yb2/+vqeFT7lvX7nnj80fdAejZbg6mzHucWevQIfeKw5cdyi2jvlYOpn4JgVDAFALygtAgwo4tgiu0EU4xmkqmDpf+yYy+5jN9N7P+I+758yvrOxGPdV+oxm4KpJrbtHUqO1q7+a6GHYGpyMVb3kBNMAQAvKC0CzOgimGI7wRSjmWTqYOm/7NPLLuN3E8eg93J+d38eJ9vysT3B1JmuXGkhx+fv+yWYegIx3haKv3I45d8MAMDLSYsAM7oIpthOMMVoJpmKLX/9qj6b0Kvy0sv43cRx+GV1XKr9kfWbSbblY5uDqSa2P8OVK/8Opb7vk2DqScSYXzmc8m8GAODlpEWAGV0EU2wnmGI0k0zFlv6ByUsv43cTx6F3ANj8Ozj4SLIdH9sVTDXRxjOHA38Lpb7vj2DqicS4X/WeU/7NAAC8nLQIMKOLYIrtBFOMZpKp2NJ/ibndk/pnEcei98TwXSFgsh0fK3kNRzvPGE79Ryj1fV8EU08mxt7Cqd7Lts7GvxkAgJeTFgFmdBFMsZ1gitFMMhVa/poozybzqty9vNwriOPx8+r4VLtr2cRkOz5WFq5GW+099yxXrrRg56d39kMw9aRiH9pVsq+ytN+37BgAAJxZWgSY0UUwxXaCKUYTTBValuW31SReta9Zv68qjke7YiE7TpV+zvp+K9mGj5Ve9RftPcOVK79mY7+JvwumnljsR1tatMtzOIkWvP3wsxAA4IzSIsCMLoIpthNMMZpgqtD3ybtsUq/KXfc8eiVxTHoHEj+8QiDZho91WY4y2v0Sei+l+agWVnzKxvvW98dl2++y7mePaE8w9QOxP+0qztleg3u0fWlXhKVX+gEAvIK0CDCji2CK7QRTjCaYKrL0X1bOMn6JOC69j3vzYbCQPJ6PdbtPWrTdrp76NRy9tFoLce7ez++Pz9rZZd3PHtGeYOoOsU+zvAb3aM+1K6QAAEJaBJjRRTDFdoIpRhNMFVn6X7ljGb93xLHpPQH84Wdz8ng+1i2Yuok+WjhwxNUrbTnPh/cvthFMnVDsX3sNPss90No429VRP7zCDwDglaRFgBldBFNsJ5hiNMFUgTaR931iryfL+L0jjk3ve3t9eLVa8ng+1j2Yeiv6+xzaFSw9AoIWirZQugUQm5c7i20FUycW+9leg1/DTMv8tddu++xsr11hFADAO9IiAAAA3GP560qqf4QWVLVJ+Ra23BsWtMe1x7eAoV1ZIizmYe118/310wLNkcv93V67LYjy2gUAuFNaBAAAgCrLX1dAtvDK5D3dvXm9tbC0BUctQNpyddptuxZ4tbZa+NXadTUUAMAOaREAAAAAAACqpUUAAAAAAAColhYBAAAAAACgWloEAAAAAACAamkRAAAAAAAAqqVFAAAAAAAAqJYWAQAAAAAAoFpaBAAAAAAAgGppEQAAAAAAAKqlRQAAAAAAAKiWFgEAAAAAAKBaWgQAAAAAAIBqaREAAAAAAACqpUUAAAAAAAColhYBAAAAAACgWloEAAAAAACAamkRAAAAAAAAqqVFAAAAAAAAqJYWAQAAAAAAoFpaBAAAAAAAgGppEQAAAAAAAKqlRQAAAAAAAKiWFgEAAAAAAKBaWgQAAAAAAIBqaREAAAAAAACqpUUAAAAAAAColhYBAAAAAACgWloEAAAAAACAamkRAAAAAAAAqqVFAAAAAAAAqJYWAQAAAAAAoFpaBAAAAAAAgGppEQAAAAAAAKqlRQAAAAAAAKiWFgEAAAAAAKBaWgQAAAAAAIBqaREAAAAAAACqpUUAAAAAAAColhYBAAAAAACgWloEAAAAAACAamkRAAAAAAAAqqVFAAAAAAAAqJYWAQAAAAAAoFpaBAAAAAAAgGppEQAAAAAAAKqlRQAAAAAAAKiWFgEAAAAAAKBaWgQAAAAAAIBqaREAAAAAAACqpUUAAAAAAAColhYBAAAAAACgWloEAAAAAACAamkRAAAAAAAAqqVFAAAAAAAAqJYWAQAAAAAAoFpaBAAAAAAAgGppEQAAAAAAAKqlRQAAAAAAAKiWFgEAAAAAAKBaWgQAAAAAAIBqaREAAAAAAACqpUUAAAAAAAColhYBAAAAAACgWloEAAAAAACAamkRAAAAAAAAqqVFAAAAAAAAqJYWAQAAAAAAoFpaBAAAAAAAgGppEQAAAAAAAKqlRQAAAAAAAKiWFgEAAAAAAKBaWgQAAAAAAIBqaREAAAAAAACqpUUAAAAAAAColhYBAAAAAACgWloEAAAAAACAamkRAAAAAAAAqqVFAAAAAAAAqJYWAQAAAAAAoFpaBAAAAAAAgGppEQAAAAAAAKqlRQAAAAAAAKiWFgEAAAAAAKBaWgQAAAAAAIBqaREAAAAAAACqpUUAAAAAAAColhYBAAAAAACgWloEAAAAAACAamkRAAAAAAAAqqVFAAAAAAAAqJYWAQAAAAAAoFpaBAAAAAAAgGppEQAAAAAAAKqlRQAAAAAAAKiWFgEAAAAAAKBaWgQAAAAAAIBqaREAAAAAAACqpUUAAAAAAAColhYBAAAAAACgWloEAAAAAACAamkRAAAAAAAAqqVFAAAAAAAAqJYWAQAAAAAAoFpaBAAAAAAAgGppEQAAAAAAAKqlRQAAAAAAAKiWFgEAAAAAAKBaWgQAAAAAAIBqaREAAAAAAACqpUUAAAAAAAColhYBAAAAAACgWloEAAAAAACAamkRAAAAAAAAqqVFAAAAAAAAqJYWAQAAAAAAoFpaBAAAAAAAgGppEQAAAAAAAKqlRQAAAAAAAKiWFgEAAAAAAKBaWgQAAAAAAIBqaREAAAAAAACqpUUAAAAAAAColhYBAAAAAACgWloEAAAAAACAamkRAAAAAAAAqqVFAAAAAAAAqJYWAQAAAAAAoFpaBAAAAAAAgGppEQAAAAAAAKqlRQAAAAAAAKiWFgEAAAAAAKBaWgQAAAAAAIBqaREAAAAAAACqpUUAAAAAAAColhYBAAAAAACgWloEAAAAAACAamkRAAAAAAAAqqVFAAAAAAAAqJYWAQAAAAAAoFpaBAAAAAAAgGppEQAAAAAAAKqlRQAAAAAAAKiWFgEAAAAAAKBaWgQAAAAAAIBqaREAAAAAAACqpUUAAAAAAAColhYBAAAAAACgWloEAAAAAACAamkRAAAAAAAAqqVFAAAAAAAAqJYWAQAAAAAAoFpaBAAAAAAAgGppEQAAAAAAAKqlRQAAAAAAAKiWFgEAAAAAAKBaWgQAAAAAAIBqaREAAAAAAACqpUUAAAAAAAColhYBAAAAAACgWloEAAAAAACAamkRAAAAAAAAqqVFAAAAAAAAqJYWAQAAAAAAoFpaBAAAAAAAgGppEQAAAAAAAKqlRQAAAAAAAKiWFgEAAAAAAKBaWgQAAAAAAIBqaREAAAAAAACqpUUAAAAAAAColhYBAAAAAACgWloEAAAAAACAamkRAAAAAAAAqqVFAAAAAAAAqJYWAQAAAAAAoFpaBAAAAAAAgGppEQAAAAAAAKqlRQAAAAAAAKiWFgEAAAAAAKBaWgQAAAAAAIBqaREAAAAAAACqpUUAAAAAAAColhYBAAAAAACgWloEAAAAAACAamkRAAAAAAAAqqVFAAAAAAAAqJYWAQAAAAAAoFpaBAAAAAAAgGppEQAAAAAAAKqlRQAAAAAAAKiWFgEAAAAAAKBaWgQAAAAAAIBqaREAAAAAAACqpUUAAAAAAAColhYBAAAAAACgWloEAAAAAACAamkRAAAAAAAAqqVFAAAAAAAAqJYWAQAAAAAAoFpaBAAAAAAAgGppEQAAAAAAAKqlRQAAAAAAAKiWFgEAAAAAAKBaWgQAAAAAAIBqaREAAAAAAACqpUUAAAAAAAColhYBAAAAAACgWloEAAAAAACAamkRAAAAAAAAqqVFAAAAAAAAqJYWAQAAAAAAoFpaBAAAAAAAgGppEQAAAAAAAKqlRQAAAAAAAKiWFgEAAAAAAKBaWgQAAAAAAIBqaREAAAAAAACqpUUAAAAAAAColhYBAAAAAACgWloEAAAAAACAamkRAAAAAAAAqqVFAAAAAAAAqJYWAQAAAAAAoFpaBAAAAAAAgGppEQAAAAAAAKqlRQAAAAAAAKiWFgEAAAAAAKBaWgQAAAAAAIBqaREAAAAAAACqpUUAAAAAAAColhYBAAAAAACgWloEAAAAAACAamkRAAAAAAAAqqVFAAAAAAAAqJYWAQAAAAAAoFpaBAAAAAAAgGppEQAAAAAAAKqlRQAAAAAAAKiWFgEAAAAAAKBaWgQAAAAAAIBqaREAAAAAAACqpUUAAAAAAAColhYBAAAAAACgWloEAAAAAACAamkRAAAAAAAAqqVFAAAAAAAAqJYWAQAAAAAAoFpaBAAAAAAAgGppEQAAAAAAAKqlRQAAAAAAAKiWFgEAAAAAAKBaWgQAAAAAAIBqaREAAAAAAACqpUUAAAAAAAColhYBAAAAAACgWloEAAAAAACAamkRAAAAAAAAqqVFAAAAAAAAqJYWAQAAAAAAoFpaBAAAAAAAgGppEQAAAAAAAKqlRQAAAAAAAKiWFgEAAAAAAKBaWgQAAAAAAIBqaREAAAAAAACqpUUAAAAAAAColhYBAAAAAACgWloEAAAAAACAamkRAAAAAAAAqqVFAAAAAAAAqJYWAQAAAAAAoFpaBAAAAAAAgGppEQAAAAAAAKqlRQAAAAAAAKiWFgEAAAAAAKBaWgQAAAAAAIBqaREAAAAAAACqpUUAAAAAAAColhYBAAAAAACgWloEAAAAAACAamkRAAAAAAAAqqVFAAAAAAAAqJYWAQAAAAAAoFpaBAAAAAAAgGppEQAAAAAAAKqlRQAAAAAAAKiWFgEAAAAAAKBaWgQAAAAAAIBqaREAAAAAAACqpUUAAAAAAAColhYBAAAAAACgWloEAAAAAACAamkRAAAAAAAAqqVFAAAAAAAAqJYWAQAAAAAAoFpaBAAAAAAAgFr/vPz/GhoivpSh09AAAAAASUVORK5CYII=;strokeColor=none;points=[];labelBackgroundColor=none;rounded=0;html=1;whiteSpace=wrap;" parent="1" vertex="1">
            <mxGeometry y="510" width="194" height="102" as="geometry" />
          </mxCell>
        </UserObject>
        <mxCell id="228" parent="1" vertex="1">
          <mxGeometry x="317" y="195" as="geometry" />
        </mxCell>
        <UserObject label="&lt;div style=&quot;font-size: 1px&quot;&gt;&lt;/div&gt;" tags="Connector" id="229">
          <mxCell style="vsdxID=1072;edgeStyle=none;startArrow=none;endArrow=block;startSize=5;endSize=5;strokeWidth=2;strokeColor=#000000;spacingTop=0;spacingBottom=0;spacingLeft=0;spacingRight=0;verticalAlign=bottom;html=1;labelBackgroundColor=#ffffff;rounded=0;align=center;exitX=1;exitY=0.525;exitDx=0;exitDy=0;exitPerimeter=0;" parent="1" source="207" target="228" edge="1">
            <mxGeometry relative="1" as="geometry">
              <mxPoint y="-25" as="offset" />
              <Array as="points" />
            </mxGeometry>
          </mxCell>
        </UserObject>
      </root>
    </mxGraphModel>
  </diagram>
</mxfile>
